%TF.GenerationSoftware,KiCad,Pcbnew,(6.0.7)*%
%TF.CreationDate,2023-01-26T09:38:32+00:00*%
%TF.ProjectId,CoCo_FPGA_Hat,436f436f-5f46-4504-9741-5f4861742e6b,0*%
%TF.SameCoordinates,Original*%
%TF.FileFunction,Legend,Bot*%
%TF.FilePolarity,Positive*%
%FSLAX46Y46*%
G04 Gerber Fmt 4.6, Leading zero omitted, Abs format (unit mm)*
G04 Created by KiCad (PCBNEW (6.0.7)) date 2023-01-26 09:38:32*
%MOMM*%
%LPD*%
G01*
G04 APERTURE LIST*
%ADD10C,0.150000*%
G04 APERTURE END LIST*
D10*
X105722857Y-57672380D02*
X105722857Y-56672380D01*
X105294285Y-57672380D02*
X105294285Y-57148571D01*
X105341904Y-57053333D01*
X105437142Y-57005714D01*
X105580000Y-57005714D01*
X105675238Y-57053333D01*
X105722857Y-57100952D01*
X104960952Y-57005714D02*
X104580000Y-57005714D01*
X104818095Y-56672380D02*
X104818095Y-57529523D01*
X104770476Y-57624761D01*
X104675238Y-57672380D01*
X104580000Y-57672380D01*
X104389523Y-57005714D02*
X104008571Y-57005714D01*
X104246666Y-56672380D02*
X104246666Y-57529523D01*
X104199047Y-57624761D01*
X104103809Y-57672380D01*
X104008571Y-57672380D01*
X103675238Y-57005714D02*
X103675238Y-58005714D01*
X103675238Y-57053333D02*
X103580000Y-57005714D01*
X103389523Y-57005714D01*
X103294285Y-57053333D01*
X103246666Y-57100952D01*
X103199047Y-57196190D01*
X103199047Y-57481904D01*
X103246666Y-57577142D01*
X103294285Y-57624761D01*
X103389523Y-57672380D01*
X103580000Y-57672380D01*
X103675238Y-57624761D01*
X102818095Y-57624761D02*
X102722857Y-57672380D01*
X102532380Y-57672380D01*
X102437142Y-57624761D01*
X102389523Y-57529523D01*
X102389523Y-57481904D01*
X102437142Y-57386666D01*
X102532380Y-57339047D01*
X102675238Y-57339047D01*
X102770476Y-57291428D01*
X102818095Y-57196190D01*
X102818095Y-57148571D01*
X102770476Y-57053333D01*
X102675238Y-57005714D01*
X102532380Y-57005714D01*
X102437142Y-57053333D01*
X101960952Y-57577142D02*
X101913333Y-57624761D01*
X101960952Y-57672380D01*
X102008571Y-57624761D01*
X101960952Y-57577142D01*
X101960952Y-57672380D01*
X101960952Y-57053333D02*
X101913333Y-57100952D01*
X101960952Y-57148571D01*
X102008571Y-57100952D01*
X101960952Y-57053333D01*
X101960952Y-57148571D01*
X100770476Y-56624761D02*
X101627619Y-57910476D01*
X99722857Y-56624761D02*
X100580000Y-57910476D01*
X98960952Y-57005714D02*
X98960952Y-57815238D01*
X99008571Y-57910476D01*
X99056190Y-57958095D01*
X99151428Y-58005714D01*
X99294285Y-58005714D01*
X99389523Y-57958095D01*
X98960952Y-57624761D02*
X99056190Y-57672380D01*
X99246666Y-57672380D01*
X99341904Y-57624761D01*
X99389523Y-57577142D01*
X99437142Y-57481904D01*
X99437142Y-57196190D01*
X99389523Y-57100952D01*
X99341904Y-57053333D01*
X99246666Y-57005714D01*
X99056190Y-57005714D01*
X98960952Y-57053333D01*
X98484761Y-57672380D02*
X98484761Y-57005714D01*
X98484761Y-56672380D02*
X98532380Y-56720000D01*
X98484761Y-56767619D01*
X98437142Y-56720000D01*
X98484761Y-56672380D01*
X98484761Y-56767619D01*
X98151428Y-57005714D02*
X97770476Y-57005714D01*
X98008571Y-56672380D02*
X98008571Y-57529523D01*
X97960952Y-57624761D01*
X97865714Y-57672380D01*
X97770476Y-57672380D01*
X97437142Y-57672380D02*
X97437142Y-56672380D01*
X97008571Y-57672380D02*
X97008571Y-57148571D01*
X97056190Y-57053333D01*
X97151428Y-57005714D01*
X97294285Y-57005714D01*
X97389523Y-57053333D01*
X97437142Y-57100952D01*
X96103809Y-57005714D02*
X96103809Y-57672380D01*
X96532380Y-57005714D02*
X96532380Y-57529523D01*
X96484761Y-57624761D01*
X96389523Y-57672380D01*
X96246666Y-57672380D01*
X96151428Y-57624761D01*
X96103809Y-57577142D01*
X95627619Y-57672380D02*
X95627619Y-56672380D01*
X95627619Y-57053333D02*
X95532380Y-57005714D01*
X95341904Y-57005714D01*
X95246666Y-57053333D01*
X95199047Y-57100952D01*
X95151428Y-57196190D01*
X95151428Y-57481904D01*
X95199047Y-57577142D01*
X95246666Y-57624761D01*
X95341904Y-57672380D01*
X95532380Y-57672380D01*
X95627619Y-57624761D01*
X94722857Y-57577142D02*
X94675238Y-57624761D01*
X94722857Y-57672380D01*
X94770476Y-57624761D01*
X94722857Y-57577142D01*
X94722857Y-57672380D01*
X93818095Y-57624761D02*
X93913333Y-57672380D01*
X94103809Y-57672380D01*
X94199047Y-57624761D01*
X94246666Y-57577142D01*
X94294285Y-57481904D01*
X94294285Y-57196190D01*
X94246666Y-57100952D01*
X94199047Y-57053333D01*
X94103809Y-57005714D01*
X93913333Y-57005714D01*
X93818095Y-57053333D01*
X93246666Y-57672380D02*
X93341904Y-57624761D01*
X93389523Y-57577142D01*
X93437142Y-57481904D01*
X93437142Y-57196190D01*
X93389523Y-57100952D01*
X93341904Y-57053333D01*
X93246666Y-57005714D01*
X93103809Y-57005714D01*
X93008571Y-57053333D01*
X92960952Y-57100952D01*
X92913333Y-57196190D01*
X92913333Y-57481904D01*
X92960952Y-57577142D01*
X93008571Y-57624761D01*
X93103809Y-57672380D01*
X93246666Y-57672380D01*
X92484761Y-57672380D02*
X92484761Y-57005714D01*
X92484761Y-57100952D02*
X92437142Y-57053333D01*
X92341904Y-57005714D01*
X92199047Y-57005714D01*
X92103809Y-57053333D01*
X92056190Y-57148571D01*
X92056190Y-57672380D01*
X92056190Y-57148571D02*
X92008571Y-57053333D01*
X91913333Y-57005714D01*
X91770476Y-57005714D01*
X91675238Y-57053333D01*
X91627619Y-57148571D01*
X91627619Y-57672380D01*
X90437142Y-56624761D02*
X91294285Y-57910476D01*
X89675238Y-57624761D02*
X89770476Y-57672380D01*
X89960952Y-57672380D01*
X90056190Y-57624761D01*
X90103809Y-57577142D01*
X90151428Y-57481904D01*
X90151428Y-57196190D01*
X90103809Y-57100952D01*
X90056190Y-57053333D01*
X89960952Y-57005714D01*
X89770476Y-57005714D01*
X89675238Y-57053333D01*
X89103809Y-57672380D02*
X89199047Y-57624761D01*
X89246666Y-57577142D01*
X89294285Y-57481904D01*
X89294285Y-57196190D01*
X89246666Y-57100952D01*
X89199047Y-57053333D01*
X89103809Y-57005714D01*
X88960952Y-57005714D01*
X88865714Y-57053333D01*
X88818095Y-57100952D01*
X88770476Y-57196190D01*
X88770476Y-57481904D01*
X88818095Y-57577142D01*
X88865714Y-57624761D01*
X88960952Y-57672380D01*
X89103809Y-57672380D01*
X88389523Y-57624761D02*
X88294285Y-57672380D01*
X88103809Y-57672380D01*
X88008571Y-57624761D01*
X87960952Y-57529523D01*
X87960952Y-57481904D01*
X88008571Y-57386666D01*
X88103809Y-57339047D01*
X88246666Y-57339047D01*
X88341904Y-57291428D01*
X88389523Y-57196190D01*
X88389523Y-57148571D01*
X88341904Y-57053333D01*
X88246666Y-57005714D01*
X88103809Y-57005714D01*
X88008571Y-57053333D01*
X87675238Y-57005714D02*
X87294285Y-57005714D01*
X87532380Y-56672380D02*
X87532380Y-57529523D01*
X87484761Y-57624761D01*
X87389523Y-57672380D01*
X87294285Y-57672380D01*
X86532380Y-57672380D02*
X86532380Y-57148571D01*
X86580000Y-57053333D01*
X86675238Y-57005714D01*
X86865714Y-57005714D01*
X86960952Y-57053333D01*
X86532380Y-57624761D02*
X86627619Y-57672380D01*
X86865714Y-57672380D01*
X86960952Y-57624761D01*
X87008571Y-57529523D01*
X87008571Y-57434285D01*
X86960952Y-57339047D01*
X86865714Y-57291428D01*
X86627619Y-57291428D01*
X86532380Y-57243809D01*
X86056190Y-57672380D02*
X86056190Y-57005714D01*
X86056190Y-57196190D02*
X86008571Y-57100952D01*
X85960952Y-57053333D01*
X85865714Y-57005714D01*
X85770476Y-57005714D01*
X85008571Y-57624761D02*
X85103809Y-57672380D01*
X85294285Y-57672380D01*
X85389523Y-57624761D01*
X85437142Y-57577142D01*
X85484761Y-57481904D01*
X85484761Y-57196190D01*
X85437142Y-57100952D01*
X85389523Y-57053333D01*
X85294285Y-57005714D01*
X85103809Y-57005714D01*
X85008571Y-57053333D01*
X83865714Y-56624761D02*
X84722857Y-57910476D01*
X82960952Y-57577142D02*
X83008571Y-57624761D01*
X83151428Y-57672380D01*
X83246666Y-57672380D01*
X83389523Y-57624761D01*
X83484761Y-57529523D01*
X83532380Y-57434285D01*
X83580000Y-57243809D01*
X83580000Y-57100952D01*
X83532380Y-56910476D01*
X83484761Y-56815238D01*
X83389523Y-56720000D01*
X83246666Y-56672380D01*
X83151428Y-56672380D01*
X83008571Y-56720000D01*
X82960952Y-56767619D01*
X82389523Y-57672380D02*
X82484761Y-57624761D01*
X82532380Y-57577142D01*
X82580000Y-57481904D01*
X82580000Y-57196190D01*
X82532380Y-57100952D01*
X82484761Y-57053333D01*
X82389523Y-57005714D01*
X82246666Y-57005714D01*
X82151428Y-57053333D01*
X82103809Y-57100952D01*
X82056190Y-57196190D01*
X82056190Y-57481904D01*
X82103809Y-57577142D01*
X82151428Y-57624761D01*
X82246666Y-57672380D01*
X82389523Y-57672380D01*
X81056190Y-57577142D02*
X81103809Y-57624761D01*
X81246666Y-57672380D01*
X81341904Y-57672380D01*
X81484761Y-57624761D01*
X81580000Y-57529523D01*
X81627619Y-57434285D01*
X81675238Y-57243809D01*
X81675238Y-57100952D01*
X81627619Y-56910476D01*
X81580000Y-56815238D01*
X81484761Y-56720000D01*
X81341904Y-56672380D01*
X81246666Y-56672380D01*
X81103809Y-56720000D01*
X81056190Y-56767619D01*
X80484761Y-57672380D02*
X80580000Y-57624761D01*
X80627619Y-57577142D01*
X80675238Y-57481904D01*
X80675238Y-57196190D01*
X80627619Y-57100952D01*
X80580000Y-57053333D01*
X80484761Y-57005714D01*
X80341904Y-57005714D01*
X80246666Y-57053333D01*
X80199047Y-57100952D01*
X80151428Y-57196190D01*
X80151428Y-57481904D01*
X80199047Y-57577142D01*
X80246666Y-57624761D01*
X80341904Y-57672380D01*
X80484761Y-57672380D01*
X79960952Y-57767619D02*
X79199047Y-57767619D01*
X78627619Y-57148571D02*
X78960952Y-57148571D01*
X78960952Y-57672380D02*
X78960952Y-56672380D01*
X78484761Y-56672380D01*
X78103809Y-57672380D02*
X78103809Y-56672380D01*
X77722857Y-56672380D01*
X77627619Y-56720000D01*
X77580000Y-56767619D01*
X77532380Y-56862857D01*
X77532380Y-57005714D01*
X77580000Y-57100952D01*
X77627619Y-57148571D01*
X77722857Y-57196190D01*
X78103809Y-57196190D01*
X76580000Y-56720000D02*
X76675238Y-56672380D01*
X76818095Y-56672380D01*
X76960952Y-56720000D01*
X77056190Y-56815238D01*
X77103809Y-56910476D01*
X77151428Y-57100952D01*
X77151428Y-57243809D01*
X77103809Y-57434285D01*
X77056190Y-57529523D01*
X76960952Y-57624761D01*
X76818095Y-57672380D01*
X76722857Y-57672380D01*
X76580000Y-57624761D01*
X76532380Y-57577142D01*
X76532380Y-57243809D01*
X76722857Y-57243809D01*
X76151428Y-57386666D02*
X75675238Y-57386666D01*
X76246666Y-57672380D02*
X75913333Y-56672380D01*
X75580000Y-57672380D01*
X75484761Y-57767619D02*
X74722857Y-57767619D01*
X74484761Y-57672380D02*
X74484761Y-56672380D01*
X74484761Y-57148571D02*
X73913333Y-57148571D01*
X73913333Y-57672380D02*
X73913333Y-56672380D01*
X73008571Y-57672380D02*
X73008571Y-57148571D01*
X73056190Y-57053333D01*
X73151428Y-57005714D01*
X73341904Y-57005714D01*
X73437142Y-57053333D01*
X73008571Y-57624761D02*
X73103809Y-57672380D01*
X73341904Y-57672380D01*
X73437142Y-57624761D01*
X73484761Y-57529523D01*
X73484761Y-57434285D01*
X73437142Y-57339047D01*
X73341904Y-57291428D01*
X73103809Y-57291428D01*
X73008571Y-57243809D01*
X72675238Y-57005714D02*
X72294285Y-57005714D01*
X72532380Y-56672380D02*
X72532380Y-57529523D01*
X72484761Y-57624761D01*
X72389523Y-57672380D01*
X72294285Y-57672380D01*
%TO.C,G\u002A\u002A\u002A*%
G36*
X89140719Y-45534833D02*
G01*
X88997142Y-45647399D01*
X88760075Y-45751814D01*
X88538837Y-45811220D01*
X88226377Y-45839144D01*
X87920636Y-45809811D01*
X87642299Y-45727721D01*
X87412052Y-45597378D01*
X87250580Y-45423283D01*
X87182962Y-45254589D01*
X87154236Y-45021113D01*
X87161630Y-44943981D01*
X87258103Y-44943981D01*
X87269653Y-45166970D01*
X87334074Y-45353990D01*
X87356174Y-45386206D01*
X87469044Y-45500964D01*
X87609653Y-45600563D01*
X87645416Y-45619023D01*
X87869644Y-45691529D01*
X88138209Y-45727626D01*
X88411329Y-45724327D01*
X88649225Y-45678643D01*
X88706772Y-45658415D01*
X88865004Y-45591507D01*
X89010363Y-45516749D01*
X89116733Y-45448408D01*
X89157993Y-45400748D01*
X89157782Y-45398758D01*
X89121280Y-45344625D01*
X89041067Y-45261101D01*
X88924140Y-45151255D01*
X88711842Y-45259561D01*
X88522776Y-45328830D01*
X88269859Y-45367699D01*
X88020553Y-45359363D01*
X87814724Y-45301937D01*
X87730057Y-45250583D01*
X87675369Y-45167731D01*
X87653294Y-45026483D01*
X87652373Y-45013422D01*
X87652701Y-44883411D01*
X87688101Y-44808974D01*
X87775410Y-44752316D01*
X87858870Y-44718920D01*
X88024991Y-44670825D01*
X88210317Y-44631303D01*
X88268063Y-44620939D01*
X88566878Y-44548239D01*
X88781327Y-44452685D01*
X88922205Y-44325094D01*
X89000308Y-44156282D01*
X89026432Y-43937065D01*
X89026498Y-43907877D01*
X88992984Y-43687457D01*
X88889090Y-43503498D01*
X88701587Y-43331330D01*
X88590695Y-43274604D01*
X88383404Y-43225273D01*
X88137091Y-43207850D01*
X87882807Y-43223992D01*
X87651604Y-43275353D01*
X87615353Y-43287614D01*
X87440331Y-43359238D01*
X87351885Y-43429173D01*
X87341412Y-43508869D01*
X87400309Y-43609774D01*
X87499278Y-43735594D01*
X87725356Y-43635589D01*
X87952464Y-43565773D01*
X88191554Y-43553283D01*
X88401167Y-43603472D01*
X88556754Y-43714024D01*
X88566408Y-43725450D01*
X88653193Y-43871827D01*
X88651268Y-43998170D01*
X88558506Y-44107084D01*
X88372780Y-44201173D01*
X88091964Y-44283040D01*
X87929575Y-44322835D01*
X87688118Y-44395409D01*
X87518361Y-44471592D01*
X87403589Y-44559806D01*
X87327089Y-44668474D01*
X87299899Y-44731506D01*
X87258103Y-44943981D01*
X87161630Y-44943981D01*
X87176928Y-44784405D01*
X87251016Y-44586964D01*
X87297107Y-44519766D01*
X87396645Y-44421159D01*
X87535594Y-44339749D01*
X87733091Y-44265461D01*
X88008272Y-44188218D01*
X88116846Y-44159125D01*
X88325654Y-44089654D01*
X88452123Y-44019278D01*
X88506903Y-43940601D01*
X88500645Y-43846224D01*
X88499261Y-43842066D01*
X88417423Y-43744291D01*
X88268366Y-43687858D01*
X88074631Y-43677302D01*
X87858757Y-43717154D01*
X87671955Y-43767071D01*
X87514227Y-43785162D01*
X87406671Y-43757343D01*
X87329032Y-43682281D01*
X87315680Y-43662260D01*
X87261226Y-43507523D01*
X87300898Y-43369350D01*
X87432178Y-43251811D01*
X87652549Y-43158981D01*
X87730918Y-43139356D01*
X87962394Y-43109003D01*
X88215330Y-43104506D01*
X88451041Y-43125385D01*
X88630843Y-43171157D01*
X88705361Y-43208020D01*
X88904646Y-43367619D01*
X89056361Y-43579648D01*
X89135728Y-43812628D01*
X89147519Y-43946871D01*
X89125612Y-44093501D01*
X89053549Y-44263959D01*
X88992473Y-44370286D01*
X88880978Y-44497837D01*
X88729543Y-44594977D01*
X88518934Y-44672890D01*
X88229916Y-44742754D01*
X88055391Y-44784929D01*
X87863358Y-44858200D01*
X87764866Y-44943232D01*
X87757576Y-45042513D01*
X87839147Y-45158534D01*
X87848990Y-45167736D01*
X87990524Y-45235228D01*
X88191250Y-45255882D01*
X88427037Y-45229746D01*
X88673756Y-45156869D01*
X88781352Y-45116009D01*
X88890357Y-45086291D01*
X88965805Y-45092698D01*
X89041135Y-45133064D01*
X89123183Y-45211908D01*
X89188051Y-45334558D01*
X89194070Y-45400748D01*
X89194921Y-45410103D01*
X89140719Y-45534833D01*
G37*
G36*
X74162223Y-47051983D02*
G01*
X74161367Y-47313221D01*
X74157360Y-47492689D01*
X74147937Y-47605672D01*
X74130834Y-47667451D01*
X74103787Y-47693311D01*
X74064532Y-47698534D01*
X74041935Y-47697489D01*
X73993814Y-47673855D01*
X73971983Y-47600794D01*
X73966839Y-47454304D01*
X73963951Y-47368079D01*
X73941341Y-47246633D01*
X73900078Y-47207813D01*
X73844724Y-47258919D01*
X73835627Y-47270812D01*
X73743977Y-47309951D01*
X73609271Y-47304667D01*
X73465907Y-47260280D01*
X73348287Y-47182115D01*
X73304197Y-47135189D01*
X73253660Y-47053318D01*
X73237180Y-46948533D01*
X73241666Y-46856845D01*
X73485771Y-46856845D01*
X73498398Y-47002281D01*
X73530374Y-47091753D01*
X73530583Y-47092004D01*
X73636603Y-47152126D01*
X73771436Y-47149310D01*
X73890081Y-47084468D01*
X73896561Y-47077476D01*
X73947434Y-46966067D01*
X73964801Y-46817024D01*
X73948099Y-46673268D01*
X73896761Y-46577721D01*
X73895006Y-46576309D01*
X73797826Y-46540872D01*
X73664742Y-46535105D01*
X73593132Y-46544061D01*
X73529657Y-46572871D01*
X73500958Y-46644547D01*
X73487758Y-46786464D01*
X73485771Y-46856845D01*
X73241666Y-46856845D01*
X73245229Y-46784025D01*
X73253296Y-46706668D01*
X73292347Y-46537963D01*
X73358012Y-46445638D01*
X73454048Y-46403298D01*
X73607812Y-46382038D01*
X73759916Y-46394376D01*
X73865483Y-46440746D01*
X73919975Y-46477309D01*
X73952592Y-46440746D01*
X73980024Y-46407468D01*
X74068602Y-46379688D01*
X74104476Y-46385008D01*
X74131032Y-46411845D01*
X74147922Y-46475442D01*
X74157309Y-46591031D01*
X74161356Y-46773843D01*
X74161497Y-46817024D01*
X74162224Y-47039111D01*
X74162223Y-47051983D01*
G37*
G36*
X102492993Y-47063534D02*
G01*
X102102224Y-47063534D01*
X102102224Y-45158534D01*
X102492993Y-45158534D01*
X102492993Y-47063534D01*
G37*
G36*
X105269448Y-46713000D02*
G01*
X105148823Y-46915558D01*
X105147112Y-46917590D01*
X105083604Y-46987432D01*
X105020588Y-47030459D01*
X104933517Y-47053160D01*
X104797848Y-47062022D01*
X104589036Y-47063534D01*
X104153762Y-47063534D01*
X104153762Y-46465270D01*
X104517635Y-46465270D01*
X104556707Y-46623486D01*
X104642867Y-46729454D01*
X104744246Y-46759199D01*
X104838583Y-46712882D01*
X104908170Y-46599622D01*
X104935301Y-46428534D01*
X104927489Y-46336627D01*
X104877024Y-46195756D01*
X104794214Y-46108743D01*
X104696082Y-46089597D01*
X104599649Y-46152324D01*
X104534741Y-46289206D01*
X104517635Y-46465270D01*
X104153762Y-46465270D01*
X104153762Y-46303993D01*
X104155197Y-46064417D01*
X104166295Y-45755481D01*
X104193956Y-45525441D01*
X104244732Y-45362866D01*
X104325172Y-45256321D01*
X104441825Y-45194373D01*
X104601243Y-45165588D01*
X104809974Y-45158534D01*
X105130685Y-45158534D01*
X105130685Y-45544198D01*
X104874243Y-45558963D01*
X104813035Y-45562985D01*
X104689098Y-45580047D01*
X104631757Y-45612799D01*
X104617801Y-45671419D01*
X104629911Y-45727793D01*
X104690129Y-45765754D01*
X104823333Y-45784031D01*
X104944569Y-45808587D01*
X105114662Y-45910300D01*
X105237781Y-46071014D01*
X105308342Y-46271313D01*
X105317197Y-46428534D01*
X105320759Y-46491780D01*
X105269448Y-46713000D01*
G37*
G36*
X103749485Y-46835323D02*
G01*
X103747627Y-46837970D01*
X103649728Y-46946334D01*
X103549360Y-47015399D01*
X103547907Y-47015973D01*
X103446203Y-47037272D01*
X103282439Y-47053233D01*
X103091358Y-47060438D01*
X102737224Y-47063534D01*
X102737224Y-46428534D01*
X103114671Y-46428534D01*
X103115445Y-46460112D01*
X103136122Y-46601127D01*
X103176159Y-46696369D01*
X103230063Y-46746379D01*
X103333535Y-46773042D01*
X103426291Y-46721022D01*
X103493107Y-46602219D01*
X103518762Y-46428534D01*
X103494549Y-46252153D01*
X103427389Y-46131087D01*
X103327640Y-46086611D01*
X103218594Y-46122177D01*
X103141513Y-46238788D01*
X103114671Y-46428534D01*
X102737224Y-46428534D01*
X102737224Y-44572381D01*
X103079147Y-44572381D01*
X103079147Y-45146105D01*
X103333774Y-45170572D01*
X103501275Y-45197069D01*
X103616617Y-45250337D01*
X103717328Y-45349471D01*
X103746749Y-45386829D01*
X103882799Y-45644241D01*
X103951651Y-45943337D01*
X103952750Y-46258576D01*
X103915404Y-46428534D01*
X103885546Y-46564417D01*
X103749485Y-46835323D01*
G37*
G36*
X73750705Y-43743950D02*
G01*
X73783019Y-43762136D01*
X73803413Y-43813063D01*
X73814610Y-43912969D01*
X73819332Y-44078090D01*
X73820301Y-44324661D01*
X73819659Y-44470098D01*
X73813936Y-44689785D01*
X73800653Y-44837413D01*
X73777844Y-44929881D01*
X73743543Y-44984084D01*
X73667047Y-45034043D01*
X73559101Y-45059096D01*
X73467926Y-45044962D01*
X73429532Y-44990865D01*
X73448017Y-44944160D01*
X73527224Y-44889881D01*
X73544900Y-44883500D01*
X73581454Y-44857062D01*
X73604827Y-44803067D01*
X73617925Y-44703985D01*
X73623653Y-44542285D01*
X73624916Y-44300435D01*
X73625122Y-44167912D01*
X73627839Y-43970383D01*
X73636046Y-43845601D01*
X73652644Y-43776993D01*
X73680532Y-43747983D01*
X73722608Y-43741996D01*
X73750705Y-43743950D01*
G37*
G36*
X78448983Y-45999401D02*
G01*
X78646888Y-46057688D01*
X78790321Y-46159584D01*
X78833260Y-46216160D01*
X78875105Y-46310397D01*
X78895152Y-46441691D01*
X78900301Y-46640197D01*
X78892080Y-46837321D01*
X78850528Y-47040042D01*
X78768166Y-47175694D01*
X78638632Y-47259330D01*
X78539616Y-47289280D01*
X78327451Y-47304100D01*
X78117591Y-47266479D01*
X77940193Y-47183695D01*
X77825415Y-47063029D01*
X77810240Y-47032807D01*
X77806090Y-46978084D01*
X77881178Y-46965842D01*
X77954644Y-46978164D01*
X78069275Y-47038531D01*
X78166386Y-47096866D01*
X78301903Y-47141682D01*
X78358664Y-47150211D01*
X78469728Y-47132651D01*
X78579563Y-47046790D01*
X78595716Y-47030225D01*
X78664333Y-46936666D01*
X78696758Y-46822007D01*
X78704916Y-46648342D01*
X78704727Y-46612961D01*
X78693279Y-46452025D01*
X78655532Y-46343637D01*
X78579563Y-46249894D01*
X78530932Y-46204846D01*
X78426284Y-46149258D01*
X78298698Y-46154570D01*
X78168276Y-46202702D01*
X78062087Y-46282143D01*
X77996190Y-46335970D01*
X77897942Y-46374683D01*
X77813018Y-46377662D01*
X77776839Y-46337975D01*
X77777200Y-46332200D01*
X77821148Y-46249794D01*
X77917025Y-46150112D01*
X78034183Y-46060745D01*
X78141973Y-46009282D01*
X78233300Y-45993231D01*
X78448983Y-45999401D01*
G37*
G36*
X71452057Y-46088123D02*
G01*
X71509179Y-46125888D01*
X71524532Y-46233150D01*
X71539632Y-46335999D01*
X71597801Y-46379688D01*
X71631970Y-46388199D01*
X71671070Y-46452958D01*
X71662560Y-46487127D01*
X71597801Y-46526227D01*
X71577234Y-46530050D01*
X71545296Y-46572236D01*
X71529058Y-46675654D01*
X71524532Y-46858381D01*
X71518654Y-47017255D01*
X71497885Y-47168627D01*
X71465916Y-47249150D01*
X71465313Y-47249749D01*
X71378599Y-47294472D01*
X71268507Y-47307088D01*
X71173931Y-47288645D01*
X71133762Y-47240193D01*
X71152072Y-47196139D01*
X71231455Y-47147074D01*
X71268434Y-47133020D01*
X71307024Y-47087271D01*
X71324831Y-46992263D01*
X71329147Y-46823877D01*
X71327201Y-46687610D01*
X71315174Y-46583155D01*
X71285687Y-46536760D01*
X71231455Y-46526227D01*
X71174485Y-46512628D01*
X71133762Y-46452958D01*
X71151895Y-46410230D01*
X71231455Y-46379688D01*
X71256673Y-46378177D01*
X71313795Y-46340411D01*
X71329147Y-46233150D01*
X71330155Y-46195323D01*
X71355332Y-46109640D01*
X71426839Y-46086611D01*
X71452057Y-46088123D01*
G37*
G36*
X71811593Y-44138451D02*
G01*
X71841050Y-44169623D01*
X71857588Y-44244388D01*
X71864844Y-44380773D01*
X71866455Y-44596804D01*
X71865152Y-44803755D01*
X71858547Y-44943413D01*
X71842824Y-45020733D01*
X71814168Y-45053835D01*
X71768762Y-45060842D01*
X71720923Y-45053586D01*
X71688605Y-45014440D01*
X71674298Y-44921427D01*
X71671070Y-44752678D01*
X71670059Y-44675138D01*
X71649518Y-44470417D01*
X71596721Y-44346018D01*
X71504059Y-44290541D01*
X71363919Y-44292585D01*
X71266410Y-44297139D01*
X71159580Y-44272521D01*
X71102008Y-44224254D01*
X71117904Y-44164906D01*
X71126114Y-44158422D01*
X71217587Y-44135311D01*
X71351424Y-44135390D01*
X71483505Y-44155835D01*
X71569714Y-44193823D01*
X71624206Y-44230386D01*
X71656823Y-44193823D01*
X71684255Y-44160545D01*
X71772833Y-44132765D01*
X71811593Y-44138451D01*
G37*
G36*
X92054387Y-46477492D02*
G01*
X92474432Y-46478933D01*
X92807875Y-46482283D01*
X93062726Y-46487849D01*
X93246998Y-46495939D01*
X93368702Y-46506862D01*
X93435848Y-46520926D01*
X93456449Y-46538438D01*
X93452355Y-46549942D01*
X93401521Y-46573805D01*
X93284341Y-46590719D01*
X93090389Y-46601808D01*
X92809237Y-46608196D01*
X92594143Y-46610075D01*
X92253079Y-46609657D01*
X91901470Y-46605776D01*
X91552847Y-46598899D01*
X91220739Y-46589493D01*
X90918675Y-46578026D01*
X90660186Y-46564965D01*
X90458799Y-46550777D01*
X90328046Y-46535929D01*
X90281455Y-46520890D01*
X90294277Y-46515156D01*
X90387744Y-46504820D01*
X90562881Y-46495713D01*
X90809129Y-46488127D01*
X91115929Y-46482350D01*
X91472724Y-46478671D01*
X91868955Y-46477381D01*
X92054387Y-46477492D01*
G37*
G36*
X69515824Y-46385374D02*
G01*
X69545281Y-46416546D01*
X69561819Y-46491311D01*
X69569075Y-46627696D01*
X69570685Y-46843727D01*
X69569382Y-47050678D01*
X69562778Y-47190336D01*
X69547055Y-47267656D01*
X69518398Y-47300758D01*
X69472993Y-47307765D01*
X69425154Y-47300509D01*
X69392836Y-47261363D01*
X69378529Y-47168350D01*
X69375301Y-46999601D01*
X69374290Y-46922061D01*
X69353749Y-46717340D01*
X69300952Y-46592941D01*
X69208289Y-46537464D01*
X69068150Y-46539508D01*
X68970641Y-46544062D01*
X68863811Y-46519444D01*
X68806238Y-46471178D01*
X68822135Y-46411829D01*
X68830344Y-46405345D01*
X68921818Y-46382234D01*
X69055654Y-46382313D01*
X69187736Y-46402758D01*
X69273945Y-46440746D01*
X69328437Y-46477309D01*
X69361054Y-46440746D01*
X69388486Y-46407468D01*
X69477064Y-46379688D01*
X69515824Y-46385374D01*
G37*
G36*
X84689764Y-45187935D02*
G01*
X84558669Y-45324567D01*
X84458953Y-45374313D01*
X84322224Y-45402765D01*
X84256068Y-45397880D01*
X84084969Y-45330409D01*
X83967764Y-45200672D01*
X83926654Y-45057725D01*
X84035576Y-45057725D01*
X84105905Y-45179468D01*
X84191590Y-45230164D01*
X84322224Y-45256227D01*
X84448289Y-45235991D01*
X84565075Y-45152544D01*
X84607734Y-45021718D01*
X84564736Y-44862246D01*
X84554379Y-44845175D01*
X84471677Y-44785460D01*
X84322224Y-44767765D01*
X84287220Y-44768366D01*
X84152536Y-44793343D01*
X84079712Y-44862246D01*
X84055274Y-44914039D01*
X84035576Y-45057725D01*
X83926654Y-45057725D01*
X83918816Y-45030470D01*
X83952491Y-44841607D01*
X83977929Y-44786931D01*
X84061033Y-44689787D01*
X84197215Y-44642970D01*
X84304752Y-44632564D01*
X84488551Y-44666381D01*
X84628532Y-44756892D01*
X84715115Y-44886032D01*
X84736509Y-45021718D01*
X84738719Y-45035735D01*
X84689764Y-45187935D01*
G37*
G36*
X73093489Y-44916219D02*
G01*
X72978415Y-45010211D01*
X72953967Y-45018593D01*
X72818130Y-45045394D01*
X72657984Y-45057746D01*
X72516159Y-45045209D01*
X72346282Y-44966183D01*
X72243132Y-44816144D01*
X72209654Y-44604854D01*
X72452608Y-44604854D01*
X72454715Y-44675852D01*
X72481503Y-44797724D01*
X72547090Y-44863739D01*
X72687505Y-44911900D01*
X72821382Y-44888303D01*
X72909400Y-44783415D01*
X72941070Y-44604146D01*
X72940347Y-44562369D01*
X72911364Y-44396877D01*
X72833290Y-44306638D01*
X72696839Y-44279304D01*
X72664619Y-44280318D01*
X72540631Y-44319092D01*
X72473063Y-44423136D01*
X72452608Y-44604854D01*
X72209654Y-44604854D01*
X72208378Y-44596804D01*
X72228825Y-44417445D01*
X72313857Y-44256843D01*
X72468574Y-44163173D01*
X72696839Y-44132765D01*
X72839813Y-44139722D01*
X72964311Y-44175190D01*
X73065406Y-44252660D01*
X73071457Y-44258880D01*
X73156249Y-44405023D01*
X73185874Y-44583426D01*
X73183339Y-44604146D01*
X73163798Y-44763891D01*
X73093489Y-44916219D01*
G37*
G36*
X76104367Y-43752478D02*
G01*
X76302273Y-43810764D01*
X76445705Y-43912661D01*
X76488644Y-43969237D01*
X76530489Y-44063474D01*
X76550536Y-44194768D01*
X76555685Y-44393274D01*
X76547465Y-44590398D01*
X76505913Y-44793119D01*
X76423551Y-44928771D01*
X76294017Y-45012407D01*
X76195001Y-45042357D01*
X75982835Y-45057177D01*
X75772976Y-45019556D01*
X75595578Y-44936772D01*
X75480799Y-44816106D01*
X75465625Y-44785884D01*
X75461474Y-44731161D01*
X75536563Y-44718919D01*
X75610029Y-44731241D01*
X75724660Y-44791608D01*
X75821771Y-44849943D01*
X75957287Y-44894759D01*
X76014049Y-44903288D01*
X76125113Y-44885728D01*
X76234948Y-44799867D01*
X76251101Y-44783302D01*
X76319718Y-44689743D01*
X76352142Y-44575083D01*
X76360301Y-44401419D01*
X76360112Y-44366038D01*
X76348663Y-44205102D01*
X76310917Y-44096714D01*
X76234948Y-44002971D01*
X76186317Y-43957923D01*
X76081668Y-43902335D01*
X75954082Y-43907646D01*
X75823661Y-43955779D01*
X75717471Y-44035220D01*
X75651575Y-44089047D01*
X75553327Y-44127760D01*
X75468403Y-44130739D01*
X75432224Y-44091052D01*
X75432585Y-44085277D01*
X75476532Y-44002871D01*
X75572409Y-43903189D01*
X75689568Y-43813822D01*
X75797357Y-43762359D01*
X75888685Y-43746308D01*
X76104367Y-43752478D01*
G37*
G36*
X91359521Y-45777155D02*
G01*
X91283425Y-45789387D01*
X91184283Y-45784883D01*
X91096470Y-45771122D01*
X90986024Y-45715574D01*
X90916118Y-45607020D01*
X90879353Y-45431144D01*
X90868329Y-45173629D01*
X90867152Y-45076936D01*
X90853500Y-44904655D01*
X90817781Y-44808861D01*
X90751564Y-44774913D01*
X90646422Y-44788170D01*
X90590656Y-44816215D01*
X90509197Y-44901018D01*
X90408257Y-45051880D01*
X90278827Y-45280876D01*
X90196435Y-45431086D01*
X90099218Y-45593883D01*
X90021996Y-45696086D01*
X89951497Y-45754238D01*
X89874449Y-45784881D01*
X89733901Y-45804326D01*
X89597608Y-45794219D01*
X89558427Y-45781051D01*
X89477931Y-45708358D01*
X89473852Y-45669196D01*
X89499916Y-45669196D01*
X89510782Y-45678328D01*
X89590531Y-45688864D01*
X89722309Y-45686307D01*
X89944702Y-45671419D01*
X90204619Y-45182958D01*
X90464535Y-44694496D01*
X91014147Y-44665198D01*
X91014147Y-45695842D01*
X91404916Y-45695842D01*
X91404916Y-43204688D01*
X90792770Y-43204688D01*
X90624730Y-43205860D01*
X90347283Y-43217174D01*
X90139387Y-43244342D01*
X89982463Y-43292039D01*
X89857932Y-43364939D01*
X89747215Y-43467716D01*
X89689560Y-43543345D01*
X89634855Y-43681705D01*
X89607584Y-43881372D01*
X89605271Y-43920018D01*
X89625320Y-44194129D01*
X89715950Y-44404572D01*
X89879490Y-44557137D01*
X89885304Y-44560773D01*
X89980752Y-44620698D01*
X90029700Y-44651836D01*
X90016603Y-44690435D01*
X89963893Y-44797935D01*
X89879815Y-44956942D01*
X89773258Y-45150182D01*
X89674178Y-45328900D01*
X89583783Y-45496760D01*
X89522487Y-45616284D01*
X89499916Y-45669196D01*
X89473852Y-45669196D01*
X89465001Y-45584214D01*
X89520067Y-45402670D01*
X89643559Y-45157773D01*
X89672408Y-45106360D01*
X89758784Y-44945561D01*
X89819137Y-44822518D01*
X89841839Y-44760528D01*
X89831007Y-44729905D01*
X89773514Y-44636656D01*
X89683089Y-44515647D01*
X89642199Y-44463714D01*
X89577465Y-44365850D01*
X89542097Y-44266594D01*
X89527315Y-44133860D01*
X89524339Y-43935565D01*
X89524763Y-43835401D01*
X89531489Y-43673131D01*
X89552740Y-43565647D01*
X89596531Y-43483505D01*
X89670878Y-43397264D01*
X89749284Y-43319629D01*
X89870526Y-43228788D01*
X90010308Y-43167464D01*
X90188336Y-43130297D01*
X90424313Y-43111928D01*
X90737943Y-43106996D01*
X90901655Y-43107762D01*
X91121554Y-43113527D01*
X91268332Y-43126390D01*
X91357587Y-43148065D01*
X91404916Y-43180265D01*
X91444809Y-43219364D01*
X91548019Y-43248265D01*
X91649147Y-43180265D01*
X91675154Y-43159278D01*
X91738226Y-43137619D01*
X91845628Y-43122625D01*
X92010693Y-43113233D01*
X92246755Y-43108378D01*
X92567147Y-43106996D01*
X92654794Y-43107083D01*
X92978575Y-43110346D01*
X93219521Y-43120842D01*
X93389667Y-43141995D01*
X93501052Y-43177230D01*
X93565710Y-43229970D01*
X93595678Y-43303640D01*
X93602993Y-43401662D01*
X93593616Y-43482806D01*
X93527906Y-43588768D01*
X93505301Y-43599834D01*
X93505301Y-43204688D01*
X91649147Y-43204688D01*
X91649147Y-43609558D01*
X92015493Y-43581852D01*
X92381839Y-43554145D01*
X92381839Y-45695842D01*
X92772608Y-45695842D01*
X92772608Y-43554145D01*
X93138955Y-43581852D01*
X93488095Y-43608257D01*
X93389812Y-43656370D01*
X93168087Y-43693150D01*
X92894724Y-43717573D01*
X92881451Y-44690769D01*
X92877622Y-44907735D01*
X92867406Y-45237063D01*
X92853190Y-45487942D01*
X92835387Y-45653972D01*
X92814413Y-45728750D01*
X92806758Y-45736704D01*
X92708040Y-45778883D01*
X92567311Y-45791617D01*
X92429625Y-45774906D01*
X92340035Y-45728750D01*
X92327889Y-45698363D01*
X92308645Y-45571547D01*
X92292806Y-45357075D01*
X92280785Y-45061349D01*
X92272996Y-44690769D01*
X92259724Y-43717573D01*
X91986361Y-43693150D01*
X91874413Y-43678876D01*
X91727550Y-43646114D01*
X91639943Y-43608093D01*
X91592894Y-43579448D01*
X91534749Y-43579599D01*
X91532150Y-43585487D01*
X91522752Y-43664874D01*
X91514635Y-43823034D01*
X91508263Y-44044954D01*
X91504099Y-44315623D01*
X91502608Y-44620032D01*
X91502566Y-44728578D01*
X91500831Y-45075124D01*
X91494312Y-45338106D01*
X91479965Y-45528662D01*
X91454747Y-45657930D01*
X91435995Y-45695842D01*
X91415613Y-45737048D01*
X91359521Y-45777155D01*
G37*
G36*
X106307868Y-47063534D02*
G01*
X106292346Y-46782669D01*
X106285659Y-46688528D01*
X106269117Y-46591691D01*
X106244110Y-46586257D01*
X106207707Y-46673811D01*
X106156984Y-46855938D01*
X106103843Y-47063534D01*
X105534567Y-47063534D01*
X105779519Y-46180902D01*
X105673743Y-46068309D01*
X105568461Y-45908278D01*
X105540612Y-45818730D01*
X105873956Y-45818730D01*
X105915516Y-45979687D01*
X105927030Y-45999303D01*
X106024955Y-46104186D01*
X106126987Y-46114711D01*
X106225073Y-46029583D01*
X106279343Y-45927307D01*
X106292584Y-45756927D01*
X106208361Y-45591350D01*
X106174000Y-45552158D01*
X106101723Y-45505957D01*
X106025188Y-45529940D01*
X106015576Y-45536064D01*
X105910338Y-45658437D01*
X105873956Y-45818730D01*
X105540612Y-45818730D01*
X105498665Y-45683849D01*
X105476263Y-45432980D01*
X105498952Y-45179131D01*
X105564428Y-44945765D01*
X105670390Y-44756343D01*
X105814532Y-44634324D01*
X105822791Y-44630587D01*
X105939647Y-44601733D01*
X106115352Y-44581157D01*
X106315205Y-44573101D01*
X106693762Y-44572381D01*
X106693762Y-47063534D01*
X106307868Y-47063534D01*
G37*
G36*
X95507993Y-47063534D02*
G01*
X95166070Y-47063534D01*
X95166070Y-46697188D01*
X95165881Y-46662906D01*
X95158804Y-46494337D01*
X95143551Y-46375694D01*
X95122932Y-46330842D01*
X95117691Y-46333040D01*
X95083659Y-46394635D01*
X95039546Y-46523725D01*
X94993520Y-46697188D01*
X94907247Y-47063534D01*
X94448037Y-47063534D01*
X94563510Y-46664859D01*
X94597730Y-46545070D01*
X94663653Y-46292848D01*
X94700383Y-46098447D01*
X94710134Y-45937152D01*
X94695121Y-45784247D01*
X94657556Y-45615018D01*
X94641018Y-45550903D01*
X94596599Y-45363066D01*
X94584554Y-45247380D01*
X94610161Y-45186375D01*
X94678694Y-45162583D01*
X94795430Y-45158534D01*
X94885449Y-45159568D01*
X94976030Y-45176286D01*
X95018509Y-45232862D01*
X95043911Y-45353663D01*
X95063262Y-45453901D01*
X95095402Y-45555725D01*
X95123579Y-45566091D01*
X95145967Y-45488970D01*
X95160740Y-45328332D01*
X95166070Y-45088148D01*
X95166070Y-44572381D01*
X95507993Y-44572381D01*
X95507993Y-47063534D01*
G37*
G36*
X99317993Y-47063534D02*
G01*
X98978827Y-47063534D01*
X98965237Y-46391900D01*
X98964872Y-46373926D01*
X98958629Y-46111177D01*
X98950831Y-45930116D01*
X98938970Y-45815619D01*
X98920541Y-45752562D01*
X98893038Y-45725819D01*
X98853955Y-45720265D01*
X98851340Y-45720276D01*
X98812993Y-45726641D01*
X98786082Y-45755068D01*
X98768100Y-45820683D01*
X98756542Y-45938611D01*
X98748901Y-46123974D01*
X98742672Y-46391900D01*
X98729082Y-47063534D01*
X98341070Y-47063534D01*
X98341070Y-46329273D01*
X98345878Y-45985252D01*
X98364948Y-45689158D01*
X98402653Y-45470303D01*
X98463316Y-45318249D01*
X98551265Y-45222561D01*
X98670824Y-45172802D01*
X98826320Y-45158534D01*
X98976070Y-45158534D01*
X98976070Y-44572381D01*
X99317993Y-44572381D01*
X99317993Y-47063534D01*
G37*
G36*
X99744918Y-44573119D02*
G01*
X99910563Y-44589739D01*
X100035778Y-44636709D01*
X100126010Y-44725201D01*
X100186708Y-44866387D01*
X100223319Y-45071441D01*
X100241290Y-45351534D01*
X100246070Y-45717839D01*
X100246070Y-46477381D01*
X100636839Y-46477381D01*
X100636839Y-47063534D01*
X100401123Y-47063534D01*
X100379086Y-47063335D01*
X100217079Y-47044090D01*
X100091152Y-46986526D01*
X99997153Y-46880854D01*
X99930932Y-46717287D01*
X99888338Y-46486036D01*
X99865220Y-46177310D01*
X99857428Y-45781323D01*
X99855301Y-45158534D01*
X99464532Y-45158534D01*
X99464532Y-44572381D01*
X99687550Y-44572381D01*
X99744918Y-44573119D01*
G37*
G36*
X83148520Y-44566524D02*
G01*
X83142668Y-44835460D01*
X83131503Y-45067215D01*
X83116171Y-45241626D01*
X83097816Y-45338528D01*
X83055090Y-45429842D01*
X82895702Y-45631922D01*
X82685878Y-45773427D01*
X82626439Y-45794060D01*
X82461653Y-45826734D01*
X82280951Y-45840469D01*
X82187905Y-45837724D01*
X81909938Y-45779206D01*
X81690080Y-45647635D01*
X81535550Y-45446823D01*
X81514511Y-45403824D01*
X81483377Y-45324311D01*
X81462231Y-45232484D01*
X81449666Y-45111275D01*
X81444278Y-44943618D01*
X81444662Y-44712447D01*
X81448721Y-44446039D01*
X81537993Y-44446039D01*
X81539804Y-44708773D01*
X81550351Y-44998930D01*
X81574008Y-45216690D01*
X81614935Y-45376636D01*
X81677291Y-45493353D01*
X81765235Y-45581424D01*
X81882928Y-45655433D01*
X82007577Y-45707429D01*
X82260378Y-45744094D01*
X82516286Y-45707197D01*
X82747604Y-45602558D01*
X82926636Y-45436001D01*
X82933024Y-45427163D01*
X82969752Y-45365611D01*
X82996281Y-45289591D01*
X83014674Y-45182456D01*
X83026994Y-45027563D01*
X83035305Y-44808268D01*
X83041669Y-44507925D01*
X83045234Y-44256253D01*
X83045119Y-44015804D01*
X83038692Y-43841995D01*
X83024640Y-43717613D01*
X83001647Y-43625443D01*
X82968400Y-43548273D01*
X82951801Y-43518051D01*
X82791749Y-43336809D01*
X82569190Y-43223326D01*
X82297097Y-43184628D01*
X82027765Y-43216643D01*
X81814410Y-43317233D01*
X81649720Y-43492777D01*
X81628433Y-43525400D01*
X81592365Y-43592925D01*
X81567393Y-43671791D01*
X81551495Y-43779265D01*
X81542644Y-43932618D01*
X81538819Y-44149120D01*
X81537993Y-44446039D01*
X81448721Y-44446039D01*
X81449412Y-44400694D01*
X81452488Y-44240315D01*
X81459463Y-43970480D01*
X81468775Y-43774807D01*
X81482329Y-43637394D01*
X81502034Y-43542339D01*
X81529796Y-43473738D01*
X81567522Y-43415690D01*
X81756865Y-43229275D01*
X81996881Y-43118874D01*
X82295108Y-43083071D01*
X82395711Y-43086449D01*
X82666650Y-43142221D01*
X82877953Y-43270409D01*
X83039182Y-43476064D01*
X83047685Y-43491253D01*
X83087099Y-43571647D01*
X83114719Y-43658452D01*
X83132638Y-43769923D01*
X83142947Y-43924314D01*
X83147741Y-44139880D01*
X83148282Y-44256253D01*
X83149113Y-44434874D01*
X83148520Y-44566524D01*
G37*
G36*
X86813378Y-45011996D02*
G01*
X86763132Y-45053033D01*
X86692502Y-45082495D01*
X86585008Y-45099681D01*
X86420386Y-45107706D01*
X86178378Y-45109688D01*
X85950999Y-45108014D01*
X85781472Y-45100529D01*
X85670533Y-45084109D01*
X85597922Y-45055637D01*
X85543378Y-45011996D01*
X85525677Y-44987573D01*
X85567801Y-44987573D01*
X86167119Y-45001296D01*
X86212906Y-45002320D01*
X86467295Y-45005504D01*
X86640429Y-44998404D01*
X86746539Y-44975617D01*
X86799856Y-44931740D01*
X86814609Y-44861370D01*
X86805029Y-44759106D01*
X86804772Y-44757302D01*
X86794479Y-44710831D01*
X86768379Y-44679459D01*
X86710096Y-44660220D01*
X86603253Y-44650149D01*
X86431473Y-44646280D01*
X86178378Y-44645650D01*
X85567801Y-44645650D01*
X85567801Y-44987573D01*
X85525677Y-44987573D01*
X85478837Y-44922946D01*
X85445685Y-44816611D01*
X85470195Y-44727562D01*
X85543378Y-44621227D01*
X85593624Y-44580190D01*
X85664253Y-44550727D01*
X85771748Y-44533542D01*
X85936369Y-44525517D01*
X86178378Y-44523534D01*
X86405756Y-44525209D01*
X86575284Y-44532694D01*
X86686222Y-44549114D01*
X86758833Y-44577586D01*
X86813378Y-44621227D01*
X86877918Y-44710276D01*
X86911070Y-44816611D01*
X86898751Y-44861370D01*
X86886561Y-44905661D01*
X86813378Y-45011996D01*
G37*
G36*
X90608291Y-44328150D02*
G01*
X90402095Y-44322109D01*
X90218915Y-44300567D01*
X90116589Y-44265378D01*
X90039633Y-44159467D01*
X90002353Y-44001684D01*
X90002698Y-43995247D01*
X90143795Y-43995247D01*
X90159339Y-44157188D01*
X90513474Y-44171540D01*
X90867608Y-44185891D01*
X90867608Y-43693150D01*
X90556089Y-43693150D01*
X90508296Y-43693526D01*
X90314293Y-43709998D01*
X90198611Y-43758643D01*
X90146645Y-43850160D01*
X90143795Y-43995247D01*
X90002698Y-43995247D01*
X90011273Y-43835241D01*
X90069792Y-43701123D01*
X90093467Y-43673907D01*
X90153007Y-43628180D01*
X90239482Y-43600504D01*
X90376476Y-43585206D01*
X90587571Y-43576616D01*
X91014147Y-43564741D01*
X91014147Y-44328150D01*
X90608291Y-44328150D01*
G37*
G36*
X83269445Y-46477864D02*
G01*
X83632927Y-46480490D01*
X83956020Y-46485138D01*
X84227265Y-46491515D01*
X84435200Y-46499327D01*
X84568366Y-46508282D01*
X84615301Y-46518086D01*
X84614820Y-46525212D01*
X84579445Y-46594646D01*
X84573903Y-46598715D01*
X84495192Y-46610451D01*
X84371849Y-46597915D01*
X84370450Y-46597658D01*
X84274433Y-46589223D01*
X84095763Y-46581893D01*
X83849056Y-46575942D01*
X83548924Y-46571646D01*
X83209983Y-46569283D01*
X82846847Y-46569127D01*
X82584630Y-46569213D01*
X82208046Y-46566536D01*
X81900555Y-46560565D01*
X81669298Y-46551525D01*
X81521419Y-46539646D01*
X81464060Y-46525153D01*
X81498005Y-46511563D01*
X81626030Y-46499506D01*
X81845787Y-46489966D01*
X82154222Y-46483037D01*
X82548284Y-46478810D01*
X83024918Y-46477381D01*
X83269445Y-46477864D01*
G37*
G36*
X77391677Y-47161452D02*
G01*
X77276877Y-47257134D01*
X77252428Y-47265517D01*
X77116591Y-47292318D01*
X76956446Y-47304669D01*
X76814621Y-47292132D01*
X76644743Y-47213106D01*
X76541593Y-47063067D01*
X76508115Y-46851777D01*
X76751070Y-46851777D01*
X76753176Y-46922775D01*
X76779965Y-47044647D01*
X76845551Y-47110662D01*
X76985967Y-47158823D01*
X77119843Y-47135226D01*
X77207861Y-47030338D01*
X77239532Y-46851069D01*
X77238808Y-46809292D01*
X77209825Y-46643800D01*
X77131752Y-46553562D01*
X76995301Y-46526227D01*
X76963081Y-46527241D01*
X76839093Y-46566015D01*
X76771525Y-46670059D01*
X76751070Y-46851777D01*
X76508115Y-46851777D01*
X76506839Y-46843727D01*
X76525612Y-46671969D01*
X76609123Y-46507703D01*
X76762164Y-46411220D01*
X76987669Y-46379688D01*
X77110380Y-46386410D01*
X77294985Y-46441939D01*
X77410584Y-46559582D01*
X77466570Y-46746534D01*
X77470979Y-46788002D01*
X77467392Y-46851069D01*
X77459042Y-46997905D01*
X77391677Y-47161452D01*
G37*
G36*
X96301985Y-45160754D02*
G01*
X96467459Y-45225459D01*
X96614792Y-45367236D01*
X96733488Y-45569233D01*
X96813052Y-45814596D01*
X96842988Y-46086473D01*
X96839172Y-46244903D01*
X96797326Y-46522913D01*
X96704268Y-46739937D01*
X96553503Y-46914554D01*
X96388665Y-47029001D01*
X96238449Y-47058915D01*
X96078724Y-47008971D01*
X96029619Y-46978595D01*
X95924808Y-46888369D01*
X95838760Y-46787559D01*
X95802156Y-46709400D01*
X95829847Y-46682179D01*
X95921776Y-46674161D01*
X96046482Y-46691468D01*
X96170856Y-46732066D01*
X96238697Y-46758856D01*
X96315726Y-46754094D01*
X96392962Y-46677809D01*
X96459968Y-46556326D01*
X96477739Y-46371335D01*
X96408877Y-46195172D01*
X96394274Y-46175360D01*
X96295961Y-46096856D01*
X96199200Y-46116021D01*
X96104087Y-46232841D01*
X96082141Y-46268915D01*
X95993124Y-46355962D01*
X95865419Y-46379379D01*
X95761512Y-46363392D01*
X95686587Y-46294667D01*
X95660763Y-46160447D01*
X95678784Y-45948607D01*
X95723326Y-45754123D01*
X95822102Y-45519526D01*
X95953890Y-45330518D01*
X96105843Y-45204416D01*
X96265108Y-45158534D01*
X96301985Y-45160754D01*
G37*
G36*
X76110055Y-46385374D02*
G01*
X76139512Y-46416546D01*
X76156050Y-46491311D01*
X76163306Y-46627696D01*
X76164916Y-46843727D01*
X76163613Y-47050678D01*
X76157009Y-47190336D01*
X76141286Y-47267656D01*
X76112629Y-47300758D01*
X76067224Y-47307765D01*
X76022926Y-47301998D01*
X75988374Y-47265680D01*
X75973020Y-47176253D01*
X75969532Y-47011477D01*
X75962204Y-46826788D01*
X75926920Y-46653118D01*
X75858352Y-46556277D01*
X75752000Y-46526227D01*
X75661757Y-46529062D01*
X75564449Y-46553337D01*
X75510013Y-46618434D01*
X75486277Y-46743241D01*
X75481070Y-46946645D01*
X75480675Y-47067429D01*
X75475269Y-47203662D01*
X75457851Y-47275313D01*
X75421416Y-47303106D01*
X75358955Y-47307765D01*
X75331129Y-47307352D01*
X75277970Y-47295374D01*
X75249828Y-47250486D01*
X75238763Y-47151095D01*
X75236839Y-46975611D01*
X75236639Y-46936157D01*
X75223763Y-46732843D01*
X75184589Y-46607403D01*
X75110433Y-46543857D01*
X74992608Y-46526227D01*
X74971166Y-46526595D01*
X74860669Y-46550287D01*
X74792495Y-46622367D01*
X74757960Y-46758815D01*
X74748378Y-46975611D01*
X74748373Y-46986798D01*
X74745239Y-47158963D01*
X74732063Y-47255738D01*
X74702620Y-47298285D01*
X74650685Y-47307765D01*
X74630137Y-47306937D01*
X74588551Y-47289823D01*
X74565314Y-47235162D01*
X74555203Y-47122918D01*
X74552993Y-46933054D01*
X74553185Y-46887902D01*
X74562385Y-46683176D01*
X74588043Y-46550577D01*
X74633833Y-46469015D01*
X74708512Y-46418175D01*
X74860514Y-46382641D01*
X75027139Y-46392040D01*
X75165156Y-46448077D01*
X75188827Y-46464630D01*
X75268066Y-46491556D01*
X75356322Y-46448077D01*
X75451977Y-46405634D01*
X75607917Y-46382307D01*
X75761365Y-46393800D01*
X75868176Y-46440746D01*
X75922668Y-46477309D01*
X75955285Y-46440746D01*
X75982716Y-46407468D01*
X76071294Y-46379688D01*
X76110055Y-46385374D01*
G37*
G36*
X101751765Y-46779531D02*
G01*
X101584115Y-46961225D01*
X101505538Y-47014521D01*
X101351784Y-47059407D01*
X101197236Y-47015181D01*
X101027738Y-46879772D01*
X100932510Y-46772824D01*
X100842956Y-46615470D01*
X100807780Y-46491321D01*
X101135471Y-46491321D01*
X101167694Y-46635520D01*
X101241788Y-46733075D01*
X101283834Y-46755754D01*
X101389637Y-46755996D01*
X101488877Y-46661897D01*
X101518266Y-46611628D01*
X101556943Y-46463017D01*
X101543741Y-46314145D01*
X101487645Y-46189175D01*
X101397641Y-46112267D01*
X101282716Y-46107582D01*
X101268141Y-46113288D01*
X101187882Y-46196762D01*
X101142929Y-46333921D01*
X101135471Y-46491321D01*
X100807780Y-46491321D01*
X100784220Y-46408170D01*
X100775291Y-46361507D01*
X100752797Y-46078616D01*
X100781263Y-45814802D01*
X100852864Y-45581283D01*
X100959778Y-45389281D01*
X101094183Y-45250016D01*
X101248256Y-45174707D01*
X101414174Y-45174577D01*
X101584115Y-45260844D01*
X101651269Y-45319878D01*
X101796122Y-45520101D01*
X101879877Y-45780040D01*
X101906839Y-46111034D01*
X101903478Y-46237767D01*
X101868925Y-46463017D01*
X101856785Y-46542157D01*
X101751765Y-46779531D01*
G37*
G36*
X98133637Y-46768012D02*
G01*
X98001098Y-46963892D01*
X97983121Y-46980861D01*
X97917366Y-47023509D01*
X97824151Y-47048625D01*
X97680100Y-47060527D01*
X97461839Y-47063534D01*
X97022224Y-47063534D01*
X97022224Y-46428534D01*
X97399671Y-46428534D01*
X97400445Y-46460112D01*
X97421122Y-46601127D01*
X97461159Y-46696369D01*
X97509836Y-46738963D01*
X97630822Y-46766901D01*
X97745147Y-46711842D01*
X97761325Y-46686907D01*
X97791707Y-46576685D01*
X97803762Y-46428534D01*
X97783545Y-46238472D01*
X97718190Y-46123694D01*
X97604589Y-46086611D01*
X97500001Y-46123725D01*
X97425886Y-46241379D01*
X97399671Y-46428534D01*
X97022224Y-46428534D01*
X97022224Y-46329273D01*
X97023750Y-46088565D01*
X97035357Y-45774317D01*
X97063759Y-45539282D01*
X97115264Y-45372211D01*
X97196178Y-45261851D01*
X97312807Y-45196952D01*
X97471458Y-45166264D01*
X97678436Y-45158534D01*
X97999147Y-45158534D01*
X97999147Y-45549304D01*
X97758987Y-45549304D01*
X97699526Y-45550660D01*
X97559588Y-45570423D01*
X97497528Y-45610361D01*
X97489121Y-45703401D01*
X97557270Y-45771163D01*
X97711296Y-45793534D01*
X97723193Y-45793662D01*
X97920458Y-45840800D01*
X98068745Y-45967550D01*
X98162091Y-46166074D01*
X98194532Y-46428534D01*
X98191328Y-46516423D01*
X98133637Y-46768012D01*
G37*
G36*
X85161577Y-45353919D02*
G01*
X85139751Y-45399639D01*
X85026096Y-45551951D01*
X84871399Y-45693315D01*
X84712993Y-45787637D01*
X84705143Y-45790648D01*
X84529948Y-45827568D01*
X84309651Y-45837066D01*
X84090041Y-45819790D01*
X83916911Y-45776387D01*
X83748022Y-45672698D01*
X83595001Y-45521346D01*
X83482842Y-45351880D01*
X83435627Y-45193469D01*
X83436189Y-45044883D01*
X83540868Y-45044883D01*
X83548148Y-45191461D01*
X83586878Y-45328590D01*
X83672732Y-45454505D01*
X83691794Y-45476060D01*
X83825906Y-45594779D01*
X83964240Y-45678061D01*
X83989536Y-45687689D01*
X84156286Y-45727585D01*
X84332867Y-45742776D01*
X84492369Y-45729407D01*
X84743667Y-45648455D01*
X84936526Y-45502593D01*
X85060155Y-45301454D01*
X85103762Y-45054669D01*
X85083258Y-44843645D01*
X84997151Y-44615144D01*
X84848942Y-44453230D01*
X84789885Y-44399482D01*
X84800535Y-44376996D01*
X84828196Y-44371138D01*
X84908317Y-44299226D01*
X84981176Y-44166835D01*
X85034179Y-44001105D01*
X85054734Y-43829176D01*
X85048889Y-43709756D01*
X85007329Y-43568785D01*
X84908418Y-43432005D01*
X84871732Y-43393340D01*
X84663834Y-43252146D01*
X84422028Y-43185415D01*
X84170602Y-43193148D01*
X83933840Y-43275344D01*
X83736030Y-43432005D01*
X83712115Y-43459829D01*
X83634134Y-43573280D01*
X83598212Y-43695105D01*
X83589532Y-43869568D01*
X83590053Y-43927714D01*
X83603507Y-44077160D01*
X83645460Y-44181337D01*
X83729578Y-44280326D01*
X83779745Y-44333422D01*
X83827506Y-44408554D01*
X83803127Y-44445890D01*
X83718623Y-44509034D01*
X83628405Y-44652121D01*
X83564935Y-44840372D01*
X83540868Y-45044883D01*
X83436189Y-45044883D01*
X83436568Y-44944794D01*
X83471782Y-44747197D01*
X83547913Y-44575883D01*
X83573188Y-44531760D01*
X83616298Y-44433594D01*
X83611998Y-44347762D01*
X83562338Y-44224314D01*
X83551064Y-44197637D01*
X83499856Y-43980504D01*
X83500196Y-43747032D01*
X83548811Y-43532112D01*
X83642428Y-43370633D01*
X83655449Y-43356962D01*
X83888485Y-43181311D01*
X84153018Y-43089240D01*
X84429913Y-43081467D01*
X84700035Y-43158713D01*
X84944251Y-43321695D01*
X84992731Y-43367729D01*
X85076215Y-43470402D01*
X85119727Y-43587619D01*
X85141972Y-43760937D01*
X85144635Y-43796956D01*
X85138528Y-44031731D01*
X85082109Y-44224314D01*
X85057897Y-44279090D01*
X85025609Y-44381629D01*
X85039690Y-44466812D01*
X85103041Y-44584612D01*
X85144068Y-44670926D01*
X85198915Y-44897250D01*
X85203473Y-45054669D01*
X85205972Y-45140954D01*
X85161577Y-45353919D01*
G37*
G36*
X87571839Y-46477398D02*
G01*
X87987709Y-46477891D01*
X88318323Y-46479442D01*
X88573381Y-46482562D01*
X88762586Y-46487763D01*
X88895637Y-46495555D01*
X88982237Y-46506449D01*
X89032085Y-46520958D01*
X89054885Y-46539592D01*
X89060336Y-46562861D01*
X89060295Y-46565580D01*
X89053672Y-46588723D01*
X89028793Y-46606910D01*
X88975728Y-46620594D01*
X88884550Y-46630225D01*
X88745331Y-46636256D01*
X88548141Y-46639137D01*
X88283053Y-46639321D01*
X87940139Y-46637259D01*
X87509470Y-46633403D01*
X87164682Y-46629693D01*
X86787601Y-46624141D01*
X86491363Y-46617389D01*
X86266373Y-46608930D01*
X86103040Y-46598259D01*
X85991770Y-46584871D01*
X85922969Y-46568261D01*
X85887045Y-46547922D01*
X85877853Y-46535053D01*
X85886317Y-46518238D01*
X85930322Y-46504976D01*
X86018747Y-46494861D01*
X86160470Y-46487491D01*
X86364370Y-46482462D01*
X86639324Y-46479370D01*
X86994212Y-46477811D01*
X87437911Y-46477381D01*
X87571839Y-46477398D01*
G37*
G36*
X82654098Y-44995283D02*
G01*
X82641517Y-45106909D01*
X82619392Y-45181240D01*
X82585033Y-45235942D01*
X82535751Y-45288679D01*
X82472816Y-45345487D01*
X82369649Y-45392417D01*
X82230623Y-45385266D01*
X82149223Y-45369136D01*
X82062268Y-45334644D01*
X82001667Y-45273301D01*
X81962718Y-45170947D01*
X81940719Y-45013423D01*
X81930968Y-44786567D01*
X81928762Y-44476221D01*
X81929116Y-44428074D01*
X82026455Y-44428074D01*
X82029665Y-44644422D01*
X82039778Y-44862738D01*
X82055150Y-45033213D01*
X82074092Y-45130931D01*
X82076644Y-45137493D01*
X82144180Y-45230470D01*
X82263495Y-45256227D01*
X82317242Y-45254450D01*
X82396091Y-45236409D01*
X82450710Y-45187855D01*
X82484958Y-45095378D01*
X82502696Y-44945566D01*
X82507784Y-44725008D01*
X82504080Y-44420293D01*
X82490493Y-43719798D01*
X82351054Y-43670823D01*
X82288797Y-43652062D01*
X82200668Y-43658488D01*
X82119034Y-43736180D01*
X82081106Y-43793952D01*
X82053236Y-43875086D01*
X82036597Y-43994663D01*
X82028550Y-44172416D01*
X82026455Y-44428074D01*
X81929116Y-44428074D01*
X81930948Y-44179047D01*
X81941474Y-43932737D01*
X81965375Y-43759770D01*
X82007670Y-43647410D01*
X82073378Y-43582920D01*
X82167518Y-43553566D01*
X82295108Y-43546611D01*
X82405051Y-43551378D01*
X82504726Y-43576773D01*
X82574799Y-43635728D01*
X82620389Y-43741054D01*
X82646616Y-43905560D01*
X82658598Y-44142057D01*
X82661455Y-44463354D01*
X82661391Y-44589496D01*
X82660504Y-44725008D01*
X82659826Y-44828701D01*
X82654098Y-44995283D01*
G37*
G36*
X72812117Y-46380263D02*
G01*
X72855262Y-46396085D01*
X72879395Y-46448825D01*
X72889917Y-46558726D01*
X72892224Y-46746034D01*
X72890205Y-46890595D01*
X72877130Y-47041830D01*
X72847082Y-47139568D01*
X72794532Y-47210073D01*
X72690309Y-47272408D01*
X72533416Y-47306126D01*
X72375920Y-47298544D01*
X72260887Y-47246708D01*
X72206395Y-47210145D01*
X72173778Y-47246708D01*
X72146347Y-47279985D01*
X72057769Y-47307765D01*
X72019008Y-47302079D01*
X71989551Y-47270908D01*
X71973013Y-47196142D01*
X71965757Y-47059757D01*
X71964147Y-46843727D01*
X71965450Y-46636775D01*
X71972054Y-46497117D01*
X71987777Y-46419798D01*
X72016434Y-46386695D01*
X72061839Y-46379688D01*
X72111284Y-46387728D01*
X72142587Y-46428258D01*
X72156420Y-46523018D01*
X72159532Y-46693699D01*
X72167367Y-46864257D01*
X72208364Y-47035844D01*
X72289305Y-47131532D01*
X72415617Y-47161227D01*
X72510142Y-47148335D01*
X72617018Y-47072715D01*
X72677673Y-46922455D01*
X72696839Y-46689618D01*
X72699200Y-46536281D01*
X72711671Y-46434742D01*
X72741156Y-46389816D01*
X72794532Y-46379688D01*
X72812117Y-46380263D01*
G37*
G36*
X70865108Y-46843727D02*
G01*
X70857021Y-46983540D01*
X70817167Y-47094187D01*
X70728058Y-47189879D01*
X70702727Y-47209888D01*
X70517848Y-47291339D01*
X70300256Y-47306284D01*
X70086250Y-47251252D01*
X70073776Y-47245416D01*
X69999924Y-47191195D01*
X70012425Y-47134244D01*
X70027012Y-47119551D01*
X70101271Y-47098093D01*
X70231386Y-47125540D01*
X70345417Y-47146083D01*
X70493053Y-47132266D01*
X70602497Y-47077601D01*
X70645301Y-46991312D01*
X70636294Y-46961519D01*
X70584778Y-46934358D01*
X70471644Y-46920730D01*
X70278955Y-46916996D01*
X70204604Y-46916806D01*
X70046384Y-46912427D01*
X69958521Y-46898013D01*
X69920701Y-46868014D01*
X69912608Y-46816878D01*
X69919525Y-46754517D01*
X69929765Y-46725100D01*
X70107993Y-46725100D01*
X70131934Y-46743764D01*
X70229516Y-46763000D01*
X70376647Y-46770458D01*
X70503309Y-46764933D01*
X70621377Y-46734113D01*
X70648501Y-46674673D01*
X70586685Y-46584842D01*
X70518390Y-46543841D01*
X70389558Y-46530554D01*
X70255674Y-46562940D01*
X70150548Y-46631091D01*
X70107993Y-46725100D01*
X69929765Y-46725100D01*
X69969321Y-46611465D01*
X70048463Y-46482985D01*
X70134605Y-46410031D01*
X70155523Y-46402612D01*
X70355790Y-46375709D01*
X70561842Y-46409606D01*
X70728058Y-46497574D01*
X70807825Y-46579657D01*
X70848995Y-46674673D01*
X70853675Y-46685475D01*
X70865108Y-46843727D01*
G37*
G36*
X75096181Y-44916219D02*
G01*
X74981107Y-45010211D01*
X74956659Y-45018593D01*
X74820822Y-45045394D01*
X74660677Y-45057746D01*
X74518852Y-45045209D01*
X74348974Y-44966183D01*
X74245824Y-44816144D01*
X74212346Y-44604854D01*
X74455301Y-44604854D01*
X74457407Y-44675852D01*
X74484195Y-44797724D01*
X74549782Y-44863739D01*
X74690198Y-44911900D01*
X74824074Y-44888303D01*
X74912092Y-44783415D01*
X74943762Y-44604146D01*
X74943039Y-44562369D01*
X74914056Y-44396877D01*
X74835982Y-44306638D01*
X74699532Y-44279304D01*
X74667312Y-44280318D01*
X74543323Y-44319092D01*
X74475755Y-44423136D01*
X74455301Y-44604854D01*
X74212346Y-44604854D01*
X74211070Y-44596804D01*
X74231518Y-44417445D01*
X74316549Y-44256843D01*
X74471266Y-44163173D01*
X74699532Y-44132765D01*
X74842506Y-44139722D01*
X74967003Y-44175190D01*
X75068098Y-44252660D01*
X75074149Y-44258880D01*
X75158942Y-44405023D01*
X75188566Y-44583426D01*
X75186031Y-44604146D01*
X75166490Y-44763891D01*
X75096181Y-44916219D01*
G37*
G36*
X84650239Y-44012008D02*
G01*
X84582126Y-44157052D01*
X84468762Y-44247218D01*
X84431034Y-44257585D01*
X84287104Y-44257237D01*
X84140788Y-44216596D01*
X84041358Y-44147194D01*
X84009042Y-44084780D01*
X83982621Y-43927794D01*
X83990498Y-43855181D01*
X84086940Y-43855181D01*
X84106600Y-43975494D01*
X84109391Y-43983023D01*
X84189169Y-44083598D01*
X84306654Y-44130575D01*
X84426750Y-44118304D01*
X84514363Y-44041137D01*
X84548528Y-43964769D01*
X84555901Y-43836536D01*
X84477128Y-43725143D01*
X84391935Y-43666074D01*
X84270320Y-43656345D01*
X84149924Y-43743475D01*
X84139017Y-43755871D01*
X84086940Y-43855181D01*
X83990498Y-43855181D01*
X84000618Y-43761887D01*
X84061141Y-43635938D01*
X84132052Y-43585740D01*
X84282546Y-43549597D01*
X84444839Y-43563258D01*
X84574820Y-43627451D01*
X84627066Y-43695457D01*
X84664510Y-43836536D01*
X84667189Y-43846628D01*
X84650239Y-44012008D01*
G37*
%TD*%
M02*
