M48
; DRILL file {KiCad (6.0.7)} date Thu Jan 26 09:38:30 2023
; FORMAT={-:-/ absolute / inch / decimal}
; #@! TF.CreationDate,2023-01-26T09:38:30+00:00
; #@! TF.GenerationSoftware,Kicad,Pcbnew,(6.0.7)
; #@! TF.FileFunction,Plated,1,2,PTH
FMAT,2
INCH
; #@! TA.AperFunction,Plated,PTH,ViaDrill
T1C0.0157
; #@! TA.AperFunction,Plated,PTH,ComponentDrill
T2C0.0276
; #@! TA.AperFunction,Plated,PTH,ComponentDrill
T3C0.0315
; #@! TA.AperFunction,Plated,PTH,ComponentDrill
T4C0.0394
%
G90
G05
T1
X2.4386Y-2.1028
X2.5494Y-2.3012
X2.5752Y-1.7043
X2.5965Y-1.8339
X2.7203Y-2.521
X2.7441Y-2.4028
X2.7531Y-2.2748
X2.7921Y-2.5571
X2.8992Y-2.6149
X3.0101Y-2.6143
X3.0983Y-2.5691
X3.1082Y-2.6072
X3.1299Y-2.5173
X3.216Y-2.607
X3.2644Y-2.0498
X3.3079Y-2.3299
X3.3126Y-1.8606
X3.3724Y-2.3469
X3.4769Y-2.3072
X3.6362Y-2.3508
X3.7177Y-2.3539
X3.7898Y-2.3626
X3.9366Y-2.3626
X3.9382Y-2.2713
X3.9933Y-2.3953
X4.098Y-2.3913
X4.1065Y-2.6037
X4.1874Y-2.3913
X4.2327Y-2.2988
X4.2933Y-2.3907
X4.3858Y-2.3907
T2
X2.4736Y-2.5539
X2.6736Y-2.5539
X2.6823Y-2.0142
X2.8823Y-2.0142
X2.9724Y-2.5531
X3.1724Y-2.5531
X3.735Y-2.5516
X3.7417Y-2.013
X3.935Y-2.5516
X3.9417Y-2.013
T3
X2.474Y-2.1646
X2.474Y-2.4646
X2.478Y-2.0146
X2.4801Y-1.6252
X2.4801Y-1.9252
X2.574Y-2.1646
X2.574Y-2.4646
X2.5764Y-2.0146
X2.5801Y-1.6252
X2.5801Y-1.9252
X2.674Y-2.1646
X2.674Y-2.4646
X2.6801Y-1.6252
X2.6801Y-1.9252
X2.774Y-2.1646
X2.774Y-2.4646
X2.7801Y-1.6252
X2.7801Y-1.9252
X2.874Y-2.1646
X2.874Y-2.4646
X2.8801Y-1.6252
X2.8801Y-1.9252
X2.974Y-2.1646
X2.974Y-2.4646
X2.9801Y-1.6252
X2.9801Y-1.9252
X3.074Y-2.1646
X3.074Y-2.4646
X3.0801Y-1.6252
X3.0801Y-1.9252
X3.174Y-2.1646
X3.174Y-2.4646
X3.1801Y-1.6252
X3.1801Y-1.9252
X3.274Y-2.1646
X3.274Y-2.4646
X3.2764Y-2.5535
X3.2801Y-1.6252
X3.2801Y-1.9252
X3.374Y-2.1646
X3.374Y-2.4646
X3.3748Y-2.5535
X3.3801Y-1.6252
X3.3801Y-1.9252
X3.537Y-2.1642
X3.537Y-2.4642
X3.5372Y-1.6236
X3.5372Y-1.9236
X3.5406Y-2.0122
X3.5406Y-2.5583
X3.637Y-2.1642
X3.637Y-2.4642
X3.6372Y-1.6236
X3.6372Y-1.9236
X3.639Y-2.0122
X3.639Y-2.5583
X3.737Y-2.1642
X3.737Y-2.4642
X3.7372Y-1.6236
X3.7372Y-1.9236
X3.837Y-2.1642
X3.837Y-2.4642
X3.8372Y-1.6236
X3.8372Y-1.9236
X3.937Y-2.1642
X3.937Y-2.4642
X3.9372Y-1.6236
X3.9372Y-1.9236
X4.037Y-2.1642
X4.037Y-2.4642
X4.0372Y-1.6236
X4.0372Y-1.9236
X4.137Y-2.1642
X4.137Y-2.4642
X4.1372Y-1.6236
X4.1372Y-1.9236
X4.237Y-2.1642
X4.237Y-2.4642
X4.2372Y-1.6236
X4.2372Y-1.9236
X4.337Y-2.1642
X4.337Y-2.4642
X4.3372Y-1.6236
X4.3372Y-1.9236
X4.437Y-2.1642
X4.437Y-2.4642
X4.4372Y-1.6236
X4.4372Y-1.9236
T4
X2.5144Y-1.3734
X2.5144Y-1.4734
X2.6144Y-1.3734
X2.6144Y-1.4734
X2.7144Y-1.3734
X2.7144Y-1.4734
X2.8144Y-1.3734
X2.8144Y-1.4734
X2.9144Y-1.3734
X2.9144Y-1.4734
X2.9931Y-2.0457
X3.0144Y-1.3734
X3.0144Y-1.4734
X3.0931Y-2.0457
X3.1144Y-1.3734
X3.1144Y-1.4734
X3.1931Y-2.0457
X3.2144Y-1.3734
X3.2144Y-1.4734
X3.3144Y-1.3734
X3.3144Y-1.4734
X3.4144Y-1.3734
X3.4144Y-1.4734
X3.5144Y-1.3734
X3.5144Y-1.4734
X3.6144Y-1.3734
X3.6144Y-1.4734
X3.7144Y-1.3734
X3.7144Y-1.4734
X3.8144Y-1.3734
X3.8144Y-1.4734
X3.9144Y-1.3734
X3.9144Y-1.4734
X4.0144Y-1.3734
X4.0144Y-1.4734
X4.1144Y-1.3734
X4.1144Y-1.4734
X4.2144Y-1.3734
X4.2144Y-1.4734
X4.3144Y-1.3734
X4.3144Y-1.4734
X4.4144Y-1.3734
X4.4144Y-1.4734
T0
M30
