%TF.GenerationSoftware,KiCad,Pcbnew,(6.0.7)*%
%TF.CreationDate,2023-01-26T09:38:32+00:00*%
%TF.ProjectId,CoCo_FPGA_Hat,436f436f-5f46-4504-9741-5f4861742e6b,0*%
%TF.SameCoordinates,Original*%
%TF.FileFunction,Soldermask,Top*%
%TF.FilePolarity,Negative*%
%FSLAX46Y46*%
G04 Gerber Fmt 4.6, Leading zero omitted, Abs format (unit mm)*
G04 Created by KiCad (PCBNEW (6.0.7)) date 2023-01-26 09:38:32*
%MOMM*%
%LPD*%
G01*
G04 APERTURE LIST*
G04 Aperture macros list*
%AMRoundRect*
0 Rectangle with rounded corners*
0 $1 Rounding radius*
0 $2 $3 $4 $5 $6 $7 $8 $9 X,Y pos of 4 corners*
0 Add a 4 corners polygon primitive as box body*
4,1,4,$2,$3,$4,$5,$6,$7,$8,$9,$2,$3,0*
0 Add four circle primitives for the rounded corners*
1,1,$1+$1,$2,$3*
1,1,$1+$1,$4,$5*
1,1,$1+$1,$6,$7*
1,1,$1+$1,$8,$9*
0 Add four rect primitives between the rounded corners*
20,1,$1+$1,$2,$3,$4,$5,0*
20,1,$1+$1,$4,$5,$6,$7,0*
20,1,$1+$1,$6,$7,$8,$9,0*
20,1,$1+$1,$8,$9,$2,$3,0*%
G04 Aperture macros list end*
%ADD10C,1.400000*%
%ADD11O,1.400000X1.400000*%
%ADD12C,1.600000*%
%ADD13R,1.600000X1.600000*%
%ADD14O,1.600000X1.600000*%
%ADD15RoundRect,0.076200X-0.635000X-4.762500X0.635000X-4.762500X0.635000X4.762500X-0.635000X4.762500X0*%
%ADD16RoundRect,0.076200X-0.622088X-4.169051X0.622088X-4.169051X0.622088X4.169051X-0.622088X4.169051X0*%
%ADD17R,1.700000X1.700000*%
%ADD18O,1.700000X1.700000*%
G04 APERTURE END LIST*
%TO.C,P1*%
G36*
X114465000Y-77036000D02*
G01*
X61125000Y-77036000D01*
X61125000Y-66876000D01*
X114465000Y-66876000D01*
X114465000Y-77036000D01*
G37*
%TD*%
D10*
%TO.C,R1*%
X75500000Y-64850000D03*
D11*
X80580000Y-64850000D03*
%TD*%
D12*
%TO.C,C3*%
X92430000Y-51110000D03*
X89930000Y-51110000D03*
%TD*%
%TO.C,C2*%
X92430000Y-64980000D03*
X89930000Y-64980000D03*
%TD*%
D13*
%TO.C,U1*%
X62840000Y-62600000D03*
D14*
X65380000Y-62600000D03*
X67920000Y-62600000D03*
X70460000Y-62600000D03*
X73000000Y-62600000D03*
X75540000Y-62600000D03*
X78080000Y-62600000D03*
X80620000Y-62600000D03*
X83160000Y-62600000D03*
X85700000Y-62600000D03*
X85700000Y-54980000D03*
X83160000Y-54980000D03*
X80620000Y-54980000D03*
X78080000Y-54980000D03*
X75540000Y-54980000D03*
X73000000Y-54980000D03*
X70460000Y-54980000D03*
X67920000Y-54980000D03*
X65380000Y-54980000D03*
X62840000Y-54980000D03*
%TD*%
D13*
%TO.C,U3*%
X89845000Y-48860000D03*
D14*
X92385000Y-48860000D03*
X94925000Y-48860000D03*
X97465000Y-48860000D03*
X100005000Y-48860000D03*
X102545000Y-48860000D03*
X105085000Y-48860000D03*
X107625000Y-48860000D03*
X110165000Y-48860000D03*
X112705000Y-48860000D03*
X112705000Y-41240000D03*
X110165000Y-41240000D03*
X107625000Y-41240000D03*
X105085000Y-41240000D03*
X102545000Y-41240000D03*
X100005000Y-41240000D03*
X97465000Y-41240000D03*
X94925000Y-41240000D03*
X92385000Y-41240000D03*
X89845000Y-41240000D03*
%TD*%
D15*
%TO.C,P1*%
X63665000Y-71829000D03*
X66205000Y-71829000D03*
X68745000Y-71829000D03*
X71285000Y-71829000D03*
D16*
X73812088Y-71262519D03*
D15*
X76365000Y-71829000D03*
X78905000Y-71829000D03*
X81445000Y-71829000D03*
X83985000Y-71829000D03*
X86525000Y-71829000D03*
X89065000Y-71829000D03*
X91605000Y-71829000D03*
X94145000Y-71829000D03*
X96685000Y-71829000D03*
X99225000Y-71829000D03*
X101765000Y-71829000D03*
X104305000Y-71829000D03*
X106845000Y-71829000D03*
X109385000Y-71829000D03*
X111925000Y-71829000D03*
%TD*%
D10*
%TO.C,R2*%
X99950000Y-64810000D03*
D11*
X94870000Y-64810000D03*
%TD*%
D12*
%TO.C,C1*%
X83220000Y-64860000D03*
X85720000Y-64860000D03*
%TD*%
%TO.C,C4*%
X65440000Y-51170000D03*
X62940000Y-51170000D03*
%TD*%
D10*
%TO.C,R3*%
X100120000Y-51130000D03*
D11*
X95040000Y-51130000D03*
%TD*%
D13*
%TO.C,U4*%
X62995000Y-48900000D03*
D14*
X65535000Y-48900000D03*
X68075000Y-48900000D03*
X70615000Y-48900000D03*
X73155000Y-48900000D03*
X75695000Y-48900000D03*
X78235000Y-48900000D03*
X80775000Y-48900000D03*
X83315000Y-48900000D03*
X85855000Y-48900000D03*
X85855000Y-41280000D03*
X83315000Y-41280000D03*
X80775000Y-41280000D03*
X78235000Y-41280000D03*
X75695000Y-41280000D03*
X73155000Y-41280000D03*
X70615000Y-41280000D03*
X68075000Y-41280000D03*
X65535000Y-41280000D03*
X62995000Y-41280000D03*
%TD*%
D13*
%TO.C,U2*%
X89840000Y-62590000D03*
D14*
X92380000Y-62590000D03*
X94920000Y-62590000D03*
X97460000Y-62590000D03*
X100000000Y-62590000D03*
X102540000Y-62590000D03*
X105080000Y-62590000D03*
X107620000Y-62590000D03*
X110160000Y-62590000D03*
X112700000Y-62590000D03*
X112700000Y-54970000D03*
X110160000Y-54970000D03*
X107620000Y-54970000D03*
X105080000Y-54970000D03*
X102540000Y-54970000D03*
X100000000Y-54970000D03*
X97460000Y-54970000D03*
X94920000Y-54970000D03*
X92380000Y-54970000D03*
X89840000Y-54970000D03*
%TD*%
D10*
%TO.C,R4*%
X73210000Y-51160000D03*
D11*
X68130000Y-51160000D03*
%TD*%
D17*
%TO.C,IDC1*%
X112125000Y-34885000D03*
D18*
X112125000Y-37425000D03*
X109585000Y-34885000D03*
X109585000Y-37425000D03*
X107045000Y-34885000D03*
X107045000Y-37425000D03*
X104505000Y-34885000D03*
X104505000Y-37425000D03*
X101965000Y-34885000D03*
X101965000Y-37425000D03*
X99425000Y-34885000D03*
X99425000Y-37425000D03*
X96885000Y-34885000D03*
X96885000Y-37425000D03*
X94345000Y-34885000D03*
X94345000Y-37425000D03*
X91805000Y-34885000D03*
X91805000Y-37425000D03*
X89265000Y-34885000D03*
X89265000Y-37425000D03*
X86725000Y-34885000D03*
X86725000Y-37425000D03*
X84185000Y-34885000D03*
X84185000Y-37425000D03*
X81645000Y-34885000D03*
X81645000Y-37425000D03*
X79105000Y-34885000D03*
X79105000Y-37425000D03*
X76565000Y-34885000D03*
X76565000Y-37425000D03*
X74025000Y-34885000D03*
X74025000Y-37425000D03*
X71485000Y-34885000D03*
X71485000Y-37425000D03*
X68945000Y-34885000D03*
X68945000Y-37425000D03*
X66405000Y-34885000D03*
X66405000Y-37425000D03*
X63865000Y-34885000D03*
X63865000Y-37425000D03*
%TD*%
D17*
%TO.C,J1*%
X81105000Y-51960000D03*
D18*
X78565000Y-51960000D03*
X76025000Y-51960000D03*
%TD*%
D10*
%TO.C,R6*%
X62830000Y-64870000D03*
D11*
X67910000Y-64870000D03*
%TD*%
M02*
