%TF.GenerationSoftware,KiCad,Pcbnew,(6.0.7)*%
%TF.CreationDate,2023-01-26T09:38:32+00:00*%
%TF.ProjectId,CoCo_FPGA_Hat,436f436f-5f46-4504-9741-5f4861742e6b,0*%
%TF.SameCoordinates,Original*%
%TF.FileFunction,Copper,L2,Bot*%
%TF.FilePolarity,Positive*%
%FSLAX46Y46*%
G04 Gerber Fmt 4.6, Leading zero omitted, Abs format (unit mm)*
G04 Created by KiCad (PCBNEW (6.0.7)) date 2023-01-26 09:38:32*
%MOMM*%
%LPD*%
G01*
G04 APERTURE LIST*
%TA.AperFunction,ComponentPad*%
%ADD10C,1.400000*%
%TD*%
%TA.AperFunction,ComponentPad*%
%ADD11O,1.400000X1.400000*%
%TD*%
%TA.AperFunction,ComponentPad*%
%ADD12C,1.600000*%
%TD*%
%TA.AperFunction,ComponentPad*%
%ADD13R,1.600000X1.600000*%
%TD*%
%TA.AperFunction,ComponentPad*%
%ADD14O,1.600000X1.600000*%
%TD*%
%TA.AperFunction,SMDPad,CuDef*%
%ADD15R,1.270000X9.525000*%
%TD*%
%TA.AperFunction,ComponentPad*%
%ADD16R,1.700000X1.700000*%
%TD*%
%TA.AperFunction,ComponentPad*%
%ADD17O,1.700000X1.700000*%
%TD*%
%TA.AperFunction,ViaPad*%
%ADD18C,0.800000*%
%TD*%
%TA.AperFunction,Conductor*%
%ADD19C,0.250000*%
%TD*%
G04 APERTURE END LIST*
D10*
%TO.P,R1,1*%
%TO.N,Vdd*%
X75500000Y-64850000D03*
D11*
%TO.P,R1,2*%
%TO.N,Net-(P1-Pad18)*%
X80580000Y-64850000D03*
%TD*%
D12*
%TO.P,C3,1*%
%TO.N,GNDREF*%
X92430000Y-51110000D03*
%TO.P,C3,2*%
%TO.N,Vdd*%
X89930000Y-51110000D03*
%TD*%
%TO.P,C2,1*%
%TO.N,GNDREF*%
X92430000Y-64980000D03*
%TO.P,C2,2*%
%TO.N,Vdd*%
X89930000Y-64980000D03*
%TD*%
D13*
%TO.P,U1,1,DIR*%
%TO.N,Net-(P1-Pad18)*%
X62840000Y-62600000D03*
D14*
%TO.P,U1,2,A1*%
%TO.N,C_D0*%
X65380000Y-62600000D03*
%TO.P,U1,3,A2*%
%TO.N,C_D1*%
X67920000Y-62600000D03*
%TO.P,U1,4,A3*%
%TO.N,C_D2*%
X70460000Y-62600000D03*
%TO.P,U1,5,A4*%
%TO.N,C_D3*%
X73000000Y-62600000D03*
%TO.P,U1,6,A5*%
%TO.N,C_D4*%
X75540000Y-62600000D03*
%TO.P,U1,7,A6*%
%TO.N,C_D5*%
X78080000Y-62600000D03*
%TO.P,U1,8,A7*%
%TO.N,C_D6*%
X80620000Y-62600000D03*
%TO.P,U1,9,A8*%
%TO.N,C_D7*%
X83160000Y-62600000D03*
%TO.P,U1,10,GND*%
%TO.N,GNDREF*%
X85700000Y-62600000D03*
%TO.P,U1,11,B8*%
%TO.N,D7*%
X85700000Y-54980000D03*
%TO.P,U1,12,B7*%
%TO.N,D6*%
X83160000Y-54980000D03*
%TO.P,U1,13,B6*%
%TO.N,D5*%
X80620000Y-54980000D03*
%TO.P,U1,14,B5*%
%TO.N,D4*%
X78080000Y-54980000D03*
%TO.P,U1,15,B4*%
%TO.N,D3*%
X75540000Y-54980000D03*
%TO.P,U1,16,B3*%
%TO.N,D2*%
X73000000Y-54980000D03*
%TO.P,U1,17,B2*%
%TO.N,D1*%
X70460000Y-54980000D03*
%TO.P,U1,18,B1*%
%TO.N,D0*%
X67920000Y-54980000D03*
%TO.P,U1,19,/OE*%
%TO.N,{slash}C_BUSDIR*%
X65380000Y-54980000D03*
%TO.P,U1,20,Vcc*%
%TO.N,Vdd*%
X62840000Y-54980000D03*
%TD*%
D13*
%TO.P,U3,1,DIR*%
%TO.N,Net-(R3-Pad2)*%
X89845000Y-48860000D03*
D14*
%TO.P,U3,2,A1*%
%TO.N,A3*%
X92385000Y-48860000D03*
%TO.P,U3,3,A2*%
%TO.N,A5*%
X94925000Y-48860000D03*
%TO.P,U3,4,A3*%
%TO.N,A7*%
X97465000Y-48860000D03*
%TO.P,U3,5,A4*%
%TO.N,A9*%
X100005000Y-48860000D03*
%TO.P,U3,6,A5*%
%TO.N,A11*%
X102545000Y-48860000D03*
%TO.P,U3,7,A6*%
%TO.N,\u002ACTS*%
X105085000Y-48860000D03*
%TO.P,U3,8,A7*%
%TO.N,\u002ASCS*%
X107625000Y-48860000D03*
%TO.P,U3,9,A8*%
%TO.N,A14*%
X110165000Y-48860000D03*
%TO.P,U3,10,GND*%
%TO.N,GNDREF*%
X112705000Y-48860000D03*
%TO.P,U3,11,B8*%
%TO.N,C_A14*%
X112705000Y-41240000D03*
%TO.P,U3,12,B7*%
%TO.N,\u002AC_SCS*%
X110165000Y-41240000D03*
%TO.P,U3,13,B6*%
%TO.N,\u002AC_CTS*%
X107625000Y-41240000D03*
%TO.P,U3,14,B5*%
%TO.N,C_A11*%
X105085000Y-41240000D03*
%TO.P,U3,15,B4*%
%TO.N,C_A9*%
X102545000Y-41240000D03*
%TO.P,U3,16,B3*%
%TO.N,C_A7*%
X100005000Y-41240000D03*
%TO.P,U3,17,B2*%
%TO.N,C_A5*%
X97465000Y-41240000D03*
%TO.P,U3,18,B1*%
%TO.N,C_A3*%
X94925000Y-41240000D03*
%TO.P,U3,19,/OE*%
%TO.N,GNDREF*%
X92385000Y-41240000D03*
%TO.P,U3,20,Vcc*%
%TO.N,Vdd*%
X89845000Y-41240000D03*
%TD*%
D15*
%TO.P,P1,2,+12V*%
%TO.N,unconnected-(P1-Pad2)*%
X63665000Y-71829000D03*
%TO.P,P1,4,~{NMI}*%
%TO.N,\u002ANMI*%
X66205000Y-71829000D03*
%TO.P,P1,6,E*%
%TO.N,unconnected-(P1-Pad6)*%
X68745000Y-71829000D03*
%TO.P,P1,8,~{CART}*%
%TO.N,\u002ACART*%
X71285000Y-71829000D03*
%TO.P,P1,10,D0*%
%TO.N,D0*%
X73825000Y-71829000D03*
%TO.P,P1,12,D2*%
%TO.N,D2*%
X76365000Y-71829000D03*
%TO.P,P1,14,D4*%
%TO.N,D4*%
X78905000Y-71829000D03*
%TO.P,P1,16,D6*%
%TO.N,D6*%
X81445000Y-71829000D03*
%TO.P,P1,18,R/~{W}*%
%TO.N,Net-(P1-Pad18)*%
X83985000Y-71829000D03*
%TO.P,P1,20,A1*%
%TO.N,A1*%
X86525000Y-71829000D03*
%TO.P,P1,22,A3*%
%TO.N,A3*%
X89065000Y-71829000D03*
%TO.P,P1,24,A5*%
%TO.N,A5*%
X91605000Y-71829000D03*
%TO.P,P1,26,A7*%
%TO.N,A7*%
X94145000Y-71829000D03*
%TO.P,P1,28,A9*%
%TO.N,A9*%
X96685000Y-71829000D03*
%TO.P,P1,30,A11*%
%TO.N,A11*%
X99225000Y-71829000D03*
%TO.P,P1,32,~{CTS}*%
%TO.N,\u002ACTS*%
X101765000Y-71829000D03*
%TO.P,P1,34,GND@2*%
%TO.N,GNDREF*%
X104305000Y-71829000D03*
%TO.P,P1,36,~{SCS}*%
%TO.N,\u002ASCS*%
X106845000Y-71829000D03*
%TO.P,P1,38,A14*%
%TO.N,A14*%
X109385000Y-71829000D03*
%TO.P,P1,40,~{SLENB}*%
%TO.N,\u002ASLENB*%
X111925000Y-71829000D03*
%TD*%
D10*
%TO.P,R2,1*%
%TO.N,Vdd*%
X99950000Y-64810000D03*
D11*
%TO.P,R2,2*%
%TO.N,Net-(R2-Pad2)*%
X94870000Y-64810000D03*
%TD*%
D12*
%TO.P,C1,1*%
%TO.N,GNDREF*%
X83220000Y-64860000D03*
%TO.P,C1,2*%
%TO.N,Vdd*%
X85720000Y-64860000D03*
%TD*%
%TO.P,C4,1*%
%TO.N,GNDREF*%
X65440000Y-51170000D03*
%TO.P,C4,2*%
%TO.N,Vdd*%
X62940000Y-51170000D03*
%TD*%
D10*
%TO.P,R3,1*%
%TO.N,Vdd*%
X100120000Y-51130000D03*
D11*
%TO.P,R3,2*%
%TO.N,Net-(R3-Pad2)*%
X95040000Y-51130000D03*
%TD*%
D13*
%TO.P,U4,1,DIR*%
%TO.N,Net-(R4-Pad2)*%
X62995000Y-48900000D03*
D14*
%TO.P,U4,2,A1*%
%TO.N,\u002AC_NMI_SLENB*%
X65535000Y-48900000D03*
%TO.P,U4,3,A2*%
%TO.N,\u002ARESET*%
X68075000Y-48900000D03*
%TO.P,U4,4,A3*%
%TO.N,\u002ARW*%
X70615000Y-48900000D03*
%TO.P,U4,5,A4*%
%TO.N,\u002AC_HALT*%
X73155000Y-48900000D03*
%TO.P,U4,6,A5*%
%TO.N,\u002AC_CART*%
X75695000Y-48900000D03*
%TO.P,U4,7,A6*%
%TO.N,Q*%
X78235000Y-48900000D03*
%TO.P,U4,8,A7*%
%TO.N,A1*%
X80775000Y-48900000D03*
%TO.P,U4,9,A8*%
%TO.N,A0*%
X83315000Y-48900000D03*
%TO.P,U4,10,GND*%
%TO.N,GNDREF*%
X85855000Y-48900000D03*
%TO.P,U4,11,B8*%
%TO.N,C_A0*%
X85855000Y-41280000D03*
%TO.P,U4,12,B7*%
%TO.N,C_A1*%
X83315000Y-41280000D03*
%TO.P,U4,13,B6*%
%TO.N,C_Q*%
X80775000Y-41280000D03*
%TO.P,U4,14,B5*%
%TO.N,\u002ACART*%
X78235000Y-41280000D03*
%TO.P,U4,15,B4*%
%TO.N,\u002AHALT*%
X75695000Y-41280000D03*
%TO.P,U4,16,B3*%
%TO.N,\u002AC_RW*%
X73155000Y-41280000D03*
%TO.P,U4,17,B2*%
%TO.N,\u002AC_RESET*%
X70615000Y-41280000D03*
%TO.P,U4,18,B1*%
%TO.N,\u002ANMI_SLENB*%
X68075000Y-41280000D03*
%TO.P,U4,19,/OE*%
%TO.N,GNDREF*%
X65535000Y-41280000D03*
%TO.P,U4,20,Vcc*%
%TO.N,Vdd*%
X62995000Y-41280000D03*
%TD*%
D13*
%TO.P,U2,1,DIR*%
%TO.N,Net-(R2-Pad2)*%
X89840000Y-62590000D03*
D14*
%TO.P,U2,2,A1*%
%TO.N,A2*%
X92380000Y-62590000D03*
%TO.P,U2,3,A2*%
%TO.N,A4*%
X94920000Y-62590000D03*
%TO.P,U2,4,A3*%
%TO.N,A6*%
X97460000Y-62590000D03*
%TO.P,U2,5,A4*%
%TO.N,A8*%
X100000000Y-62590000D03*
%TO.P,U2,6,A5*%
%TO.N,A10*%
X102540000Y-62590000D03*
%TO.P,U2,7,A6*%
%TO.N,A12*%
X105080000Y-62590000D03*
%TO.P,U2,8,A7*%
%TO.N,A13*%
X107620000Y-62590000D03*
%TO.P,U2,9,A8*%
%TO.N,A15*%
X110160000Y-62590000D03*
%TO.P,U2,10,GND*%
%TO.N,GNDREF*%
X112700000Y-62590000D03*
%TO.P,U2,11,B8*%
%TO.N,C_A15*%
X112700000Y-54970000D03*
%TO.P,U2,12,B7*%
%TO.N,C_A13*%
X110160000Y-54970000D03*
%TO.P,U2,13,B6*%
%TO.N,C_A12*%
X107620000Y-54970000D03*
%TO.P,U2,14,B5*%
%TO.N,C_A10*%
X105080000Y-54970000D03*
%TO.P,U2,15,B4*%
%TO.N,C_A8*%
X102540000Y-54970000D03*
%TO.P,U2,16,B3*%
%TO.N,C_A6*%
X100000000Y-54970000D03*
%TO.P,U2,17,B2*%
%TO.N,C_A4*%
X97460000Y-54970000D03*
%TO.P,U2,18,B1*%
%TO.N,C_A2*%
X94920000Y-54970000D03*
%TO.P,U2,19,/OE*%
%TO.N,GNDREF*%
X92380000Y-54970000D03*
%TO.P,U2,20,Vcc*%
%TO.N,Vdd*%
X89840000Y-54970000D03*
%TD*%
D10*
%TO.P,R4,1*%
%TO.N,Vdd*%
X73210000Y-51160000D03*
D11*
%TO.P,R4,2*%
%TO.N,Net-(R4-Pad2)*%
X68130000Y-51160000D03*
%TD*%
D16*
%TO.P,IDC1,1,Pin_1*%
%TO.N,unconnected-(IDC1-Pad1)*%
X112125000Y-34885000D03*
D17*
%TO.P,IDC1,2,Pin_2*%
%TO.N,C_A15*%
X112125000Y-37425000D03*
%TO.P,IDC1,3,Pin_3*%
%TO.N,\u002AC_SCS*%
X109585000Y-34885000D03*
%TO.P,IDC1,4,Pin_4*%
%TO.N,C_A13*%
X109585000Y-37425000D03*
%TO.P,IDC1,5,Pin_5*%
%TO.N,C_A14*%
X107045000Y-34885000D03*
%TO.P,IDC1,6,Pin_6*%
%TO.N,C_A11*%
X107045000Y-37425000D03*
%TO.P,IDC1,7,Pin_7*%
%TO.N,\u002AC_CTS*%
X104505000Y-34885000D03*
%TO.P,IDC1,8,Pin_8*%
%TO.N,C_A7*%
X104505000Y-37425000D03*
%TO.P,IDC1,9,Pin_9*%
%TO.N,C_A9*%
X101965000Y-34885000D03*
%TO.P,IDC1,10,Pin_10*%
%TO.N,C_A5*%
X101965000Y-37425000D03*
%TO.P,IDC1,11,Pin_11*%
%TO.N,unconnected-(IDC1-Pad11)*%
X99425000Y-34885000D03*
%TO.P,IDC1,12,Pin_12*%
%TO.N,GNDREF*%
X99425000Y-37425000D03*
%TO.P,IDC1,13,Pin_13*%
%TO.N,C_A3*%
X96885000Y-34885000D03*
%TO.P,IDC1,14,Pin_14*%
%TO.N,C_A12*%
X96885000Y-37425000D03*
%TO.P,IDC1,15,Pin_15*%
%TO.N,C_A10*%
X94345000Y-34885000D03*
%TO.P,IDC1,16,Pin_16*%
%TO.N,C_A8*%
X94345000Y-37425000D03*
%TO.P,IDC1,17,Pin_17*%
%TO.N,{slash}C_BUSDIR*%
X91805000Y-34885000D03*
%TO.P,IDC1,18,Pin_18*%
%TO.N,C_A6*%
X91805000Y-37425000D03*
%TO.P,IDC1,19,Pin_19*%
%TO.N,unconnected-(IDC1-Pad19)*%
X89265000Y-34885000D03*
%TO.P,IDC1,20,Pin_20*%
%TO.N,C_A0*%
X89265000Y-37425000D03*
%TO.P,IDC1,21,Pin_21*%
%TO.N,unconnected-(IDC1-Pad21)*%
X86725000Y-34885000D03*
%TO.P,IDC1,22,Pin_22*%
%TO.N,C_A4*%
X86725000Y-37425000D03*
%TO.P,IDC1,23,Pin_23*%
%TO.N,C_A1*%
X84185000Y-34885000D03*
%TO.P,IDC1,24,Pin_24*%
%TO.N,C_A2*%
X84185000Y-37425000D03*
%TO.P,IDC1,25,Pin_25*%
%TO.N,C_Q*%
X81645000Y-34885000D03*
%TO.P,IDC1,26,Pin_26*%
%TO.N,C_D7*%
X81645000Y-37425000D03*
%TO.P,IDC1,27,Pin_27*%
%TO.N,C_D5*%
X79105000Y-34885000D03*
%TO.P,IDC1,28,Pin_28*%
%TO.N,C_D6*%
X79105000Y-37425000D03*
%TO.P,IDC1,29,Pin_29*%
%TO.N,Vdd*%
X76565000Y-34885000D03*
%TO.P,IDC1,30,Pin_30*%
%TO.N,GNDREF*%
X76565000Y-37425000D03*
%TO.P,IDC1,31,Pin_31*%
%TO.N,\u002AC_HALT*%
X74025000Y-34885000D03*
%TO.P,IDC1,32,Pin_32*%
%TO.N,\u002AC_CART*%
X74025000Y-37425000D03*
%TO.P,IDC1,33,Pin_33*%
%TO.N,C_D4*%
X71485000Y-34885000D03*
%TO.P,IDC1,34,Pin_34*%
%TO.N,\u002AC_RW*%
X71485000Y-37425000D03*
%TO.P,IDC1,35,Pin_35*%
%TO.N,C_D3*%
X68945000Y-34885000D03*
%TO.P,IDC1,36,Pin_36*%
%TO.N,\u002AC_RESET*%
X68945000Y-37425000D03*
%TO.P,IDC1,37,Pin_37*%
%TO.N,C_D2*%
X66405000Y-34885000D03*
%TO.P,IDC1,38,Pin_38*%
%TO.N,\u002AC_NMI_SLENB*%
X66405000Y-37425000D03*
%TO.P,IDC1,39,Pin_39*%
%TO.N,C_D1*%
X63865000Y-34885000D03*
%TO.P,IDC1,40,Pin_40*%
%TO.N,C_D0*%
X63865000Y-37425000D03*
%TD*%
D16*
%TO.P,J1,1,Pin_1*%
%TO.N,\u002ASLENB*%
X81105000Y-51960000D03*
D17*
%TO.P,J1,2,Pin_2*%
%TO.N,\u002ANMI_SLENB*%
X78565000Y-51960000D03*
%TO.P,J1,3,Pin_3*%
%TO.N,\u002ANMI*%
X76025000Y-51960000D03*
%TD*%
D10*
%TO.P,R6,1*%
%TO.N,Vdd*%
X62830000Y-64870000D03*
D11*
%TO.P,R6,2*%
%TO.N,{slash}C_BUSDIR*%
X67910000Y-64870000D03*
%TD*%
D18*
%TO.N,Vdd*%
X65410000Y-43290000D03*
X65950000Y-46580000D03*
X100030000Y-57690000D03*
%TO.N,C_D7*%
X84139705Y-47260294D03*
X82915201Y-52064799D03*
%TO.N,\u002ASCS*%
X109050000Y-60724500D03*
%TO.N,\u002AHALT*%
X64755500Y-58450000D03*
%TO.N,\u002ARESET*%
X69930000Y-57780000D03*
X69700000Y-61030000D03*
X69095450Y-64034550D03*
%TO.N,Q*%
X70920000Y-64950000D03*
%TO.N,\u002ACART*%
X78697195Y-65254996D03*
X79500000Y-63940000D03*
%TO.N,D0*%
X73638695Y-66419500D03*
%TO.N,D2*%
X76457688Y-66402312D03*
%TO.N,D4*%
X78947299Y-66222701D03*
%TO.N,D6*%
X81687084Y-66217083D03*
%TO.N,A1*%
X85660000Y-59610000D03*
%TO.N,A3*%
X92360000Y-59710000D03*
%TO.N,A5*%
X94430000Y-59790000D03*
%TO.N,A7*%
X96260000Y-60010000D03*
%TO.N,A9*%
X99990000Y-60010000D03*
%TO.N,A11*%
X101430000Y-60840000D03*
%TO.N,\u002ACTS*%
X104090000Y-60740000D03*
%TO.N,A14*%
X111400000Y-60724500D03*
%TO.N,GNDREF*%
X84020000Y-59180000D03*
X104305000Y-66135000D03*
X106360000Y-60740000D03*
X88314500Y-58604085D03*
X107510000Y-58390000D03*
%TO.N,{slash}C_BUSDIR*%
X61940000Y-53410000D03*
%TD*%
D19*
%TO.N,Vdd*%
X65410000Y-43290000D02*
X63400000Y-41280000D01*
X62890000Y-64930000D02*
X64533604Y-64930000D01*
X89840000Y-54970000D02*
X86080000Y-58730000D01*
X71738909Y-66170000D02*
X72136396Y-66170000D01*
X65948604Y-66345000D02*
X71563909Y-66345000D01*
X71563909Y-66345000D02*
X71738909Y-66170000D01*
X100030000Y-56990000D02*
X101130000Y-55890000D01*
X101130000Y-55890000D02*
X101130000Y-54230000D01*
X64533604Y-64930000D02*
X65948604Y-66345000D01*
X86080000Y-58730000D02*
X86080000Y-58800000D01*
X70200000Y-46580000D02*
X65950000Y-46580000D01*
X84760000Y-63900000D02*
X85720000Y-64860000D01*
X100450000Y-53550000D02*
X100450000Y-51460000D01*
X71770000Y-49720000D02*
X71770000Y-48151396D01*
X70340000Y-46720000D02*
X70200000Y-46580000D01*
X73456396Y-64850000D02*
X75500000Y-64850000D01*
X62830000Y-64870000D02*
X62890000Y-64930000D01*
X86080000Y-58800000D02*
X85440000Y-58800000D01*
X63400000Y-41280000D02*
X62995000Y-41280000D01*
X72136396Y-66170000D02*
X73456396Y-64850000D01*
X70850000Y-47231396D02*
X70850000Y-47230000D01*
X87500000Y-60220000D02*
X86080000Y-58800000D01*
X100450000Y-51460000D02*
X100120000Y-51130000D01*
X71770000Y-48151396D02*
X70850000Y-47231396D01*
X70850000Y-47230000D02*
X70340000Y-46720000D01*
X85440000Y-58800000D02*
X84420000Y-59820000D01*
X73210000Y-51160000D02*
X71770000Y-49720000D01*
X84760000Y-63740000D02*
X84760000Y-63900000D01*
X84420000Y-59820000D02*
X84420000Y-63400000D01*
X89930000Y-64830000D02*
X87500000Y-62400000D01*
X100030000Y-57690000D02*
X100030000Y-56990000D01*
X87500000Y-62400000D02*
X87500000Y-60220000D01*
X101130000Y-54230000D02*
X100450000Y-53550000D01*
X84420000Y-63400000D02*
X84760000Y-63740000D01*
%TO.N,\u002AC_NMI_SLENB*%
X65060000Y-48425000D02*
X65535000Y-48900000D01*
X66710000Y-37730000D02*
X66710000Y-44080000D01*
X66710000Y-44080000D02*
X65060000Y-45730000D01*
X66405000Y-37425000D02*
X66710000Y-37730000D01*
X65060000Y-45730000D02*
X65060000Y-48425000D01*
%TO.N,\u002AC_CTS*%
X105870000Y-39485000D02*
X107625000Y-41240000D01*
X104505000Y-34885000D02*
X105870000Y-36250000D01*
X105870000Y-36250000D02*
X105870000Y-39485000D01*
%TO.N,\u002AC_HALT*%
X72030000Y-47775000D02*
X72030000Y-39100000D01*
X72030000Y-39100000D02*
X72820000Y-38310000D01*
X72809999Y-38320001D02*
X72809999Y-36100001D01*
X72840000Y-36070000D02*
X74025000Y-34885000D01*
X73155000Y-48900000D02*
X72030000Y-47775000D01*
X72809999Y-36100001D02*
X74025000Y-34885000D01*
%TO.N,C_A9*%
X101965000Y-34885000D02*
X103320000Y-36240000D01*
X103320000Y-36240000D02*
X103320000Y-40360000D01*
X102545000Y-41135000D02*
X102545000Y-41240000D01*
X103320000Y-40360000D02*
X102545000Y-41135000D01*
%TO.N,C_A10*%
X103890000Y-48180000D02*
X101510000Y-45800000D01*
X94345000Y-34885000D02*
X95619278Y-36159278D01*
X103890000Y-51930000D02*
X103890000Y-48180000D01*
X95619278Y-40343287D02*
X96340000Y-41064009D01*
X99553604Y-45620000D02*
X97710000Y-45620000D01*
X95619278Y-36159278D02*
X95619278Y-40343287D01*
X105080000Y-53120000D02*
X103890000Y-51930000D01*
X96340000Y-41064009D02*
X96340000Y-44250000D01*
X101510000Y-45800000D02*
X99733604Y-45800000D01*
X105080000Y-54970000D02*
X105080000Y-53120000D01*
X96340000Y-44250000D02*
X97710000Y-45620000D01*
X99733604Y-45800000D02*
X99553604Y-45620000D01*
%TO.N,C_A6*%
X100000000Y-54970000D02*
X100000000Y-53240000D01*
X91120000Y-43560000D02*
X91120000Y-38110000D01*
X94080000Y-46520000D02*
X91120000Y-43560000D01*
X98590000Y-51830000D02*
X98590000Y-48394009D01*
X98590000Y-48394009D02*
X96715991Y-46520000D01*
X91120000Y-38110000D02*
X91805000Y-37425000D01*
X96715991Y-46520000D02*
X94080000Y-46520000D01*
X100000000Y-53240000D02*
X98590000Y-51830000D01*
%TO.N,C_A8*%
X101470000Y-48280000D02*
X99260000Y-46070000D01*
X93800000Y-44310000D02*
X93800000Y-37970000D01*
X101420000Y-53850000D02*
X101420000Y-48330000D01*
X99260000Y-46070000D02*
X95560000Y-46070000D01*
X95560000Y-46070000D02*
X93800000Y-44310000D01*
X93800000Y-37970000D02*
X94345000Y-37425000D01*
X102540000Y-54970000D02*
X101420000Y-53850000D01*
X101420000Y-48330000D02*
X101470000Y-48280000D01*
%TO.N,C_A12*%
X107620000Y-54970000D02*
X108800000Y-53790000D01*
X98590000Y-44020000D02*
X98590000Y-39130000D01*
X98590000Y-39130000D02*
X96885000Y-37425000D01*
X99920000Y-45350000D02*
X98590000Y-44020000D01*
X108800000Y-47860000D02*
X106290000Y-45350000D01*
X106290000Y-45350000D02*
X99920000Y-45350000D01*
X108800000Y-53790000D02*
X108800000Y-47860000D01*
%TO.N,C_A2*%
X84185000Y-37425000D02*
X84680000Y-37920000D01*
X87880000Y-49334009D02*
X87880000Y-50650991D01*
X89739009Y-52510000D02*
X92460000Y-52510000D01*
X87880000Y-50650991D02*
X89739009Y-52510000D01*
X84680000Y-46134009D02*
X87880000Y-49334009D01*
X92460000Y-52510000D02*
X94920000Y-54970000D01*
X84680000Y-37920000D02*
X84680000Y-46134009D01*
%TO.N,C_A4*%
X92730000Y-47140000D02*
X87750000Y-42160000D01*
X96340000Y-48460000D02*
X95020000Y-47140000D01*
X96340000Y-49350000D02*
X96340000Y-48460000D01*
X95020000Y-47140000D02*
X92730000Y-47140000D01*
X97460000Y-54970000D02*
X97460000Y-50470000D01*
X86725000Y-38285000D02*
X86725000Y-37425000D01*
X87750000Y-42160000D02*
X87750000Y-39310000D01*
X87750000Y-39310000D02*
X86725000Y-38285000D01*
X97460000Y-50470000D02*
X96340000Y-49350000D01*
%TO.N,C_D7*%
X84690000Y-50290000D02*
X84690000Y-47810589D01*
X84690000Y-47810589D02*
X84139705Y-47260294D01*
X82915201Y-52064799D02*
X84690000Y-50290000D01*
%TO.N,\u002ASLENB*%
X82550000Y-53150000D02*
X81360000Y-51960000D01*
X113830000Y-63900000D02*
X113830000Y-61000000D01*
X112050000Y-59220000D02*
X96680000Y-59220000D01*
X111925000Y-71829000D02*
X111925000Y-65805000D01*
X93790000Y-54500000D02*
X92440000Y-53150000D01*
X111925000Y-65805000D02*
X113830000Y-63900000D01*
X81360000Y-51960000D02*
X81105000Y-51960000D01*
X92440000Y-53150000D02*
X82550000Y-53150000D01*
X96680000Y-59220000D02*
X93790000Y-56330000D01*
X113830000Y-61000000D02*
X112050000Y-59220000D01*
X93790000Y-56330000D02*
X93790000Y-54500000D01*
%TO.N,\u002ANMI_SLENB*%
X74431701Y-33630000D02*
X70650000Y-33630000D01*
X77028199Y-44998199D02*
X77028199Y-39549900D01*
X70650000Y-33630000D02*
X70160000Y-34120000D01*
X78565000Y-51960000D02*
X78565000Y-51045000D01*
X75320000Y-34518299D02*
X74431701Y-33630000D01*
X77028199Y-39549900D02*
X75320000Y-37841701D01*
X79480000Y-50130000D02*
X79480000Y-47450000D01*
X78565000Y-51045000D02*
X79480000Y-50130000D01*
X75320000Y-37841701D02*
X75320000Y-34518299D01*
X70160000Y-34120000D02*
X70160000Y-39195000D01*
X79480000Y-47450000D02*
X77028199Y-44998199D01*
X70160000Y-39195000D02*
X68075000Y-41280000D01*
%TO.N,\u002ASCS*%
X109025699Y-64635801D02*
X106845000Y-66816500D01*
X109025699Y-60748801D02*
X109025699Y-64635801D01*
X109050000Y-60724500D02*
X109025699Y-60748801D01*
X106845000Y-66816500D02*
X106845000Y-71829000D01*
%TO.N,\u002AHALT*%
X75695000Y-45875000D02*
X75695000Y-41280000D01*
X76890000Y-47070000D02*
X75695000Y-45875000D01*
X73350000Y-58790000D02*
X65095500Y-58790000D01*
X76200000Y-50050000D02*
X76890000Y-49360000D01*
X73920000Y-52340000D02*
X74409301Y-52829301D01*
X73920000Y-52340000D02*
X76200000Y-50060000D01*
X74409301Y-52829301D02*
X74409301Y-57730699D01*
X76890000Y-49360000D02*
X76890000Y-47070000D01*
X65095500Y-58790000D02*
X64755500Y-58450000D01*
X76200000Y-50060000D02*
X76200000Y-50050000D01*
X74409301Y-57730699D02*
X73350000Y-58790000D01*
%TO.N,\u002ANMI*%
X63440000Y-59780000D02*
X73190000Y-59780000D01*
X66205000Y-71829000D02*
X66205000Y-67334222D01*
X62550000Y-66300000D02*
X61467821Y-65217821D01*
X66205000Y-67334222D02*
X65170778Y-66300000D01*
X61467821Y-61752179D02*
X63440000Y-59780000D01*
X76740000Y-52675000D02*
X76025000Y-51960000D01*
X65170778Y-66300000D02*
X62550000Y-66300000D01*
X76740000Y-56230000D02*
X76740000Y-52675000D01*
X61467821Y-65217821D02*
X61467821Y-61752179D01*
X73190000Y-59780000D02*
X76740000Y-56230000D01*
%TO.N,\u002ARESET*%
X69155000Y-63975000D02*
X69155000Y-61575000D01*
X69240000Y-50126201D02*
X68075000Y-48961201D01*
X68075000Y-48961201D02*
X68075000Y-48900000D01*
X69240000Y-57090000D02*
X69930000Y-57780000D01*
X69155000Y-61575000D02*
X69700000Y-61030000D01*
X69095450Y-64034550D02*
X69155000Y-63975000D01*
X69240000Y-54120000D02*
X69240000Y-50126201D01*
X69240000Y-54120000D02*
X69240000Y-57090000D01*
%TO.N,Q*%
X78235000Y-48900000D02*
X77230000Y-49905000D01*
X71875000Y-61875000D02*
X71875000Y-63375000D01*
X74870000Y-60130000D02*
X73620000Y-60130000D01*
X71875000Y-63375000D02*
X70920000Y-64330000D01*
X77230000Y-52630000D02*
X77320992Y-52630000D01*
X73620000Y-60130000D02*
X71875000Y-61875000D01*
X70920000Y-64330000D02*
X70920000Y-64950000D01*
X77320992Y-52630000D02*
X79290000Y-54599009D01*
X79290000Y-54599009D02*
X79290000Y-55710000D01*
X79290000Y-55710000D02*
X74870000Y-60130000D01*
X77230000Y-49905000D02*
X77230000Y-52630000D01*
%TO.N,\u002ACART*%
X76174695Y-65660000D02*
X78292191Y-65660000D01*
X81970000Y-54530000D02*
X80970000Y-53530000D01*
X72322792Y-66620000D02*
X73247792Y-65695000D01*
X74505000Y-65695000D02*
X74900000Y-66090000D01*
X75744695Y-66090000D02*
X76174695Y-65660000D01*
X80680000Y-50190000D02*
X81480000Y-50190000D01*
X73247792Y-65695000D02*
X74505000Y-65695000D01*
X79800000Y-51070000D02*
X80680000Y-50190000D01*
X81270000Y-63820000D02*
X81900000Y-63190000D01*
X82190000Y-45970000D02*
X79640000Y-43420000D01*
X81480000Y-50190000D02*
X82190000Y-49480000D01*
X71925305Y-66620000D02*
X72322792Y-66620000D01*
X81900000Y-63190000D02*
X81900000Y-60274695D01*
X81900000Y-60274695D02*
X81970000Y-60204695D01*
X79640000Y-42685000D02*
X78235000Y-41280000D01*
X79640000Y-43420000D02*
X79640000Y-42685000D01*
X80970000Y-53530000D02*
X80143556Y-53530000D01*
X71285000Y-67260305D02*
X71925305Y-66620000D01*
X81970000Y-60204695D02*
X81970000Y-54530000D01*
X74900000Y-66090000D02*
X75744695Y-66090000D01*
X78292191Y-65660000D02*
X78697195Y-65254996D01*
X79800000Y-53186444D02*
X79800000Y-51070000D01*
X82190000Y-49480000D02*
X82190000Y-45970000D01*
X80143556Y-53530000D02*
X79800000Y-53186444D01*
X71285000Y-71829000D02*
X71285000Y-67260305D01*
X79620000Y-63820000D02*
X81270000Y-63820000D01*
%TO.N,D0*%
X73825000Y-66605805D02*
X73638695Y-66419500D01*
X73825000Y-71829000D02*
X73825000Y-66605805D01*
%TO.N,D2*%
X76457688Y-66402312D02*
X76457688Y-66723812D01*
X76457688Y-66723812D02*
X76365000Y-66816500D01*
X76365000Y-66816500D02*
X76365000Y-71829000D01*
%TO.N,D4*%
X78905000Y-66265000D02*
X78905000Y-71829000D01*
X78947299Y-66222701D02*
X78905000Y-66265000D01*
%TO.N,D6*%
X81445000Y-66816500D02*
X81445000Y-71829000D01*
X81687084Y-66217083D02*
X81687084Y-66574416D01*
X81687084Y-66574416D02*
X81445000Y-66816500D01*
%TO.N,A1*%
X87050000Y-62190000D02*
X87050000Y-62586396D01*
X87460000Y-62996396D02*
X87460000Y-66040000D01*
X85660000Y-59610000D02*
X85660000Y-60800000D01*
X87050000Y-62586396D02*
X87460000Y-62996396D01*
X85660000Y-60800000D02*
X87050000Y-62190000D01*
X86525000Y-66975000D02*
X86525000Y-71829000D01*
X87460000Y-66040000D02*
X86525000Y-66975000D01*
%TO.N,A3*%
X91250000Y-65470000D02*
X90885000Y-65835000D01*
X92360000Y-59710000D02*
X91250000Y-60820000D01*
X91250000Y-60820000D02*
X91250000Y-65470000D01*
X90360000Y-66360000D02*
X90885000Y-65835000D01*
X89065000Y-66816500D02*
X89521500Y-66360000D01*
X89065000Y-71829000D02*
X89065000Y-66816500D01*
X89521500Y-66360000D02*
X90360000Y-66360000D01*
%TO.N,A5*%
X93706410Y-60513590D02*
X93706410Y-65753590D01*
X91605000Y-66795000D02*
X91605000Y-71829000D01*
X94430000Y-59790000D02*
X93706410Y-60513590D01*
X93706410Y-65753590D02*
X93000000Y-66460000D01*
X91940000Y-66460000D02*
X91605000Y-66795000D01*
X93000000Y-66460000D02*
X91940000Y-66460000D01*
%TO.N,A7*%
X96280000Y-65199222D02*
X94145000Y-67334222D01*
X94145000Y-67334222D02*
X94145000Y-71829000D01*
X96260000Y-60010000D02*
X96280000Y-60030000D01*
X96280000Y-60030000D02*
X96280000Y-65199222D01*
%TO.N,A9*%
X96685000Y-66715000D02*
X96685000Y-71829000D01*
X98830000Y-61170000D02*
X98830000Y-64570000D01*
X98830000Y-64570000D02*
X96685000Y-66715000D01*
X99990000Y-60010000D02*
X98830000Y-61170000D01*
%TO.N,A11*%
X101400000Y-60870000D02*
X101400000Y-65280000D01*
X101430000Y-60840000D02*
X101400000Y-60870000D01*
X99681500Y-66360000D02*
X99225000Y-66816500D01*
X100320000Y-66360000D02*
X99681500Y-66360000D01*
X101400000Y-65280000D02*
X100320000Y-66360000D01*
X99225000Y-66816500D02*
X99225000Y-71829000D01*
%TO.N,\u002ACTS*%
X101765000Y-67225000D02*
X101765000Y-71829000D01*
X103925699Y-65064301D02*
X101765000Y-67225000D01*
X103925699Y-60904301D02*
X103925699Y-65064301D01*
X104090000Y-60740000D02*
X103925699Y-60904301D01*
%TO.N,A14*%
X109385000Y-66816500D02*
X109385000Y-71829000D01*
X111390000Y-60734500D02*
X111390000Y-64811500D01*
X111390000Y-64811500D02*
X109385000Y-66816500D01*
X111400000Y-60724500D02*
X111390000Y-60734500D01*
%TO.N,GNDREF*%
X106360000Y-60740000D02*
X106330000Y-60770000D01*
X61610000Y-34360000D02*
X61610000Y-39220000D01*
X86270000Y-66190000D02*
X84090000Y-66190000D01*
X88314500Y-58604085D02*
X88745915Y-58604085D01*
X101413199Y-39413199D02*
X101413199Y-42356801D01*
X79490000Y-41585991D02*
X85855000Y-47950991D01*
X111920000Y-60000000D02*
X107100000Y-60000000D01*
X64480000Y-52620000D02*
X65110000Y-51990000D01*
X84020000Y-59130000D02*
X84020000Y-59180000D01*
X104305000Y-65525000D02*
X104305000Y-66135000D01*
X97450000Y-33650000D02*
X98250000Y-34450000D01*
X76565000Y-37425000D02*
X79390000Y-40250000D01*
X77890000Y-34410000D02*
X76460000Y-32980000D01*
X65120000Y-51990000D02*
X65440000Y-51670000D01*
X61610000Y-51900000D02*
X62330000Y-52620000D01*
X108745000Y-44900000D02*
X112705000Y-48860000D01*
X91180000Y-53770000D02*
X89380000Y-53770000D01*
X65535000Y-41280000D02*
X63815000Y-39560000D01*
X86980000Y-63880000D02*
X86980000Y-65480000D01*
X101413199Y-42356801D02*
X103956398Y-44900000D01*
X61610000Y-39220000D02*
X61610000Y-51900000D01*
X83220000Y-65320000D02*
X83220000Y-64860000D01*
X92980000Y-34270000D02*
X93600000Y-33650000D01*
X61950000Y-39560000D02*
X61610000Y-39220000D01*
X79390000Y-40250000D02*
X79430000Y-40250000D01*
X92980000Y-40645000D02*
X92980000Y-34270000D01*
X112700000Y-60780000D02*
X111920000Y-60000000D01*
X101413199Y-39413199D02*
X99425000Y-37425000D01*
X98250000Y-36250000D02*
X99425000Y-37425000D01*
X89380000Y-53770000D02*
X84020000Y-59130000D01*
X76460000Y-32980000D02*
X62990000Y-32980000D01*
X104305000Y-66135000D02*
X104305000Y-71829000D01*
X111400000Y-54770000D02*
X111400000Y-55320991D01*
X65440000Y-51670000D02*
X65440000Y-51170000D01*
X79490000Y-40310000D02*
X79490000Y-41585991D01*
X111400000Y-55320991D02*
X108330991Y-58390000D01*
X63815000Y-39560000D02*
X61950000Y-39560000D01*
X86980000Y-65480000D02*
X86270000Y-66190000D01*
X106330000Y-63500000D02*
X104305000Y-65525000D01*
X112705000Y-53275000D02*
X111400000Y-54580000D01*
X62330000Y-52620000D02*
X64480000Y-52620000D01*
X77890000Y-36100000D02*
X77890000Y-34410000D01*
X93600000Y-33650000D02*
X97450000Y-33650000D01*
X85855000Y-47950991D02*
X85855000Y-48900000D01*
X92380000Y-54970000D02*
X91180000Y-53770000D01*
X88745915Y-58604085D02*
X92380000Y-54970000D01*
X77140000Y-33660000D02*
X76460000Y-32980000D01*
X107100000Y-60000000D02*
X106360000Y-60740000D01*
X79430000Y-40250000D02*
X79490000Y-40310000D01*
X65110000Y-51990000D02*
X65120000Y-51990000D01*
X106330000Y-60770000D02*
X106330000Y-63500000D01*
X92370000Y-33660000D02*
X77140000Y-33660000D01*
X103956398Y-44900000D02*
X108745000Y-44900000D01*
X62990000Y-32980000D02*
X61610000Y-34360000D01*
X76565000Y-37425000D02*
X77890000Y-36100000D01*
X85700000Y-62600000D02*
X86980000Y-63880000D01*
X112705000Y-48860000D02*
X112705000Y-53275000D01*
X98250000Y-34450000D02*
X98250000Y-36250000D01*
X92385000Y-41240000D02*
X92980000Y-40645000D01*
X112700000Y-62590000D02*
X112700000Y-60780000D01*
X84090000Y-66190000D02*
X83220000Y-65320000D01*
X92980000Y-34270000D02*
X92370000Y-33660000D01*
X111400000Y-54580000D02*
X111400000Y-54770000D01*
X108330991Y-58390000D02*
X107510000Y-58390000D01*
%TO.N,Net-(R3-Pad2)*%
X93610000Y-48230000D02*
X93610000Y-49700000D01*
X92970000Y-47590000D02*
X93610000Y-48230000D01*
X93610000Y-49700000D02*
X95040000Y-51130000D01*
X89845000Y-48860000D02*
X91115000Y-47590000D01*
X91115000Y-47590000D02*
X92970000Y-47590000D01*
%TO.N,Net-(R4-Pad2)*%
X62995000Y-48900000D02*
X64135000Y-50040000D01*
X67350000Y-51160000D02*
X68130000Y-51160000D01*
X64135000Y-50040000D02*
X66230000Y-50040000D01*
X66230000Y-50040000D02*
X67350000Y-51160000D01*
%TO.N,{slash}C_BUSDIR*%
X63960000Y-56400000D02*
X62370000Y-56400000D01*
X62370000Y-56400000D02*
X61690000Y-55720000D01*
X61690000Y-53660000D02*
X61690000Y-55720000D01*
X65380000Y-54980000D02*
X63960000Y-56400000D01*
X61940000Y-53410000D02*
X61690000Y-53660000D01*
%TO.N,\u002AC_SCS*%
X108410000Y-36060000D02*
X108410000Y-39485000D01*
X109585000Y-34885000D02*
X108410000Y-36060000D01*
X108410000Y-39485000D02*
X110165000Y-41240000D01*
%TO.N,Net-(P1-Pad18)*%
X71377513Y-65895000D02*
X66135000Y-65895000D01*
X71552513Y-65720000D02*
X71377513Y-65895000D01*
X76879996Y-64529996D02*
X76175000Y-63825000D01*
X79317504Y-64850000D02*
X78997500Y-64529996D01*
X78997500Y-64529996D02*
X76879996Y-64529996D01*
X80580000Y-64850000D02*
X79317504Y-64850000D01*
X82605306Y-66110000D02*
X83180000Y-66110000D01*
X80580000Y-64850000D02*
X81345306Y-64850000D01*
X73845000Y-63825000D02*
X71950000Y-65720000D01*
X83180000Y-66110000D02*
X83886500Y-66816500D01*
X71950000Y-65720000D02*
X71552513Y-65720000D01*
X76175000Y-63825000D02*
X73845000Y-63825000D01*
X66135000Y-65895000D02*
X62840000Y-62600000D01*
X81345306Y-64850000D02*
X82605306Y-66110000D01*
X83886500Y-66816500D02*
X83886500Y-71730500D01*
X83886500Y-71730500D02*
X83985000Y-71829000D01*
%TO.N,\u002AC_CART*%
X75060000Y-48340000D02*
X75060000Y-48390000D01*
X74560000Y-40810000D02*
X74025000Y-40275000D01*
X74025000Y-40275000D02*
X74025000Y-37425000D01*
X74560000Y-47765000D02*
X75695000Y-48900000D01*
X74560000Y-40810000D02*
X74560000Y-47765000D01*
%TD*%
%TA.AperFunction,Conductor*%
%TO.N,GNDREF*%
G36*
X83264032Y-64560924D02*
G01*
X83309095Y-64589885D01*
X84294287Y-65575077D01*
X84306062Y-65581507D01*
X84318077Y-65572211D01*
X84353934Y-65521002D01*
X84360591Y-65509472D01*
X84411973Y-65460479D01*
X84481687Y-65447042D01*
X84547598Y-65473429D01*
X84578829Y-65509472D01*
X84580153Y-65511765D01*
X84582477Y-65516749D01*
X84615895Y-65564475D01*
X84708431Y-65696629D01*
X84713802Y-65704300D01*
X84875700Y-65866198D01*
X84880208Y-65869355D01*
X84880211Y-65869357D01*
X84890377Y-65876475D01*
X85063251Y-65997523D01*
X85068233Y-65999846D01*
X85068238Y-65999849D01*
X85240264Y-66080065D01*
X85270757Y-66094284D01*
X85276065Y-66095706D01*
X85276067Y-66095707D01*
X85486598Y-66152119D01*
X85486600Y-66152119D01*
X85491913Y-66153543D01*
X85720000Y-66173498D01*
X85948087Y-66153543D01*
X85953400Y-66152119D01*
X85953402Y-66152119D01*
X86163929Y-66095708D01*
X86163932Y-66095707D01*
X86169243Y-66094284D01*
X86172141Y-66092933D01*
X86242283Y-66088475D01*
X86304324Y-66122992D01*
X86337854Y-66185572D01*
X86332228Y-66256346D01*
X86303620Y-66300474D01*
X86132742Y-66471352D01*
X86124462Y-66478887D01*
X86117982Y-66483000D01*
X86112554Y-66488780D01*
X86112553Y-66488781D01*
X86084877Y-66518253D01*
X86023664Y-66554219D01*
X85993027Y-66558000D01*
X85841866Y-66558000D01*
X85779684Y-66564755D01*
X85643295Y-66615885D01*
X85603537Y-66645682D01*
X85537034Y-66670529D01*
X85528031Y-66670855D01*
X85268672Y-66670952D01*
X84982347Y-66671060D01*
X84914219Y-66651084D01*
X84906735Y-66645886D01*
X84866705Y-66615885D01*
X84730316Y-66564755D01*
X84668134Y-66558000D01*
X84545938Y-66558000D01*
X84477817Y-66537998D01*
X84444001Y-66506060D01*
X84420064Y-66473113D01*
X84413548Y-66463193D01*
X84395080Y-66431965D01*
X84395078Y-66431962D01*
X84391042Y-66425138D01*
X84376721Y-66410817D01*
X84363880Y-66395783D01*
X84356632Y-66385807D01*
X84351972Y-66379393D01*
X84317907Y-66351212D01*
X84309126Y-66343222D01*
X83982376Y-66016471D01*
X83963185Y-65981325D01*
X83960266Y-65982859D01*
X83934356Y-65933566D01*
X82949885Y-64949095D01*
X82915859Y-64886783D01*
X82920924Y-64815968D01*
X82949885Y-64770905D01*
X83130905Y-64589885D01*
X83193217Y-64555859D01*
X83264032Y-64560924D01*
G37*
%TD.AperFunction*%
%TA.AperFunction,Conductor*%
G36*
X106418959Y-63155339D02*
G01*
X106464195Y-63207543D01*
X106480151Y-63241762D01*
X106480154Y-63241767D01*
X106482477Y-63246749D01*
X106492636Y-63261257D01*
X106608342Y-63426502D01*
X106613802Y-63434300D01*
X106775700Y-63596198D01*
X106780208Y-63599355D01*
X106780211Y-63599357D01*
X106827689Y-63632601D01*
X106963251Y-63727523D01*
X106968233Y-63729846D01*
X106968238Y-63729849D01*
X107162593Y-63820477D01*
X107170757Y-63824284D01*
X107176065Y-63825706D01*
X107176067Y-63825707D01*
X107386598Y-63882119D01*
X107386600Y-63882119D01*
X107391913Y-63883543D01*
X107620000Y-63903498D01*
X107848087Y-63883543D01*
X107853400Y-63882119D01*
X107853402Y-63882119D01*
X108063933Y-63825707D01*
X108063935Y-63825706D01*
X108069243Y-63824284D01*
X108095990Y-63811812D01*
X108173664Y-63775592D01*
X108212950Y-63757273D01*
X108283141Y-63746612D01*
X108347954Y-63775592D01*
X108386810Y-63835012D01*
X108392199Y-63871468D01*
X108392199Y-64321207D01*
X108372197Y-64389328D01*
X108355294Y-64410302D01*
X107402646Y-65362949D01*
X106452747Y-66312848D01*
X106444461Y-66320388D01*
X106437982Y-66324500D01*
X106432557Y-66330277D01*
X106391357Y-66374151D01*
X106388602Y-66376993D01*
X106368865Y-66396730D01*
X106366385Y-66399927D01*
X106358682Y-66408947D01*
X106328414Y-66441179D01*
X106324595Y-66448125D01*
X106324593Y-66448128D01*
X106318652Y-66458934D01*
X106307801Y-66475453D01*
X106295386Y-66491459D01*
X106293082Y-66496783D01*
X106241881Y-66544591D01*
X106185319Y-66558000D01*
X106161866Y-66558000D01*
X106099684Y-66564755D01*
X105963295Y-66615885D01*
X105956114Y-66621267D01*
X105956112Y-66621268D01*
X105933765Y-66638016D01*
X105867259Y-66662865D01*
X105858271Y-66663190D01*
X105291297Y-66663404D01*
X105223170Y-66643428D01*
X105215686Y-66638230D01*
X105193649Y-66621714D01*
X105178054Y-66613176D01*
X105057606Y-66568022D01*
X105042351Y-66564395D01*
X104991486Y-66558869D01*
X104984672Y-66558500D01*
X104577115Y-66558500D01*
X104561876Y-66562975D01*
X104560671Y-66564365D01*
X104559000Y-66572048D01*
X104559000Y-66663680D01*
X104051000Y-66663871D01*
X104051000Y-66576616D01*
X104046525Y-66561377D01*
X104045135Y-66560172D01*
X104037452Y-66558501D01*
X103631593Y-66558501D01*
X103563472Y-66538499D01*
X103516979Y-66484843D01*
X103506875Y-66414569D01*
X103536369Y-66349989D01*
X103542479Y-66343425D01*
X104317963Y-65567942D01*
X104326237Y-65560413D01*
X104332717Y-65556301D01*
X104340414Y-65548105D01*
X104379342Y-65506650D01*
X104382097Y-65503808D01*
X104401834Y-65484071D01*
X104404314Y-65480874D01*
X104412019Y-65471852D01*
X104436858Y-65445401D01*
X104442285Y-65439622D01*
X104446104Y-65432676D01*
X104446106Y-65432673D01*
X104452047Y-65421867D01*
X104462898Y-65405348D01*
X104470457Y-65395602D01*
X104475313Y-65389342D01*
X104478458Y-65382073D01*
X104478461Y-65382069D01*
X104492873Y-65348764D01*
X104498090Y-65338114D01*
X104519394Y-65299361D01*
X104524432Y-65279738D01*
X104530836Y-65261035D01*
X104535732Y-65249721D01*
X104535732Y-65249720D01*
X104538880Y-65242446D01*
X104540119Y-65234623D01*
X104540122Y-65234613D01*
X104545798Y-65198777D01*
X104548204Y-65187157D01*
X104557227Y-65152012D01*
X104557227Y-65152011D01*
X104559199Y-65144331D01*
X104559199Y-65124077D01*
X104560750Y-65104366D01*
X104562679Y-65092187D01*
X104563919Y-65084358D01*
X104559758Y-65040339D01*
X104559199Y-65028482D01*
X104559199Y-63969317D01*
X104579201Y-63901196D01*
X104632857Y-63854703D01*
X104703131Y-63844599D01*
X104717810Y-63847610D01*
X104846598Y-63882119D01*
X104846600Y-63882119D01*
X104851913Y-63883543D01*
X105080000Y-63903498D01*
X105308087Y-63883543D01*
X105313400Y-63882119D01*
X105313402Y-63882119D01*
X105523933Y-63825707D01*
X105523935Y-63825706D01*
X105529243Y-63824284D01*
X105537407Y-63820477D01*
X105731762Y-63729849D01*
X105731767Y-63729846D01*
X105736749Y-63727523D01*
X105872311Y-63632601D01*
X105919789Y-63599357D01*
X105919792Y-63599355D01*
X105924300Y-63596198D01*
X106086198Y-63434300D01*
X106091659Y-63426502D01*
X106207364Y-63261257D01*
X106217523Y-63246749D01*
X106219846Y-63241767D01*
X106219849Y-63241762D01*
X106235805Y-63207543D01*
X106282722Y-63154258D01*
X106350999Y-63134797D01*
X106418959Y-63155339D01*
G37*
%TD.AperFunction*%
%TA.AperFunction,Conductor*%
G36*
X112507583Y-60576243D02*
G01*
X112524571Y-60590475D01*
X113028340Y-61094244D01*
X113062366Y-61156556D01*
X113057301Y-61227371D01*
X113014754Y-61284207D01*
X112968657Y-61300161D01*
X112958102Y-61307305D01*
X112954000Y-61316884D01*
X112954000Y-63827905D01*
X112933998Y-63896026D01*
X112917096Y-63917000D01*
X112575158Y-64258937D01*
X112238595Y-64595500D01*
X112176283Y-64629525D01*
X112105467Y-64624460D01*
X112048632Y-64581913D01*
X112023821Y-64515393D01*
X112023500Y-64506404D01*
X112023500Y-63915542D01*
X112043502Y-63847421D01*
X112097158Y-63800928D01*
X112167432Y-63790824D01*
X112202749Y-63801347D01*
X112245942Y-63821488D01*
X112256239Y-63825236D01*
X112428503Y-63871394D01*
X112442599Y-63871058D01*
X112446000Y-63863116D01*
X112446000Y-61322033D01*
X112442027Y-61308502D01*
X112433478Y-61307273D01*
X112347678Y-61330263D01*
X112276701Y-61328573D01*
X112217906Y-61288779D01*
X112189958Y-61223514D01*
X112201732Y-61153501D01*
X112205948Y-61145556D01*
X112231223Y-61101779D01*
X112231224Y-61101778D01*
X112234527Y-61096056D01*
X112293542Y-60914428D01*
X112295532Y-60895500D01*
X112312814Y-60731065D01*
X112313504Y-60724500D01*
X112310166Y-60692740D01*
X112322938Y-60622902D01*
X112371440Y-60571055D01*
X112440273Y-60553661D01*
X112507583Y-60576243D01*
G37*
%TD.AperFunction*%
%TA.AperFunction,Conductor*%
G36*
X92576121Y-54736002D02*
G01*
X92622614Y-54789658D01*
X92634000Y-54842000D01*
X92634000Y-56237967D01*
X92637973Y-56251498D01*
X92646522Y-56252727D01*
X92823761Y-56205236D01*
X92834053Y-56201490D01*
X92977250Y-56134716D01*
X93047442Y-56124055D01*
X93112254Y-56153035D01*
X93151111Y-56212455D01*
X93156500Y-56248911D01*
X93156500Y-56251233D01*
X93155973Y-56262416D01*
X93154298Y-56269909D01*
X93154547Y-56277835D01*
X93154547Y-56277836D01*
X93156438Y-56337986D01*
X93156500Y-56341945D01*
X93156500Y-56369856D01*
X93156997Y-56373790D01*
X93156997Y-56373791D01*
X93157005Y-56373856D01*
X93157938Y-56385693D01*
X93159327Y-56429889D01*
X93164978Y-56449339D01*
X93168987Y-56468700D01*
X93171526Y-56488797D01*
X93174445Y-56496168D01*
X93174445Y-56496170D01*
X93187804Y-56529912D01*
X93191649Y-56541142D01*
X93199285Y-56567426D01*
X93203982Y-56583593D01*
X93208015Y-56590412D01*
X93208017Y-56590417D01*
X93214293Y-56601028D01*
X93222988Y-56618776D01*
X93230448Y-56637617D01*
X93235110Y-56644033D01*
X93235110Y-56644034D01*
X93256436Y-56673387D01*
X93262952Y-56683307D01*
X93285458Y-56721362D01*
X93299779Y-56735683D01*
X93312619Y-56750716D01*
X93324528Y-56767107D01*
X93333540Y-56774562D01*
X93358605Y-56795298D01*
X93367384Y-56803288D01*
X95687191Y-59123095D01*
X95721217Y-59185407D01*
X95716152Y-59256222D01*
X95672157Y-59314126D01*
X95648747Y-59331134D01*
X95644326Y-59336044D01*
X95644325Y-59336045D01*
X95579429Y-59408120D01*
X95520960Y-59473056D01*
X95511929Y-59488699D01*
X95509728Y-59492511D01*
X95458347Y-59541505D01*
X95388633Y-59554943D01*
X95322722Y-59528557D01*
X95280775Y-59468450D01*
X95273051Y-59444679D01*
X95264527Y-59418444D01*
X95258567Y-59408120D01*
X95208058Y-59320637D01*
X95169040Y-59253056D01*
X95143877Y-59225109D01*
X95045675Y-59116045D01*
X95045674Y-59116044D01*
X95041253Y-59111134D01*
X94931143Y-59031134D01*
X94892094Y-59002763D01*
X94892093Y-59002762D01*
X94886752Y-58998882D01*
X94880724Y-58996198D01*
X94880722Y-58996197D01*
X94718319Y-58923891D01*
X94718318Y-58923891D01*
X94712288Y-58921206D01*
X94618887Y-58901353D01*
X94531944Y-58882872D01*
X94531939Y-58882872D01*
X94525487Y-58881500D01*
X94334513Y-58881500D01*
X94328061Y-58882872D01*
X94328056Y-58882872D01*
X94241113Y-58901353D01*
X94147712Y-58921206D01*
X94141682Y-58923891D01*
X94141681Y-58923891D01*
X93979278Y-58996197D01*
X93979276Y-58996198D01*
X93973248Y-58998882D01*
X93967907Y-59002762D01*
X93967906Y-59002763D01*
X93928857Y-59031134D01*
X93818747Y-59111134D01*
X93814326Y-59116044D01*
X93814325Y-59116045D01*
X93716124Y-59225109D01*
X93690960Y-59253056D01*
X93651942Y-59320637D01*
X93601434Y-59408120D01*
X93595473Y-59418444D01*
X93536458Y-59600072D01*
X93535768Y-59606633D01*
X93535768Y-59606635D01*
X93524124Y-59717424D01*
X93497111Y-59783081D01*
X93438889Y-59823711D01*
X93367944Y-59826414D01*
X93306800Y-59790332D01*
X93274870Y-59726921D01*
X93273413Y-59710862D01*
X93273504Y-59710000D01*
X93271548Y-59691389D01*
X93254232Y-59526635D01*
X93254232Y-59526633D01*
X93253542Y-59520072D01*
X93194527Y-59338444D01*
X93185376Y-59322593D01*
X93141401Y-59246427D01*
X93099040Y-59173056D01*
X93088659Y-59161526D01*
X92975675Y-59036045D01*
X92975674Y-59036044D01*
X92971253Y-59031134D01*
X92869905Y-58957500D01*
X92822094Y-58922763D01*
X92822093Y-58922762D01*
X92816752Y-58918882D01*
X92810724Y-58916198D01*
X92810722Y-58916197D01*
X92648319Y-58843891D01*
X92648318Y-58843891D01*
X92642288Y-58841206D01*
X92537667Y-58818968D01*
X92461944Y-58802872D01*
X92461939Y-58802872D01*
X92455487Y-58801500D01*
X92264513Y-58801500D01*
X92258061Y-58802872D01*
X92258056Y-58802872D01*
X92182333Y-58818968D01*
X92077712Y-58841206D01*
X92071682Y-58843891D01*
X92071681Y-58843891D01*
X91909278Y-58916197D01*
X91909276Y-58916198D01*
X91903248Y-58918882D01*
X91897907Y-58922762D01*
X91897906Y-58922763D01*
X91850095Y-58957500D01*
X91748747Y-59031134D01*
X91744326Y-59036044D01*
X91744325Y-59036045D01*
X91631342Y-59161526D01*
X91620960Y-59173056D01*
X91578599Y-59246427D01*
X91534625Y-59322593D01*
X91525473Y-59338444D01*
X91466458Y-59520072D01*
X91465768Y-59526633D01*
X91465768Y-59526635D01*
X91449093Y-59685292D01*
X91422080Y-59750949D01*
X91412879Y-59761217D01*
X91134460Y-60039635D01*
X90857742Y-60316353D01*
X90849463Y-60323887D01*
X90842982Y-60328000D01*
X90810377Y-60362721D01*
X90796357Y-60377651D01*
X90793602Y-60380493D01*
X90773865Y-60400230D01*
X90771385Y-60403427D01*
X90763682Y-60412447D01*
X90733414Y-60444679D01*
X90729595Y-60451625D01*
X90729593Y-60451628D01*
X90723652Y-60462434D01*
X90712801Y-60478953D01*
X90700386Y-60494959D01*
X90697241Y-60502228D01*
X90697238Y-60502232D01*
X90682826Y-60535537D01*
X90677609Y-60546187D01*
X90656305Y-60584940D01*
X90654334Y-60592615D01*
X90654334Y-60592616D01*
X90651267Y-60604562D01*
X90644863Y-60623266D01*
X90639984Y-60634542D01*
X90636819Y-60641855D01*
X90635580Y-60649678D01*
X90635577Y-60649688D01*
X90629901Y-60685524D01*
X90627495Y-60697144D01*
X90622157Y-60717935D01*
X90616500Y-60739970D01*
X90616500Y-60760224D01*
X90614949Y-60779934D01*
X90611780Y-60799943D01*
X90612526Y-60807835D01*
X90615941Y-60843961D01*
X90616500Y-60855819D01*
X90616500Y-61155500D01*
X90596498Y-61223621D01*
X90542842Y-61270114D01*
X90490500Y-61281500D01*
X88991866Y-61281500D01*
X88929684Y-61288255D01*
X88793295Y-61339385D01*
X88676739Y-61426739D01*
X88589385Y-61543295D01*
X88538255Y-61679684D01*
X88531500Y-61741866D01*
X88531500Y-62231405D01*
X88511498Y-62299526D01*
X88457842Y-62346019D01*
X88387568Y-62356123D01*
X88322988Y-62326629D01*
X88316405Y-62320500D01*
X88170405Y-62174500D01*
X88136379Y-62112188D01*
X88133500Y-62085405D01*
X88133500Y-60298767D01*
X88134027Y-60287584D01*
X88135702Y-60280091D01*
X88133562Y-60212014D01*
X88133500Y-60208055D01*
X88133500Y-60180144D01*
X88132995Y-60176144D01*
X88132062Y-60164301D01*
X88131963Y-60161134D01*
X88130673Y-60120110D01*
X88125022Y-60100658D01*
X88121014Y-60081306D01*
X88119467Y-60069063D01*
X88118474Y-60061203D01*
X88112310Y-60045634D01*
X88102200Y-60020097D01*
X88098355Y-60008870D01*
X88094188Y-59994527D01*
X88086018Y-59966407D01*
X88081984Y-59959585D01*
X88081981Y-59959579D01*
X88075706Y-59948968D01*
X88067010Y-59931218D01*
X88062472Y-59919756D01*
X88062469Y-59919751D01*
X88059552Y-59912383D01*
X88033573Y-59876625D01*
X88027057Y-59866707D01*
X88016005Y-59848019D01*
X88004542Y-59828637D01*
X87990218Y-59814313D01*
X87977376Y-59799278D01*
X87972171Y-59792114D01*
X87965472Y-59782893D01*
X87931406Y-59754711D01*
X87922627Y-59746722D01*
X87030000Y-58854095D01*
X86995974Y-58791783D01*
X87001039Y-58720968D01*
X87030000Y-58675905D01*
X89426752Y-56279152D01*
X89489064Y-56245127D01*
X89548459Y-56246541D01*
X89606591Y-56262118D01*
X89606602Y-56262120D01*
X89611913Y-56263543D01*
X89840000Y-56283498D01*
X90068087Y-56263543D01*
X90073400Y-56262119D01*
X90073402Y-56262119D01*
X90283933Y-56205707D01*
X90283935Y-56205706D01*
X90289243Y-56204284D01*
X90315754Y-56191922D01*
X90491762Y-56109849D01*
X90491767Y-56109846D01*
X90496749Y-56107523D01*
X90670019Y-55986198D01*
X90679789Y-55979357D01*
X90679792Y-55979355D01*
X90684300Y-55976198D01*
X90846198Y-55814300D01*
X90977523Y-55626749D01*
X90979846Y-55621767D01*
X90979849Y-55621762D01*
X90996081Y-55586951D01*
X91042998Y-55533666D01*
X91111275Y-55514205D01*
X91179235Y-55534747D01*
X91224471Y-55586951D01*
X91240586Y-55621511D01*
X91246069Y-55631007D01*
X91371028Y-55809467D01*
X91378084Y-55817875D01*
X91532125Y-55971916D01*
X91540533Y-55978972D01*
X91718993Y-56103931D01*
X91728489Y-56109414D01*
X91925947Y-56201490D01*
X91936239Y-56205236D01*
X92108503Y-56251394D01*
X92122599Y-56251058D01*
X92126000Y-56243116D01*
X92126000Y-54842000D01*
X92146002Y-54773879D01*
X92199658Y-54727386D01*
X92252000Y-54716000D01*
X92508000Y-54716000D01*
X92576121Y-54736002D01*
G37*
%TD.AperFunction*%
%TA.AperFunction,Conductor*%
G36*
X108396866Y-59873502D02*
G01*
X108443359Y-59927158D01*
X108453463Y-59997432D01*
X108422381Y-60063810D01*
X108315379Y-60182648D01*
X108310960Y-60187556D01*
X108259437Y-60276796D01*
X108238810Y-60312524D01*
X108215473Y-60352944D01*
X108156458Y-60534572D01*
X108155768Y-60541133D01*
X108155768Y-60541135D01*
X108139976Y-60691389D01*
X108136496Y-60724500D01*
X108137186Y-60731065D01*
X108154469Y-60895500D01*
X108156458Y-60914428D01*
X108215473Y-61096056D01*
X108272553Y-61194920D01*
X108274679Y-61198603D01*
X108291417Y-61267598D01*
X108268197Y-61334690D01*
X108212390Y-61378577D01*
X108141715Y-61385326D01*
X108112311Y-61375798D01*
X108074230Y-61358041D01*
X108074225Y-61358039D01*
X108069243Y-61355716D01*
X108063935Y-61354294D01*
X108063933Y-61354293D01*
X107853402Y-61297881D01*
X107853400Y-61297881D01*
X107848087Y-61296457D01*
X107620000Y-61276502D01*
X107391913Y-61296457D01*
X107386600Y-61297881D01*
X107386598Y-61297881D01*
X107176067Y-61354293D01*
X107176065Y-61354294D01*
X107170757Y-61355716D01*
X107165776Y-61358039D01*
X107165775Y-61358039D01*
X106968238Y-61450151D01*
X106968233Y-61450154D01*
X106963251Y-61452477D01*
X106883501Y-61508319D01*
X106780211Y-61580643D01*
X106780208Y-61580645D01*
X106775700Y-61583802D01*
X106613802Y-61745700D01*
X106610645Y-61750208D01*
X106610643Y-61750211D01*
X106573350Y-61803471D01*
X106482477Y-61933251D01*
X106480154Y-61938233D01*
X106480151Y-61938238D01*
X106464195Y-61972457D01*
X106417278Y-62025742D01*
X106349001Y-62045203D01*
X106281041Y-62024661D01*
X106235805Y-61972457D01*
X106219849Y-61938238D01*
X106219846Y-61938233D01*
X106217523Y-61933251D01*
X106126650Y-61803471D01*
X106089357Y-61750211D01*
X106089355Y-61750208D01*
X106086198Y-61745700D01*
X105924300Y-61583802D01*
X105919792Y-61580645D01*
X105919789Y-61580643D01*
X105816499Y-61508319D01*
X105736749Y-61452477D01*
X105731767Y-61450154D01*
X105731762Y-61450151D01*
X105534225Y-61358039D01*
X105534224Y-61358039D01*
X105529243Y-61355716D01*
X105523935Y-61354294D01*
X105523933Y-61354293D01*
X105313402Y-61297881D01*
X105313400Y-61297881D01*
X105308087Y-61296457D01*
X105080000Y-61276502D01*
X105074525Y-61276981D01*
X105074517Y-61276981D01*
X105054118Y-61278766D01*
X104984513Y-61264779D01*
X104933519Y-61215380D01*
X104917328Y-61146255D01*
X104925629Y-61111914D01*
X104924527Y-61111556D01*
X104933999Y-61082404D01*
X104983542Y-60929928D01*
X104984479Y-60921019D01*
X105002814Y-60746565D01*
X105003504Y-60740000D01*
X104996419Y-60672593D01*
X104984232Y-60556635D01*
X104984232Y-60556633D01*
X104983542Y-60550072D01*
X104924527Y-60368444D01*
X104829040Y-60203056D01*
X104703660Y-60063808D01*
X104672945Y-59999803D01*
X104681709Y-59929349D01*
X104727171Y-59874818D01*
X104797298Y-59853500D01*
X108328745Y-59853500D01*
X108396866Y-59873502D01*
G37*
%TD.AperFunction*%
%TA.AperFunction,Conductor*%
G36*
X88939933Y-53803502D02*
G01*
X88986426Y-53857158D01*
X88996530Y-53927432D01*
X88967036Y-53992012D01*
X88960907Y-53998595D01*
X88833802Y-54125700D01*
X88830645Y-54130208D01*
X88830643Y-54130211D01*
X88826800Y-54135700D01*
X88702477Y-54313251D01*
X88700154Y-54318233D01*
X88700151Y-54318238D01*
X88695488Y-54328238D01*
X88605716Y-54520757D01*
X88604294Y-54526065D01*
X88604293Y-54526067D01*
X88548041Y-54736002D01*
X88546457Y-54741913D01*
X88526502Y-54970000D01*
X88546457Y-55198087D01*
X88547880Y-55203398D01*
X88547882Y-55203409D01*
X88563459Y-55261541D01*
X88561770Y-55332517D01*
X88530848Y-55383248D01*
X87153401Y-56760694D01*
X85784500Y-58129595D01*
X85722188Y-58163621D01*
X85695405Y-58166500D01*
X85518767Y-58166500D01*
X85507584Y-58165973D01*
X85500091Y-58164298D01*
X85492165Y-58164547D01*
X85492164Y-58164547D01*
X85432001Y-58166438D01*
X85428043Y-58166500D01*
X85400144Y-58166500D01*
X85396154Y-58167004D01*
X85384320Y-58167936D01*
X85340111Y-58169326D01*
X85332497Y-58171538D01*
X85332492Y-58171539D01*
X85320659Y-58174977D01*
X85301296Y-58178988D01*
X85281203Y-58181526D01*
X85273836Y-58184443D01*
X85273831Y-58184444D01*
X85240092Y-58197802D01*
X85228865Y-58201646D01*
X85186407Y-58213982D01*
X85179581Y-58218019D01*
X85168972Y-58224293D01*
X85151224Y-58232988D01*
X85132383Y-58240448D01*
X85125967Y-58245110D01*
X85125966Y-58245110D01*
X85096613Y-58266436D01*
X85086693Y-58272952D01*
X85055465Y-58291420D01*
X85055462Y-58291422D01*
X85048638Y-58295458D01*
X85034317Y-58309779D01*
X85019284Y-58322619D01*
X85002893Y-58334528D01*
X84997843Y-58340632D01*
X84997838Y-58340637D01*
X84974707Y-58368598D01*
X84966717Y-58377379D01*
X84027742Y-59316353D01*
X84019463Y-59323887D01*
X84012982Y-59328000D01*
X84003175Y-59338444D01*
X83966357Y-59377651D01*
X83963602Y-59380493D01*
X83943865Y-59400230D01*
X83941385Y-59403427D01*
X83933682Y-59412447D01*
X83903414Y-59444679D01*
X83899595Y-59451625D01*
X83899593Y-59451628D01*
X83893652Y-59462434D01*
X83882801Y-59478953D01*
X83870386Y-59494959D01*
X83867241Y-59502228D01*
X83867238Y-59502232D01*
X83852826Y-59535537D01*
X83847609Y-59546187D01*
X83826305Y-59584940D01*
X83824334Y-59592615D01*
X83824334Y-59592616D01*
X83821267Y-59604562D01*
X83814863Y-59623266D01*
X83806819Y-59641855D01*
X83805580Y-59649678D01*
X83805577Y-59649688D01*
X83799901Y-59685524D01*
X83797495Y-59697144D01*
X83790106Y-59725926D01*
X83786500Y-59739970D01*
X83786500Y-59760224D01*
X83784949Y-59779934D01*
X83781780Y-59799943D01*
X83782526Y-59807835D01*
X83785941Y-59843961D01*
X83786500Y-59855819D01*
X83786500Y-61250796D01*
X83766498Y-61318917D01*
X83712842Y-61365410D01*
X83642568Y-61375514D01*
X83617403Y-61369196D01*
X83614227Y-61368040D01*
X83609243Y-61365716D01*
X83454263Y-61324189D01*
X83393402Y-61307881D01*
X83393400Y-61307881D01*
X83388087Y-61306457D01*
X83160000Y-61286502D01*
X82931913Y-61306457D01*
X82926600Y-61307881D01*
X82926598Y-61307881D01*
X82865737Y-61324189D01*
X82710757Y-61365716D01*
X82705773Y-61368040D01*
X82702597Y-61369196D01*
X82631743Y-61373701D01*
X82569702Y-61339184D01*
X82536171Y-61276604D01*
X82533500Y-61250796D01*
X82533500Y-60527031D01*
X82549085Y-60466331D01*
X82559877Y-60446700D01*
X82563695Y-60439755D01*
X82568733Y-60420132D01*
X82575137Y-60401429D01*
X82580033Y-60390115D01*
X82580033Y-60390114D01*
X82583181Y-60382840D01*
X82584420Y-60375017D01*
X82584423Y-60375007D01*
X82590099Y-60339171D01*
X82592505Y-60327551D01*
X82601528Y-60292406D01*
X82601528Y-60292405D01*
X82603500Y-60284725D01*
X82603500Y-60264471D01*
X82605051Y-60244760D01*
X82606980Y-60232581D01*
X82608220Y-60224752D01*
X82604059Y-60180733D01*
X82603500Y-60168876D01*
X82603500Y-56349751D01*
X82623502Y-56281630D01*
X82677158Y-56235137D01*
X82747432Y-56225033D01*
X82762102Y-56228042D01*
X82931913Y-56273543D01*
X83160000Y-56293498D01*
X83388087Y-56273543D01*
X83393400Y-56272119D01*
X83393402Y-56272119D01*
X83603933Y-56215707D01*
X83603935Y-56215706D01*
X83609243Y-56214284D01*
X83628647Y-56205236D01*
X83811762Y-56119849D01*
X83811767Y-56119846D01*
X83816749Y-56117523D01*
X83958010Y-56018611D01*
X83999789Y-55989357D01*
X83999792Y-55989355D01*
X84004300Y-55986198D01*
X84166198Y-55824300D01*
X84170472Y-55818197D01*
X84294366Y-55641257D01*
X84297523Y-55636749D01*
X84299846Y-55631767D01*
X84299849Y-55631762D01*
X84315805Y-55597543D01*
X84362722Y-55544258D01*
X84430999Y-55524797D01*
X84498959Y-55545339D01*
X84544195Y-55597543D01*
X84560151Y-55631762D01*
X84560154Y-55631767D01*
X84562477Y-55636749D01*
X84565634Y-55641257D01*
X84689529Y-55818197D01*
X84693802Y-55824300D01*
X84855700Y-55986198D01*
X84860208Y-55989355D01*
X84860211Y-55989357D01*
X84901990Y-56018611D01*
X85043251Y-56117523D01*
X85048233Y-56119846D01*
X85048238Y-56119849D01*
X85231353Y-56205236D01*
X85250757Y-56214284D01*
X85256065Y-56215706D01*
X85256067Y-56215707D01*
X85466598Y-56272119D01*
X85466600Y-56272119D01*
X85471913Y-56273543D01*
X85700000Y-56293498D01*
X85928087Y-56273543D01*
X85933400Y-56272119D01*
X85933402Y-56272119D01*
X86143933Y-56215707D01*
X86143935Y-56215706D01*
X86149243Y-56214284D01*
X86168647Y-56205236D01*
X86351762Y-56119849D01*
X86351767Y-56119846D01*
X86356749Y-56117523D01*
X86498010Y-56018611D01*
X86539789Y-55989357D01*
X86539792Y-55989355D01*
X86544300Y-55986198D01*
X86706198Y-55824300D01*
X86710472Y-55818197D01*
X86834366Y-55641257D01*
X86837523Y-55636749D01*
X86839846Y-55631767D01*
X86839849Y-55631762D01*
X86931961Y-55434225D01*
X86931961Y-55434224D01*
X86934284Y-55429243D01*
X86946609Y-55383248D01*
X86992119Y-55213402D01*
X86992119Y-55213400D01*
X86993543Y-55208087D01*
X87013498Y-54980000D01*
X86993543Y-54751913D01*
X86992119Y-54746598D01*
X86935707Y-54536067D01*
X86935706Y-54536065D01*
X86934284Y-54530757D01*
X86851142Y-54352457D01*
X86839849Y-54328238D01*
X86839846Y-54328233D01*
X86837523Y-54323251D01*
X86706198Y-54135700D01*
X86569093Y-53998595D01*
X86535067Y-53936283D01*
X86540132Y-53865468D01*
X86582679Y-53808632D01*
X86649199Y-53783821D01*
X86658188Y-53783500D01*
X88871812Y-53783500D01*
X88939933Y-53803502D01*
G37*
%TD.AperFunction*%
%TA.AperFunction,Conductor*%
G36*
X111498959Y-55535339D02*
G01*
X111544195Y-55587543D01*
X111560151Y-55621762D01*
X111560154Y-55621767D01*
X111562477Y-55626749D01*
X111693802Y-55814300D01*
X111855700Y-55976198D01*
X111860208Y-55979355D01*
X111860211Y-55979357D01*
X111869981Y-55986198D01*
X112043251Y-56107523D01*
X112048233Y-56109846D01*
X112048238Y-56109849D01*
X112224246Y-56191922D01*
X112250757Y-56204284D01*
X112256065Y-56205706D01*
X112256067Y-56205707D01*
X112466598Y-56262119D01*
X112466600Y-56262119D01*
X112471913Y-56263543D01*
X112700000Y-56283498D01*
X112928087Y-56263543D01*
X112933400Y-56262119D01*
X112933402Y-56262119D01*
X113143933Y-56205707D01*
X113143935Y-56205706D01*
X113149243Y-56204284D01*
X113175754Y-56191922D01*
X113351762Y-56109849D01*
X113351767Y-56109846D01*
X113356749Y-56107523D01*
X113530019Y-55986198D01*
X113539789Y-55979357D01*
X113539792Y-55979355D01*
X113544300Y-55976198D01*
X113706198Y-55814300D01*
X113727287Y-55784182D01*
X113782744Y-55739854D01*
X113853364Y-55732545D01*
X113916724Y-55764576D01*
X113952709Y-55825777D01*
X113956500Y-55856453D01*
X113956500Y-59926406D01*
X113936498Y-59994527D01*
X113882842Y-60041020D01*
X113812568Y-60051124D01*
X113747988Y-60021630D01*
X113741405Y-60015501D01*
X113245977Y-59520072D01*
X112553652Y-58827747D01*
X112546112Y-58819461D01*
X112542000Y-58812982D01*
X112492348Y-58766356D01*
X112489507Y-58763602D01*
X112469770Y-58743865D01*
X112466573Y-58741385D01*
X112457551Y-58733680D01*
X112431100Y-58708841D01*
X112425321Y-58703414D01*
X112418375Y-58699595D01*
X112418372Y-58699593D01*
X112407566Y-58693652D01*
X112391047Y-58682801D01*
X112382156Y-58675905D01*
X112375041Y-58670386D01*
X112367772Y-58667241D01*
X112367768Y-58667238D01*
X112334463Y-58652826D01*
X112323813Y-58647609D01*
X112285060Y-58626305D01*
X112265437Y-58621267D01*
X112246734Y-58614863D01*
X112235420Y-58609967D01*
X112235419Y-58609967D01*
X112228145Y-58606819D01*
X112220322Y-58605580D01*
X112220312Y-58605577D01*
X112184476Y-58599901D01*
X112172856Y-58597495D01*
X112137711Y-58588472D01*
X112137710Y-58588472D01*
X112130030Y-58586500D01*
X112109776Y-58586500D01*
X112090065Y-58584949D01*
X112077886Y-58583020D01*
X112070057Y-58581780D01*
X112062165Y-58582526D01*
X112026039Y-58585941D01*
X112014181Y-58586500D01*
X100726755Y-58586500D01*
X100658634Y-58566498D01*
X100612141Y-58512842D01*
X100602037Y-58442568D01*
X100631531Y-58377988D01*
X100638562Y-58370821D01*
X100641253Y-58368866D01*
X100666671Y-58340637D01*
X100764621Y-58231852D01*
X100764622Y-58231851D01*
X100769040Y-58226944D01*
X100851148Y-58084729D01*
X100861223Y-58067279D01*
X100861224Y-58067278D01*
X100864527Y-58061556D01*
X100923542Y-57879928D01*
X100934461Y-57776045D01*
X100942814Y-57696565D01*
X100943504Y-57690000D01*
X100932352Y-57583891D01*
X100924232Y-57506635D01*
X100924232Y-57506633D01*
X100923542Y-57500072D01*
X100864527Y-57318444D01*
X100815114Y-57232859D01*
X100798377Y-57163866D01*
X100821597Y-57096774D01*
X100835139Y-57080765D01*
X101147535Y-56768370D01*
X101522258Y-56393647D01*
X101530537Y-56386113D01*
X101537018Y-56382000D01*
X101583644Y-56332348D01*
X101586398Y-56329507D01*
X101606135Y-56309770D01*
X101608615Y-56306573D01*
X101616320Y-56297551D01*
X101621435Y-56292104D01*
X101646586Y-56265321D01*
X101650405Y-56258375D01*
X101650407Y-56258372D01*
X101656348Y-56247566D01*
X101667199Y-56231047D01*
X101670261Y-56227099D01*
X101679614Y-56215041D01*
X101682759Y-56207772D01*
X101682762Y-56207768D01*
X101697174Y-56174463D01*
X101702391Y-56163813D01*
X101707701Y-56154153D01*
X101758045Y-56104096D01*
X101827462Y-56089202D01*
X101880374Y-56105508D01*
X101883251Y-56107523D01*
X101888237Y-56109848D01*
X102033297Y-56177490D01*
X102090757Y-56204284D01*
X102096065Y-56205706D01*
X102096067Y-56205707D01*
X102306598Y-56262119D01*
X102306600Y-56262119D01*
X102311913Y-56263543D01*
X102540000Y-56283498D01*
X102768087Y-56263543D01*
X102773400Y-56262119D01*
X102773402Y-56262119D01*
X102983933Y-56205707D01*
X102983935Y-56205706D01*
X102989243Y-56204284D01*
X103015754Y-56191922D01*
X103191762Y-56109849D01*
X103191767Y-56109846D01*
X103196749Y-56107523D01*
X103370019Y-55986198D01*
X103379789Y-55979357D01*
X103379792Y-55979355D01*
X103384300Y-55976198D01*
X103546198Y-55814300D01*
X103677523Y-55626749D01*
X103679846Y-55621767D01*
X103679849Y-55621762D01*
X103695805Y-55587543D01*
X103742722Y-55534258D01*
X103810999Y-55514797D01*
X103878959Y-55535339D01*
X103924195Y-55587543D01*
X103940151Y-55621762D01*
X103940154Y-55621767D01*
X103942477Y-55626749D01*
X104073802Y-55814300D01*
X104235700Y-55976198D01*
X104240208Y-55979355D01*
X104240211Y-55979357D01*
X104249981Y-55986198D01*
X104423251Y-56107523D01*
X104428233Y-56109846D01*
X104428238Y-56109849D01*
X104604246Y-56191922D01*
X104630757Y-56204284D01*
X104636065Y-56205706D01*
X104636067Y-56205707D01*
X104846598Y-56262119D01*
X104846600Y-56262119D01*
X104851913Y-56263543D01*
X105080000Y-56283498D01*
X105308087Y-56263543D01*
X105313400Y-56262119D01*
X105313402Y-56262119D01*
X105523933Y-56205707D01*
X105523935Y-56205706D01*
X105529243Y-56204284D01*
X105555754Y-56191922D01*
X105731762Y-56109849D01*
X105731767Y-56109846D01*
X105736749Y-56107523D01*
X105910019Y-55986198D01*
X105919789Y-55979357D01*
X105919792Y-55979355D01*
X105924300Y-55976198D01*
X106086198Y-55814300D01*
X106217523Y-55626749D01*
X106219846Y-55621767D01*
X106219849Y-55621762D01*
X106235805Y-55587543D01*
X106282722Y-55534258D01*
X106350999Y-55514797D01*
X106418959Y-55535339D01*
X106464195Y-55587543D01*
X106480151Y-55621762D01*
X106480154Y-55621767D01*
X106482477Y-55626749D01*
X106613802Y-55814300D01*
X106775700Y-55976198D01*
X106780208Y-55979355D01*
X106780211Y-55979357D01*
X106789981Y-55986198D01*
X106963251Y-56107523D01*
X106968233Y-56109846D01*
X106968238Y-56109849D01*
X107144246Y-56191922D01*
X107170757Y-56204284D01*
X107176065Y-56205706D01*
X107176067Y-56205707D01*
X107386598Y-56262119D01*
X107386600Y-56262119D01*
X107391913Y-56263543D01*
X107620000Y-56283498D01*
X107848087Y-56263543D01*
X107853400Y-56262119D01*
X107853402Y-56262119D01*
X108063933Y-56205707D01*
X108063935Y-56205706D01*
X108069243Y-56204284D01*
X108095754Y-56191922D01*
X108271762Y-56109849D01*
X108271767Y-56109846D01*
X108276749Y-56107523D01*
X108450019Y-55986198D01*
X108459789Y-55979357D01*
X108459792Y-55979355D01*
X108464300Y-55976198D01*
X108626198Y-55814300D01*
X108757523Y-55626749D01*
X108759846Y-55621767D01*
X108759849Y-55621762D01*
X108775805Y-55587543D01*
X108822722Y-55534258D01*
X108890999Y-55514797D01*
X108958959Y-55535339D01*
X109004195Y-55587543D01*
X109020151Y-55621762D01*
X109020154Y-55621767D01*
X109022477Y-55626749D01*
X109153802Y-55814300D01*
X109315700Y-55976198D01*
X109320208Y-55979355D01*
X109320211Y-55979357D01*
X109329981Y-55986198D01*
X109503251Y-56107523D01*
X109508233Y-56109846D01*
X109508238Y-56109849D01*
X109684246Y-56191922D01*
X109710757Y-56204284D01*
X109716065Y-56205706D01*
X109716067Y-56205707D01*
X109926598Y-56262119D01*
X109926600Y-56262119D01*
X109931913Y-56263543D01*
X110160000Y-56283498D01*
X110388087Y-56263543D01*
X110393400Y-56262119D01*
X110393402Y-56262119D01*
X110603933Y-56205707D01*
X110603935Y-56205706D01*
X110609243Y-56204284D01*
X110635754Y-56191922D01*
X110811762Y-56109849D01*
X110811767Y-56109846D01*
X110816749Y-56107523D01*
X110990019Y-55986198D01*
X110999789Y-55979357D01*
X110999792Y-55979355D01*
X111004300Y-55976198D01*
X111166198Y-55814300D01*
X111297523Y-55626749D01*
X111299846Y-55621767D01*
X111299849Y-55621762D01*
X111315805Y-55587543D01*
X111362722Y-55534258D01*
X111430999Y-55514797D01*
X111498959Y-55535339D01*
G37*
%TD.AperFunction*%
%TA.AperFunction,Conductor*%
G36*
X65484032Y-50870924D02*
G01*
X65529095Y-50899885D01*
X66514287Y-51885077D01*
X66526062Y-51891507D01*
X66538077Y-51882211D01*
X66573931Y-51831006D01*
X66579414Y-51821511D01*
X66673224Y-51620335D01*
X66720142Y-51567050D01*
X66788419Y-51547589D01*
X66856379Y-51568131D01*
X66873671Y-51581734D01*
X66907666Y-51613657D01*
X66910509Y-51616413D01*
X66930230Y-51636134D01*
X66933425Y-51638612D01*
X66942447Y-51646318D01*
X66974679Y-51676586D01*
X66981628Y-51680406D01*
X66992432Y-51686346D01*
X67008956Y-51697199D01*
X67024959Y-51709613D01*
X67029893Y-51711748D01*
X67071965Y-51758172D01*
X67074333Y-51756805D01*
X67077088Y-51761575D01*
X67079411Y-51766558D01*
X67200699Y-51939776D01*
X67350224Y-52089301D01*
X67523442Y-52210589D01*
X67528420Y-52212910D01*
X67528423Y-52212912D01*
X67668417Y-52278192D01*
X67715090Y-52299956D01*
X67720398Y-52301378D01*
X67720400Y-52301379D01*
X67914030Y-52353262D01*
X67914032Y-52353262D01*
X67919345Y-52354686D01*
X68130000Y-52373116D01*
X68340655Y-52354686D01*
X68345968Y-52353262D01*
X68345970Y-52353262D01*
X68447889Y-52325953D01*
X68518866Y-52327643D01*
X68577661Y-52367437D01*
X68605609Y-52432702D01*
X68606500Y-52447660D01*
X68606500Y-53658570D01*
X68586498Y-53726691D01*
X68532842Y-53773184D01*
X68462568Y-53783288D01*
X68427250Y-53772765D01*
X68374225Y-53748039D01*
X68374224Y-53748039D01*
X68369243Y-53745716D01*
X68363935Y-53744294D01*
X68363933Y-53744293D01*
X68153402Y-53687881D01*
X68153400Y-53687881D01*
X68148087Y-53686457D01*
X67920000Y-53666502D01*
X67691913Y-53686457D01*
X67686600Y-53687881D01*
X67686598Y-53687881D01*
X67476067Y-53744293D01*
X67476065Y-53744294D01*
X67470757Y-53745716D01*
X67465776Y-53748039D01*
X67465775Y-53748039D01*
X67268238Y-53840151D01*
X67268233Y-53840154D01*
X67263251Y-53842477D01*
X67204249Y-53883791D01*
X67080211Y-53970643D01*
X67080208Y-53970645D01*
X67075700Y-53973802D01*
X66913802Y-54135700D01*
X66782477Y-54323251D01*
X66780154Y-54328233D01*
X66780151Y-54328238D01*
X66764195Y-54362457D01*
X66717278Y-54415742D01*
X66649001Y-54435203D01*
X66581041Y-54414661D01*
X66535805Y-54362457D01*
X66519849Y-54328238D01*
X66519846Y-54328233D01*
X66517523Y-54323251D01*
X66386198Y-54135700D01*
X66224300Y-53973802D01*
X66219792Y-53970645D01*
X66219789Y-53970643D01*
X66095751Y-53883791D01*
X66036749Y-53842477D01*
X66031767Y-53840154D01*
X66031762Y-53840151D01*
X65834225Y-53748039D01*
X65834224Y-53748039D01*
X65829243Y-53745716D01*
X65823935Y-53744294D01*
X65823933Y-53744293D01*
X65613402Y-53687881D01*
X65613400Y-53687881D01*
X65608087Y-53686457D01*
X65380000Y-53666502D01*
X65151913Y-53686457D01*
X65146600Y-53687881D01*
X65146598Y-53687881D01*
X64936067Y-53744293D01*
X64936065Y-53744294D01*
X64930757Y-53745716D01*
X64925776Y-53748039D01*
X64925775Y-53748039D01*
X64728238Y-53840151D01*
X64728233Y-53840154D01*
X64723251Y-53842477D01*
X64664249Y-53883791D01*
X64540211Y-53970643D01*
X64540208Y-53970645D01*
X64535700Y-53973802D01*
X64373802Y-54135700D01*
X64242477Y-54323251D01*
X64240154Y-54328233D01*
X64240151Y-54328238D01*
X64224195Y-54362457D01*
X64177278Y-54415742D01*
X64109001Y-54435203D01*
X64041041Y-54414661D01*
X63995805Y-54362457D01*
X63979849Y-54328238D01*
X63979846Y-54328233D01*
X63977523Y-54323251D01*
X63846198Y-54135700D01*
X63684300Y-53973802D01*
X63679792Y-53970645D01*
X63679789Y-53970643D01*
X63555751Y-53883791D01*
X63496749Y-53842477D01*
X63491767Y-53840154D01*
X63491762Y-53840151D01*
X63294225Y-53748039D01*
X63294224Y-53748039D01*
X63289243Y-53745716D01*
X63283935Y-53744294D01*
X63283933Y-53744293D01*
X63073402Y-53687881D01*
X63073400Y-53687881D01*
X63068087Y-53686457D01*
X63062601Y-53685977D01*
X63062595Y-53685976D01*
X62954398Y-53676509D01*
X62888280Y-53650646D01*
X62846640Y-53593142D01*
X62840070Y-53537819D01*
X62852814Y-53416565D01*
X62853504Y-53410000D01*
X62833542Y-53220072D01*
X62774527Y-53038444D01*
X62679040Y-52873056D01*
X62641365Y-52831213D01*
X62555675Y-52736045D01*
X62555674Y-52736044D01*
X62551253Y-52731134D01*
X62542178Y-52724540D01*
X62440852Y-52650923D01*
X62423876Y-52638589D01*
X62380522Y-52582367D01*
X62374447Y-52511630D01*
X62407578Y-52448839D01*
X62469399Y-52413927D01*
X62530548Y-52414946D01*
X62706598Y-52462119D01*
X62706600Y-52462119D01*
X62711913Y-52463543D01*
X62940000Y-52483498D01*
X63168087Y-52463543D01*
X63173400Y-52462119D01*
X63173402Y-52462119D01*
X63383933Y-52405707D01*
X63383935Y-52405706D01*
X63389243Y-52404284D01*
X63408514Y-52395298D01*
X63591762Y-52309849D01*
X63591767Y-52309846D01*
X63596749Y-52307523D01*
X63670243Y-52256062D01*
X64718493Y-52256062D01*
X64727789Y-52268077D01*
X64778994Y-52303931D01*
X64788489Y-52309414D01*
X64985947Y-52401490D01*
X64996239Y-52405236D01*
X65206688Y-52461625D01*
X65217481Y-52463528D01*
X65434525Y-52482517D01*
X65445475Y-52482517D01*
X65662519Y-52463528D01*
X65673312Y-52461625D01*
X65883761Y-52405236D01*
X65894053Y-52401490D01*
X66091511Y-52309414D01*
X66101006Y-52303931D01*
X66153048Y-52267491D01*
X66161424Y-52257012D01*
X66154356Y-52243566D01*
X65452812Y-51542022D01*
X65438868Y-51534408D01*
X65437035Y-51534539D01*
X65430420Y-51538790D01*
X64724923Y-52244287D01*
X64718493Y-52256062D01*
X63670243Y-52256062D01*
X63736650Y-52209563D01*
X63779789Y-52179357D01*
X63779792Y-52179355D01*
X63784300Y-52176198D01*
X63946198Y-52014300D01*
X63974518Y-51973856D01*
X64047302Y-51869909D01*
X64077523Y-51826749D01*
X64079847Y-51821765D01*
X64081171Y-51819472D01*
X64132553Y-51770479D01*
X64202267Y-51757043D01*
X64268178Y-51783429D01*
X64299409Y-51819472D01*
X64306066Y-51831002D01*
X64342509Y-51883048D01*
X64352988Y-51891424D01*
X64366434Y-51884356D01*
X65350905Y-50899885D01*
X65413217Y-50865859D01*
X65484032Y-50870924D01*
G37*
%TD.AperFunction*%
%TA.AperFunction,Conductor*%
G36*
X91365490Y-49687371D02*
G01*
X91372489Y-49696031D01*
X91375643Y-49699789D01*
X91378802Y-49704300D01*
X91540700Y-49866198D01*
X91545208Y-49869355D01*
X91545211Y-49869357D01*
X91650898Y-49943360D01*
X91690158Y-49987948D01*
X91715644Y-50036434D01*
X93504287Y-51825077D01*
X93516062Y-51831507D01*
X93528077Y-51822211D01*
X93563931Y-51771006D01*
X93569414Y-51761511D01*
X93661491Y-51564050D01*
X93666106Y-51551372D01*
X93708201Y-51494201D01*
X93774523Y-51468865D01*
X93844014Y-51483407D01*
X93894612Y-51533210D01*
X93899970Y-51544944D01*
X93900044Y-51544910D01*
X93971058Y-51697199D01*
X93989411Y-51736558D01*
X94110699Y-51909776D01*
X94260224Y-52059301D01*
X94433442Y-52180589D01*
X94438420Y-52182910D01*
X94438423Y-52182912D01*
X94620108Y-52267633D01*
X94625090Y-52269956D01*
X94630398Y-52271378D01*
X94630400Y-52271379D01*
X94824030Y-52323262D01*
X94824032Y-52323262D01*
X94829345Y-52324686D01*
X95040000Y-52343116D01*
X95250655Y-52324686D01*
X95255968Y-52323262D01*
X95255970Y-52323262D01*
X95449600Y-52271379D01*
X95449602Y-52271378D01*
X95454910Y-52269956D01*
X95459892Y-52267633D01*
X95641577Y-52182912D01*
X95641580Y-52182910D01*
X95646558Y-52180589D01*
X95819776Y-52059301D01*
X95969301Y-51909776D01*
X96090589Y-51736558D01*
X96108943Y-51697199D01*
X96177633Y-51549892D01*
X96177634Y-51549891D01*
X96179956Y-51544910D01*
X96193544Y-51494201D01*
X96233262Y-51345970D01*
X96233262Y-51345968D01*
X96234686Y-51340655D01*
X96253116Y-51130000D01*
X96234686Y-50919345D01*
X96224101Y-50879841D01*
X96181379Y-50720400D01*
X96181378Y-50720398D01*
X96179956Y-50715090D01*
X96173270Y-50700751D01*
X96092912Y-50528423D01*
X96092910Y-50528420D01*
X96090589Y-50523442D01*
X95969301Y-50350224D01*
X95819776Y-50200699D01*
X95708024Y-50122450D01*
X95703083Y-50118990D01*
X95658754Y-50063533D01*
X95651445Y-49992914D01*
X95683475Y-49929553D01*
X95703083Y-49912564D01*
X95764784Y-49869361D01*
X95764790Y-49869356D01*
X95769300Y-49866198D01*
X95775702Y-49859796D01*
X95777077Y-49859045D01*
X95777400Y-49858774D01*
X95777455Y-49858839D01*
X95838014Y-49825770D01*
X95908829Y-49830835D01*
X95953892Y-49859796D01*
X96789595Y-50695499D01*
X96823621Y-50757811D01*
X96826500Y-50784594D01*
X96826500Y-53750606D01*
X96806498Y-53818727D01*
X96772771Y-53853819D01*
X96620211Y-53960643D01*
X96620208Y-53960645D01*
X96615700Y-53963802D01*
X96453802Y-54125700D01*
X96450645Y-54130208D01*
X96450643Y-54130211D01*
X96446800Y-54135700D01*
X96322477Y-54313251D01*
X96320154Y-54318233D01*
X96320151Y-54318238D01*
X96304195Y-54352457D01*
X96257278Y-54405742D01*
X96189001Y-54425203D01*
X96121041Y-54404661D01*
X96075805Y-54352457D01*
X96059849Y-54318238D01*
X96059846Y-54318233D01*
X96057523Y-54313251D01*
X95933200Y-54135700D01*
X95929357Y-54130211D01*
X95929355Y-54130208D01*
X95926198Y-54125700D01*
X95764300Y-53963802D01*
X95759792Y-53960645D01*
X95759789Y-53960643D01*
X95623865Y-53865468D01*
X95576749Y-53832477D01*
X95571767Y-53830154D01*
X95571762Y-53830151D01*
X95374225Y-53738039D01*
X95374224Y-53738039D01*
X95369243Y-53735716D01*
X95363935Y-53734294D01*
X95363933Y-53734293D01*
X95153402Y-53677881D01*
X95153400Y-53677881D01*
X95148087Y-53676457D01*
X94920000Y-53656502D01*
X94691913Y-53676457D01*
X94628458Y-53693460D01*
X94557482Y-53691770D01*
X94506753Y-53660848D01*
X93182933Y-52337028D01*
X93148907Y-52274716D01*
X93151950Y-52232173D01*
X93149157Y-52231884D01*
X93152545Y-52199146D01*
X93144356Y-52183566D01*
X91355713Y-50394923D01*
X91343938Y-50388493D01*
X91331923Y-50397789D01*
X91296066Y-50448998D01*
X91289409Y-50460528D01*
X91238027Y-50509521D01*
X91168313Y-50522958D01*
X91102402Y-50496571D01*
X91071171Y-50460528D01*
X91069847Y-50458235D01*
X91067523Y-50453251D01*
X90961730Y-50302163D01*
X90939357Y-50270211D01*
X90939355Y-50270208D01*
X90936198Y-50265700D01*
X90931254Y-50260756D01*
X90930940Y-50260182D01*
X90928774Y-50257600D01*
X90929293Y-50257165D01*
X90897228Y-50198444D01*
X90902293Y-50127629D01*
X90944783Y-50070835D01*
X90964086Y-50056368D01*
X91008261Y-50023261D01*
X91095615Y-49906705D01*
X91146745Y-49770316D01*
X91147917Y-49759526D01*
X91148803Y-49757394D01*
X91149425Y-49754778D01*
X91149848Y-49754879D01*
X91175155Y-49693965D01*
X91233517Y-49653537D01*
X91304471Y-49651078D01*
X91365490Y-49687371D01*
G37*
%TD.AperFunction*%
%TA.AperFunction,Conductor*%
G36*
X111503959Y-41805339D02*
G01*
X111549195Y-41857543D01*
X111565151Y-41891762D01*
X111565154Y-41891767D01*
X111567477Y-41896749D01*
X111634703Y-41992758D01*
X111682713Y-42061322D01*
X111698802Y-42084300D01*
X111860700Y-42246198D01*
X111865208Y-42249355D01*
X111865211Y-42249357D01*
X111891118Y-42267497D01*
X112048251Y-42377523D01*
X112053233Y-42379846D01*
X112053238Y-42379849D01*
X112249765Y-42471490D01*
X112255757Y-42474284D01*
X112261065Y-42475706D01*
X112261067Y-42475707D01*
X112471598Y-42532119D01*
X112471600Y-42532119D01*
X112476913Y-42533543D01*
X112705000Y-42553498D01*
X112933087Y-42533543D01*
X112938400Y-42532119D01*
X112938402Y-42532119D01*
X113148933Y-42475707D01*
X113148935Y-42475706D01*
X113154243Y-42474284D01*
X113160235Y-42471490D01*
X113356762Y-42379849D01*
X113356767Y-42379846D01*
X113361749Y-42377523D01*
X113518882Y-42267497D01*
X113544789Y-42249357D01*
X113544792Y-42249355D01*
X113549300Y-42246198D01*
X113711198Y-42084300D01*
X113722627Y-42067978D01*
X113727288Y-42061322D01*
X113782745Y-42016994D01*
X113853365Y-42009686D01*
X113916725Y-42041717D01*
X113952709Y-42102919D01*
X113956500Y-42133594D01*
X113956500Y-47967278D01*
X113936498Y-48035399D01*
X113882842Y-48081892D01*
X113812568Y-48091996D01*
X113747988Y-48062502D01*
X113727287Y-48039549D01*
X113713972Y-48020533D01*
X113706916Y-48012125D01*
X113552875Y-47858084D01*
X113544467Y-47851028D01*
X113366007Y-47726069D01*
X113356511Y-47720586D01*
X113159053Y-47628510D01*
X113148761Y-47624764D01*
X112976497Y-47578606D01*
X112962401Y-47578942D01*
X112959000Y-47586884D01*
X112959000Y-50127967D01*
X112962973Y-50141498D01*
X112971522Y-50142727D01*
X113148761Y-50095236D01*
X113159053Y-50091490D01*
X113356511Y-49999414D01*
X113366007Y-49993931D01*
X113544467Y-49868972D01*
X113552875Y-49861916D01*
X113706916Y-49707875D01*
X113713972Y-49699467D01*
X113727287Y-49680451D01*
X113782745Y-49636123D01*
X113853364Y-49628814D01*
X113916724Y-49660845D01*
X113952709Y-49722047D01*
X113956500Y-49752722D01*
X113956500Y-54083547D01*
X113936498Y-54151668D01*
X113882842Y-54198161D01*
X113812568Y-54208265D01*
X113747988Y-54178771D01*
X113727287Y-54155818D01*
X113709357Y-54130211D01*
X113709355Y-54130208D01*
X113706198Y-54125700D01*
X113544300Y-53963802D01*
X113539792Y-53960645D01*
X113539789Y-53960643D01*
X113403865Y-53865468D01*
X113356749Y-53832477D01*
X113351767Y-53830154D01*
X113351762Y-53830151D01*
X113154225Y-53738039D01*
X113154224Y-53738039D01*
X113149243Y-53735716D01*
X113143935Y-53734294D01*
X113143933Y-53734293D01*
X112933402Y-53677881D01*
X112933400Y-53677881D01*
X112928087Y-53676457D01*
X112700000Y-53656502D01*
X112471913Y-53676457D01*
X112466600Y-53677881D01*
X112466598Y-53677881D01*
X112256067Y-53734293D01*
X112256065Y-53734294D01*
X112250757Y-53735716D01*
X112245776Y-53738039D01*
X112245775Y-53738039D01*
X112048238Y-53830151D01*
X112048233Y-53830154D01*
X112043251Y-53832477D01*
X111996135Y-53865468D01*
X111860211Y-53960643D01*
X111860208Y-53960645D01*
X111855700Y-53963802D01*
X111693802Y-54125700D01*
X111690645Y-54130208D01*
X111690643Y-54130211D01*
X111686800Y-54135700D01*
X111562477Y-54313251D01*
X111560154Y-54318233D01*
X111560151Y-54318238D01*
X111544195Y-54352457D01*
X111497278Y-54405742D01*
X111429001Y-54425203D01*
X111361041Y-54404661D01*
X111315805Y-54352457D01*
X111299849Y-54318238D01*
X111299846Y-54318233D01*
X111297523Y-54313251D01*
X111173200Y-54135700D01*
X111169357Y-54130211D01*
X111169355Y-54130208D01*
X111166198Y-54125700D01*
X111004300Y-53963802D01*
X110999792Y-53960645D01*
X110999789Y-53960643D01*
X110863865Y-53865468D01*
X110816749Y-53832477D01*
X110811767Y-53830154D01*
X110811762Y-53830151D01*
X110614225Y-53738039D01*
X110614224Y-53738039D01*
X110609243Y-53735716D01*
X110603935Y-53734294D01*
X110603933Y-53734293D01*
X110393402Y-53677881D01*
X110393400Y-53677881D01*
X110388087Y-53676457D01*
X110160000Y-53656502D01*
X109931913Y-53676457D01*
X109926600Y-53677881D01*
X109926598Y-53677881D01*
X109716067Y-53734293D01*
X109716065Y-53734294D01*
X109710757Y-53735716D01*
X109705780Y-53738037D01*
X109705774Y-53738039D01*
X109612750Y-53781417D01*
X109542558Y-53792078D01*
X109477745Y-53763098D01*
X109438889Y-53703678D01*
X109433500Y-53667222D01*
X109433500Y-50160446D01*
X109453502Y-50092325D01*
X109507158Y-50045832D01*
X109577432Y-50035728D01*
X109612748Y-50046250D01*
X109678987Y-50077138D01*
X109709491Y-50091362D01*
X109715757Y-50094284D01*
X109721065Y-50095706D01*
X109721067Y-50095707D01*
X109931598Y-50152119D01*
X109931600Y-50152119D01*
X109936913Y-50153543D01*
X110165000Y-50173498D01*
X110393087Y-50153543D01*
X110398400Y-50152119D01*
X110398402Y-50152119D01*
X110608933Y-50095707D01*
X110608935Y-50095706D01*
X110614243Y-50094284D01*
X110620235Y-50091490D01*
X110816762Y-49999849D01*
X110816767Y-49999846D01*
X110821749Y-49997523D01*
X111004783Y-49869361D01*
X111004792Y-49869355D01*
X111009300Y-49866198D01*
X111171198Y-49704300D01*
X111187898Y-49680451D01*
X111229098Y-49621611D01*
X111302523Y-49516749D01*
X111304846Y-49511767D01*
X111304849Y-49511762D01*
X111321081Y-49476951D01*
X111367998Y-49423666D01*
X111436275Y-49404205D01*
X111504235Y-49424747D01*
X111549471Y-49476951D01*
X111565586Y-49511511D01*
X111571069Y-49521007D01*
X111696028Y-49699467D01*
X111703084Y-49707875D01*
X111857125Y-49861916D01*
X111865533Y-49868972D01*
X112043993Y-49993931D01*
X112053489Y-49999414D01*
X112250947Y-50091490D01*
X112261239Y-50095236D01*
X112433503Y-50141394D01*
X112447599Y-50141058D01*
X112451000Y-50133116D01*
X112451000Y-47592033D01*
X112447027Y-47578502D01*
X112438478Y-47577273D01*
X112261239Y-47624764D01*
X112250947Y-47628510D01*
X112053489Y-47720586D01*
X112043993Y-47726069D01*
X111865533Y-47851028D01*
X111857125Y-47858084D01*
X111703084Y-48012125D01*
X111696028Y-48020533D01*
X111571069Y-48198993D01*
X111565586Y-48208489D01*
X111549471Y-48243049D01*
X111502554Y-48296334D01*
X111434277Y-48315795D01*
X111366317Y-48295253D01*
X111321081Y-48243049D01*
X111304849Y-48208238D01*
X111304846Y-48208233D01*
X111302523Y-48203251D01*
X111202365Y-48060211D01*
X111174357Y-48020211D01*
X111174355Y-48020208D01*
X111171198Y-48015700D01*
X111009300Y-47853802D01*
X111004792Y-47850645D01*
X111004789Y-47850643D01*
X110898813Y-47776438D01*
X110821749Y-47722477D01*
X110816767Y-47720154D01*
X110816762Y-47720151D01*
X110619225Y-47628039D01*
X110619224Y-47628039D01*
X110614243Y-47625716D01*
X110608935Y-47624294D01*
X110608933Y-47624293D01*
X110398402Y-47567881D01*
X110398400Y-47567881D01*
X110393087Y-47566457D01*
X110165000Y-47546502D01*
X109936913Y-47566457D01*
X109931600Y-47567881D01*
X109931598Y-47567881D01*
X109721067Y-47624293D01*
X109721065Y-47624294D01*
X109715757Y-47625716D01*
X109710776Y-47628039D01*
X109710775Y-47628039D01*
X109696836Y-47634539D01*
X109563532Y-47696699D01*
X109493341Y-47707360D01*
X109428528Y-47678380D01*
X109391581Y-47621207D01*
X109391378Y-47621295D01*
X109390852Y-47620079D01*
X109389286Y-47617656D01*
X109388229Y-47614019D01*
X109386018Y-47606407D01*
X109381985Y-47599588D01*
X109381983Y-47599583D01*
X109375707Y-47588972D01*
X109367012Y-47571224D01*
X109359552Y-47552383D01*
X109342952Y-47529534D01*
X109333564Y-47516613D01*
X109327048Y-47506693D01*
X109308580Y-47475465D01*
X109308578Y-47475462D01*
X109304542Y-47468638D01*
X109290221Y-47454317D01*
X109277380Y-47439283D01*
X109270131Y-47429306D01*
X109265472Y-47422893D01*
X109231395Y-47394702D01*
X109222616Y-47386712D01*
X106793652Y-44957747D01*
X106786112Y-44949461D01*
X106782000Y-44942982D01*
X106732348Y-44896356D01*
X106729507Y-44893602D01*
X106709770Y-44873865D01*
X106706573Y-44871385D01*
X106697551Y-44863680D01*
X106671100Y-44838841D01*
X106665321Y-44833414D01*
X106658375Y-44829595D01*
X106658372Y-44829593D01*
X106647566Y-44823652D01*
X106631047Y-44812801D01*
X106630583Y-44812441D01*
X106615041Y-44800386D01*
X106607772Y-44797241D01*
X106607768Y-44797238D01*
X106574463Y-44782826D01*
X106563813Y-44777609D01*
X106525060Y-44756305D01*
X106505437Y-44751267D01*
X106486734Y-44744863D01*
X106475420Y-44739967D01*
X106475419Y-44739967D01*
X106468145Y-44736819D01*
X106460322Y-44735580D01*
X106460312Y-44735577D01*
X106424476Y-44729901D01*
X106412856Y-44727495D01*
X106377711Y-44718472D01*
X106377710Y-44718472D01*
X106370030Y-44716500D01*
X106349776Y-44716500D01*
X106330065Y-44714949D01*
X106317886Y-44713020D01*
X106310057Y-44711780D01*
X106302165Y-44712526D01*
X106266039Y-44715941D01*
X106254181Y-44716500D01*
X100234595Y-44716500D01*
X100166474Y-44696498D01*
X100145499Y-44679595D01*
X99260404Y-43794499D01*
X99226379Y-43732187D01*
X99223500Y-43705404D01*
X99223500Y-42517131D01*
X99243502Y-42449010D01*
X99297158Y-42402517D01*
X99367432Y-42392413D01*
X99402749Y-42402936D01*
X99440939Y-42420744D01*
X99549281Y-42471264D01*
X99555757Y-42474284D01*
X99561065Y-42475706D01*
X99561067Y-42475707D01*
X99771598Y-42532119D01*
X99771600Y-42532119D01*
X99776913Y-42533543D01*
X100005000Y-42553498D01*
X100233087Y-42533543D01*
X100238400Y-42532119D01*
X100238402Y-42532119D01*
X100448933Y-42475707D01*
X100448935Y-42475706D01*
X100454243Y-42474284D01*
X100460235Y-42471490D01*
X100656762Y-42379849D01*
X100656767Y-42379846D01*
X100661749Y-42377523D01*
X100818882Y-42267497D01*
X100844789Y-42249357D01*
X100844792Y-42249355D01*
X100849300Y-42246198D01*
X101011198Y-42084300D01*
X101027288Y-42061322D01*
X101075297Y-41992758D01*
X101142523Y-41896749D01*
X101144846Y-41891767D01*
X101144849Y-41891762D01*
X101160805Y-41857543D01*
X101207722Y-41804258D01*
X101275999Y-41784797D01*
X101343959Y-41805339D01*
X101389195Y-41857543D01*
X101405151Y-41891762D01*
X101405154Y-41891767D01*
X101407477Y-41896749D01*
X101474703Y-41992758D01*
X101522713Y-42061322D01*
X101538802Y-42084300D01*
X101700700Y-42246198D01*
X101705208Y-42249355D01*
X101705211Y-42249357D01*
X101731118Y-42267497D01*
X101888251Y-42377523D01*
X101893233Y-42379846D01*
X101893238Y-42379849D01*
X102089765Y-42471490D01*
X102095757Y-42474284D01*
X102101065Y-42475706D01*
X102101067Y-42475707D01*
X102311598Y-42532119D01*
X102311600Y-42532119D01*
X102316913Y-42533543D01*
X102545000Y-42553498D01*
X102773087Y-42533543D01*
X102778400Y-42532119D01*
X102778402Y-42532119D01*
X102988933Y-42475707D01*
X102988935Y-42475706D01*
X102994243Y-42474284D01*
X103000235Y-42471490D01*
X103196762Y-42379849D01*
X103196767Y-42379846D01*
X103201749Y-42377523D01*
X103358882Y-42267497D01*
X103384789Y-42249357D01*
X103384792Y-42249355D01*
X103389300Y-42246198D01*
X103551198Y-42084300D01*
X103567288Y-42061322D01*
X103615297Y-41992758D01*
X103682523Y-41896749D01*
X103684846Y-41891767D01*
X103684849Y-41891762D01*
X103700805Y-41857543D01*
X103747722Y-41804258D01*
X103815999Y-41784797D01*
X103883959Y-41805339D01*
X103929195Y-41857543D01*
X103945151Y-41891762D01*
X103945154Y-41891767D01*
X103947477Y-41896749D01*
X104014703Y-41992758D01*
X104062713Y-42061322D01*
X104078802Y-42084300D01*
X104240700Y-42246198D01*
X104245208Y-42249355D01*
X104245211Y-42249357D01*
X104271118Y-42267497D01*
X104428251Y-42377523D01*
X104433233Y-42379846D01*
X104433238Y-42379849D01*
X104629765Y-42471490D01*
X104635757Y-42474284D01*
X104641065Y-42475706D01*
X104641067Y-42475707D01*
X104851598Y-42532119D01*
X104851600Y-42532119D01*
X104856913Y-42533543D01*
X105085000Y-42553498D01*
X105313087Y-42533543D01*
X105318400Y-42532119D01*
X105318402Y-42532119D01*
X105528933Y-42475707D01*
X105528935Y-42475706D01*
X105534243Y-42474284D01*
X105540235Y-42471490D01*
X105736762Y-42379849D01*
X105736767Y-42379846D01*
X105741749Y-42377523D01*
X105898882Y-42267497D01*
X105924789Y-42249357D01*
X105924792Y-42249355D01*
X105929300Y-42246198D01*
X106091198Y-42084300D01*
X106107288Y-42061322D01*
X106155297Y-41992758D01*
X106222523Y-41896749D01*
X106224846Y-41891767D01*
X106224849Y-41891762D01*
X106240805Y-41857543D01*
X106287722Y-41804258D01*
X106355999Y-41784797D01*
X106423959Y-41805339D01*
X106469195Y-41857543D01*
X106485151Y-41891762D01*
X106485154Y-41891767D01*
X106487477Y-41896749D01*
X106554703Y-41992758D01*
X106602713Y-42061322D01*
X106618802Y-42084300D01*
X106780700Y-42246198D01*
X106785208Y-42249355D01*
X106785211Y-42249357D01*
X106811118Y-42267497D01*
X106968251Y-42377523D01*
X106973233Y-42379846D01*
X106973238Y-42379849D01*
X107169765Y-42471490D01*
X107175757Y-42474284D01*
X107181065Y-42475706D01*
X107181067Y-42475707D01*
X107391598Y-42532119D01*
X107391600Y-42532119D01*
X107396913Y-42533543D01*
X107625000Y-42553498D01*
X107853087Y-42533543D01*
X107858400Y-42532119D01*
X107858402Y-42532119D01*
X108068933Y-42475707D01*
X108068935Y-42475706D01*
X108074243Y-42474284D01*
X108080235Y-42471490D01*
X108276762Y-42379849D01*
X108276767Y-42379846D01*
X108281749Y-42377523D01*
X108438882Y-42267497D01*
X108464789Y-42249357D01*
X108464792Y-42249355D01*
X108469300Y-42246198D01*
X108631198Y-42084300D01*
X108647288Y-42061322D01*
X108695297Y-41992758D01*
X108762523Y-41896749D01*
X108764846Y-41891767D01*
X108764849Y-41891762D01*
X108780805Y-41857543D01*
X108827722Y-41804258D01*
X108895999Y-41784797D01*
X108963959Y-41805339D01*
X109009195Y-41857543D01*
X109025151Y-41891762D01*
X109025154Y-41891767D01*
X109027477Y-41896749D01*
X109094703Y-41992758D01*
X109142713Y-42061322D01*
X109158802Y-42084300D01*
X109320700Y-42246198D01*
X109325208Y-42249355D01*
X109325211Y-42249357D01*
X109351118Y-42267497D01*
X109508251Y-42377523D01*
X109513233Y-42379846D01*
X109513238Y-42379849D01*
X109709765Y-42471490D01*
X109715757Y-42474284D01*
X109721065Y-42475706D01*
X109721067Y-42475707D01*
X109931598Y-42532119D01*
X109931600Y-42532119D01*
X109936913Y-42533543D01*
X110165000Y-42553498D01*
X110393087Y-42533543D01*
X110398400Y-42532119D01*
X110398402Y-42532119D01*
X110608933Y-42475707D01*
X110608935Y-42475706D01*
X110614243Y-42474284D01*
X110620235Y-42471490D01*
X110816762Y-42379849D01*
X110816767Y-42379846D01*
X110821749Y-42377523D01*
X110978882Y-42267497D01*
X111004789Y-42249357D01*
X111004792Y-42249355D01*
X111009300Y-42246198D01*
X111171198Y-42084300D01*
X111187288Y-42061322D01*
X111235297Y-41992758D01*
X111302523Y-41896749D01*
X111304846Y-41891767D01*
X111304849Y-41891762D01*
X111320805Y-41857543D01*
X111367722Y-41804258D01*
X111435999Y-41784797D01*
X111503959Y-41805339D01*
G37*
%TD.AperFunction*%
%TA.AperFunction,Conductor*%
G36*
X61842012Y-51889822D02*
G01*
X61862713Y-51912775D01*
X61909617Y-51979760D01*
X61933802Y-52014300D01*
X62095700Y-52176198D01*
X62100208Y-52179355D01*
X62100211Y-52179357D01*
X62281715Y-52306448D01*
X62326043Y-52361905D01*
X62333352Y-52432525D01*
X62301321Y-52495885D01*
X62240120Y-52531870D01*
X62183247Y-52532907D01*
X62041953Y-52502873D01*
X62041940Y-52502872D01*
X62035487Y-52501500D01*
X61844513Y-52501500D01*
X61838060Y-52502872D01*
X61838047Y-52502873D01*
X61785697Y-52514001D01*
X61714907Y-52508600D01*
X61658274Y-52465783D01*
X61633780Y-52399146D01*
X61633500Y-52390755D01*
X61633500Y-51985046D01*
X61653502Y-51916925D01*
X61707158Y-51870432D01*
X61777432Y-51860328D01*
X61842012Y-51889822D01*
G37*
%TD.AperFunction*%
%TA.AperFunction,Conductor*%
G36*
X86051121Y-48666002D02*
G01*
X86097614Y-48719658D01*
X86109000Y-48772000D01*
X86109000Y-50167967D01*
X86112973Y-50181498D01*
X86121522Y-50182727D01*
X86298761Y-50135236D01*
X86309053Y-50131490D01*
X86506511Y-50039414D01*
X86516007Y-50033931D01*
X86694467Y-49908972D01*
X86702875Y-49901916D01*
X86856916Y-49747875D01*
X86863972Y-49739467D01*
X86992088Y-49556498D01*
X86993363Y-49557391D01*
X87039539Y-49513369D01*
X87109254Y-49499940D01*
X87175162Y-49526333D01*
X87186360Y-49536273D01*
X87209595Y-49559508D01*
X87243621Y-49621820D01*
X87246500Y-49648603D01*
X87246500Y-50572224D01*
X87245973Y-50583407D01*
X87244298Y-50590900D01*
X87244547Y-50598826D01*
X87244547Y-50598827D01*
X87246438Y-50658977D01*
X87246500Y-50662936D01*
X87246500Y-50690847D01*
X87246997Y-50694781D01*
X87246997Y-50694782D01*
X87247005Y-50694847D01*
X87247938Y-50706684D01*
X87249327Y-50750880D01*
X87254978Y-50770330D01*
X87258987Y-50789691D01*
X87261526Y-50809788D01*
X87264445Y-50817159D01*
X87264445Y-50817161D01*
X87277804Y-50850903D01*
X87281649Y-50862133D01*
X87291771Y-50896974D01*
X87293982Y-50904584D01*
X87298015Y-50911403D01*
X87298017Y-50911408D01*
X87304293Y-50922019D01*
X87312988Y-50939767D01*
X87320448Y-50958608D01*
X87325110Y-50965024D01*
X87325110Y-50965025D01*
X87346436Y-50994378D01*
X87352952Y-51004298D01*
X87375458Y-51042353D01*
X87389779Y-51056674D01*
X87402619Y-51071707D01*
X87414528Y-51088098D01*
X87441003Y-51110000D01*
X87448605Y-51116289D01*
X87457384Y-51124279D01*
X88634509Y-52301405D01*
X88668535Y-52363717D01*
X88663470Y-52434533D01*
X88620923Y-52491368D01*
X88554403Y-52516179D01*
X88545414Y-52516500D01*
X83897111Y-52516500D01*
X83828990Y-52496498D01*
X83782497Y-52442842D01*
X83772393Y-52372568D01*
X83777276Y-52351572D01*
X83808743Y-52254727D01*
X83810008Y-52242697D01*
X83826108Y-52089506D01*
X83853121Y-52023849D01*
X83862323Y-52013581D01*
X85082253Y-50793652D01*
X85090539Y-50786112D01*
X85097018Y-50782000D01*
X85121834Y-50755574D01*
X85143643Y-50732349D01*
X85146398Y-50729507D01*
X85166135Y-50709770D01*
X85168615Y-50706573D01*
X85176320Y-50697551D01*
X85178920Y-50694782D01*
X85206586Y-50665321D01*
X85210405Y-50658375D01*
X85210407Y-50658372D01*
X85216348Y-50647566D01*
X85227199Y-50631047D01*
X85231711Y-50625230D01*
X85239614Y-50615041D01*
X85242759Y-50607772D01*
X85242762Y-50607768D01*
X85257174Y-50574463D01*
X85262391Y-50563813D01*
X85283695Y-50525060D01*
X85288733Y-50505437D01*
X85295137Y-50486734D01*
X85300033Y-50475420D01*
X85300033Y-50475419D01*
X85303181Y-50468145D01*
X85304420Y-50460322D01*
X85304423Y-50460312D01*
X85310099Y-50424476D01*
X85312505Y-50412856D01*
X85321528Y-50377711D01*
X85321528Y-50377710D01*
X85323500Y-50370030D01*
X85323500Y-50349776D01*
X85325051Y-50330065D01*
X85326980Y-50317886D01*
X85328220Y-50310057D01*
X85327421Y-50301607D01*
X85326169Y-50288354D01*
X85339673Y-50218653D01*
X85388716Y-50167318D01*
X85457727Y-50150647D01*
X85484221Y-50154791D01*
X85583503Y-50181394D01*
X85597599Y-50181058D01*
X85601000Y-50173116D01*
X85601000Y-48772000D01*
X85621002Y-48703879D01*
X85674658Y-48657386D01*
X85727000Y-48646000D01*
X85983000Y-48646000D01*
X86051121Y-48666002D01*
G37*
%TD.AperFunction*%
%TA.AperFunction,Conductor*%
G36*
X93127840Y-38158878D02*
G01*
X93163074Y-38220514D01*
X93166500Y-38249695D01*
X93166500Y-39963421D01*
X93146498Y-40031542D01*
X93092842Y-40078035D01*
X93022568Y-40088139D01*
X92987250Y-40077616D01*
X92839053Y-40008510D01*
X92828761Y-40004764D01*
X92656497Y-39958606D01*
X92642401Y-39958942D01*
X92639000Y-39966884D01*
X92639000Y-42507967D01*
X92642973Y-42521498D01*
X92651522Y-42522727D01*
X92828761Y-42475236D01*
X92839053Y-42471490D01*
X92987250Y-42402384D01*
X93057441Y-42391723D01*
X93122254Y-42420703D01*
X93161111Y-42480122D01*
X93166500Y-42516579D01*
X93166500Y-44231233D01*
X93165973Y-44242416D01*
X93164298Y-44249909D01*
X93164547Y-44257835D01*
X93164547Y-44257836D01*
X93166438Y-44317986D01*
X93166500Y-44321945D01*
X93166500Y-44349856D01*
X93166997Y-44353790D01*
X93166997Y-44353791D01*
X93167005Y-44353856D01*
X93167938Y-44365699D01*
X93169179Y-44405189D01*
X93151326Y-44473905D01*
X93099157Y-44522060D01*
X93029236Y-44534366D01*
X92963760Y-44506916D01*
X92954151Y-44498247D01*
X91790405Y-43334500D01*
X91756379Y-43272188D01*
X91753500Y-43245405D01*
X91753500Y-42586526D01*
X91773502Y-42518405D01*
X91827158Y-42471912D01*
X91897432Y-42461808D01*
X91925562Y-42470188D01*
X91925774Y-42469607D01*
X91941239Y-42475236D01*
X92113503Y-42521394D01*
X92127599Y-42521058D01*
X92131000Y-42513116D01*
X92131000Y-39972033D01*
X92127027Y-39958502D01*
X92118478Y-39957273D01*
X91941239Y-40004764D01*
X91925774Y-40010393D01*
X91925201Y-40008818D01*
X91862546Y-40018328D01*
X91797736Y-39989342D01*
X91758886Y-39929918D01*
X91753500Y-39893474D01*
X91753500Y-38911884D01*
X91773502Y-38843763D01*
X91827158Y-38797270D01*
X91866954Y-38787663D01*
X91866837Y-38786753D01*
X92083288Y-38759025D01*
X92083289Y-38759025D01*
X92088416Y-38758368D01*
X92093369Y-38756882D01*
X92297429Y-38695661D01*
X92297434Y-38695659D01*
X92302384Y-38694174D01*
X92502994Y-38595896D01*
X92684860Y-38466173D01*
X92690997Y-38460058D01*
X92839435Y-38312137D01*
X92843096Y-38308489D01*
X92902594Y-38225689D01*
X92938177Y-38176169D01*
X92994172Y-38132521D01*
X93064875Y-38126075D01*
X93127840Y-38158878D01*
G37*
%TD.AperFunction*%
%TA.AperFunction,Conductor*%
G36*
X70053526Y-33114502D02*
G01*
X70100019Y-33168158D01*
X70110123Y-33238432D01*
X70080629Y-33303012D01*
X70074500Y-33309596D01*
X69767742Y-33616353D01*
X69759463Y-33623887D01*
X69752982Y-33628000D01*
X69747555Y-33633779D01*
X69747554Y-33633780D01*
X69726498Y-33656203D01*
X69665285Y-33692169D01*
X69594345Y-33689332D01*
X69573754Y-33680260D01*
X69508316Y-33644137D01*
X69503789Y-33641638D01*
X69498920Y-33639914D01*
X69498916Y-33639912D01*
X69298087Y-33568795D01*
X69298083Y-33568794D01*
X69293212Y-33567069D01*
X69288119Y-33566162D01*
X69288116Y-33566161D01*
X69078373Y-33528800D01*
X69078367Y-33528799D01*
X69073284Y-33527894D01*
X68999452Y-33526992D01*
X68855081Y-33525228D01*
X68855079Y-33525228D01*
X68849911Y-33525165D01*
X68629091Y-33558955D01*
X68416756Y-33628357D01*
X68386443Y-33644137D01*
X68226153Y-33727579D01*
X68218607Y-33731507D01*
X68214474Y-33734610D01*
X68214471Y-33734612D01*
X68044100Y-33862530D01*
X68039965Y-33865635D01*
X68000525Y-33906907D01*
X67946280Y-33963671D01*
X67885629Y-34027138D01*
X67778201Y-34184621D01*
X67723293Y-34229621D01*
X67652768Y-34237792D01*
X67589021Y-34206538D01*
X67568324Y-34182054D01*
X67487822Y-34057617D01*
X67487820Y-34057614D01*
X67485014Y-34053277D01*
X67334670Y-33888051D01*
X67330619Y-33884852D01*
X67330615Y-33884848D01*
X67163414Y-33752800D01*
X67163410Y-33752798D01*
X67159359Y-33749598D01*
X67119472Y-33727579D01*
X67084221Y-33708120D01*
X66963789Y-33641638D01*
X66958920Y-33639914D01*
X66958916Y-33639912D01*
X66758087Y-33568795D01*
X66758083Y-33568794D01*
X66753212Y-33567069D01*
X66748119Y-33566162D01*
X66748116Y-33566161D01*
X66538373Y-33528800D01*
X66538367Y-33528799D01*
X66533284Y-33527894D01*
X66459452Y-33526992D01*
X66315081Y-33525228D01*
X66315079Y-33525228D01*
X66309911Y-33525165D01*
X66089091Y-33558955D01*
X65876756Y-33628357D01*
X65846443Y-33644137D01*
X65686153Y-33727579D01*
X65678607Y-33731507D01*
X65674474Y-33734610D01*
X65674471Y-33734612D01*
X65504100Y-33862530D01*
X65499965Y-33865635D01*
X65460525Y-33906907D01*
X65406280Y-33963671D01*
X65345629Y-34027138D01*
X65238201Y-34184621D01*
X65183293Y-34229621D01*
X65112768Y-34237792D01*
X65049021Y-34206538D01*
X65028324Y-34182054D01*
X64947822Y-34057617D01*
X64947820Y-34057614D01*
X64945014Y-34053277D01*
X64794670Y-33888051D01*
X64790619Y-33884852D01*
X64790615Y-33884848D01*
X64623414Y-33752800D01*
X64623410Y-33752798D01*
X64619359Y-33749598D01*
X64579472Y-33727579D01*
X64544221Y-33708120D01*
X64423789Y-33641638D01*
X64418920Y-33639914D01*
X64418916Y-33639912D01*
X64218087Y-33568795D01*
X64218083Y-33568794D01*
X64213212Y-33567069D01*
X64208119Y-33566162D01*
X64208116Y-33566161D01*
X63998373Y-33528800D01*
X63998367Y-33528799D01*
X63993284Y-33527894D01*
X63919452Y-33526992D01*
X63775081Y-33525228D01*
X63775079Y-33525228D01*
X63769911Y-33525165D01*
X63549091Y-33558955D01*
X63336756Y-33628357D01*
X63306443Y-33644137D01*
X63146153Y-33727579D01*
X63138607Y-33731507D01*
X63134474Y-33734610D01*
X63134471Y-33734612D01*
X62964100Y-33862530D01*
X62959965Y-33865635D01*
X62920525Y-33906907D01*
X62866280Y-33963671D01*
X62805629Y-34027138D01*
X62679743Y-34211680D01*
X62585688Y-34414305D01*
X62525989Y-34629570D01*
X62502251Y-34851695D01*
X62515110Y-35074715D01*
X62516247Y-35079761D01*
X62516248Y-35079767D01*
X62540304Y-35186508D01*
X62564222Y-35292639D01*
X62648266Y-35499616D01*
X62685685Y-35560678D01*
X62762291Y-35685688D01*
X62764987Y-35690088D01*
X62911250Y-35858938D01*
X63083126Y-36001632D01*
X63139852Y-36034780D01*
X63156445Y-36044476D01*
X63205169Y-36096114D01*
X63218240Y-36165897D01*
X63191509Y-36231669D01*
X63151055Y-36265027D01*
X63138607Y-36271507D01*
X63134474Y-36274610D01*
X63134471Y-36274612D01*
X63010567Y-36367642D01*
X62959965Y-36405635D01*
X62805629Y-36567138D01*
X62679743Y-36751680D01*
X62585688Y-36954305D01*
X62525989Y-37169570D01*
X62502251Y-37391695D01*
X62502548Y-37396848D01*
X62502548Y-37396851D01*
X62508011Y-37491590D01*
X62515110Y-37614715D01*
X62516247Y-37619761D01*
X62516248Y-37619767D01*
X62536119Y-37707939D01*
X62564222Y-37832639D01*
X62648266Y-38039616D01*
X62686500Y-38102008D01*
X62762291Y-38225688D01*
X62764987Y-38230088D01*
X62911250Y-38398938D01*
X63083126Y-38541632D01*
X63276000Y-38654338D01*
X63280825Y-38656180D01*
X63280826Y-38656181D01*
X63326096Y-38673468D01*
X63484692Y-38734030D01*
X63489760Y-38735061D01*
X63489763Y-38735062D01*
X63588839Y-38755219D01*
X63703597Y-38778567D01*
X63708772Y-38778757D01*
X63708774Y-38778757D01*
X63921673Y-38786564D01*
X63921677Y-38786564D01*
X63926837Y-38786753D01*
X63931957Y-38786097D01*
X63931959Y-38786097D01*
X64143288Y-38759025D01*
X64143289Y-38759025D01*
X64148416Y-38758368D01*
X64153369Y-38756882D01*
X64357429Y-38695661D01*
X64357434Y-38695659D01*
X64362384Y-38694174D01*
X64562994Y-38595896D01*
X64744860Y-38466173D01*
X64750997Y-38460058D01*
X64899435Y-38312137D01*
X64903096Y-38308489D01*
X64962594Y-38225689D01*
X65033453Y-38127077D01*
X65034776Y-38128028D01*
X65081645Y-38084857D01*
X65151580Y-38072625D01*
X65217026Y-38100144D01*
X65244875Y-38131994D01*
X65304987Y-38230088D01*
X65451250Y-38398938D01*
X65623126Y-38541632D01*
X65816000Y-38654338D01*
X65820825Y-38656180D01*
X65820826Y-38656181D01*
X65866096Y-38673468D01*
X65995329Y-38722817D01*
X65995449Y-38722863D01*
X66051952Y-38765851D01*
X66076245Y-38832562D01*
X66076500Y-38840573D01*
X66076500Y-39906747D01*
X66056498Y-39974868D01*
X66002842Y-40021361D01*
X65932568Y-40031465D01*
X65917889Y-40028454D01*
X65806497Y-39998606D01*
X65792401Y-39998942D01*
X65789000Y-40006884D01*
X65789000Y-41408000D01*
X65768998Y-41476121D01*
X65715342Y-41522614D01*
X65663000Y-41534000D01*
X65407000Y-41534000D01*
X65338879Y-41513998D01*
X65292386Y-41460342D01*
X65281000Y-41408000D01*
X65281000Y-40012033D01*
X65277027Y-39998502D01*
X65268478Y-39997273D01*
X65091239Y-40044764D01*
X65080947Y-40048510D01*
X64883489Y-40140586D01*
X64873993Y-40146069D01*
X64695533Y-40271028D01*
X64687125Y-40278084D01*
X64533084Y-40432125D01*
X64526028Y-40440533D01*
X64401069Y-40618993D01*
X64395586Y-40628489D01*
X64379471Y-40663049D01*
X64332554Y-40716334D01*
X64264277Y-40735795D01*
X64196317Y-40715253D01*
X64151081Y-40663049D01*
X64134849Y-40628238D01*
X64134846Y-40628233D01*
X64132523Y-40623251D01*
X64024381Y-40468809D01*
X64004357Y-40440211D01*
X64004355Y-40440208D01*
X64001198Y-40435700D01*
X63839300Y-40273802D01*
X63834792Y-40270645D01*
X63834789Y-40270643D01*
X63691944Y-40170622D01*
X63651749Y-40142477D01*
X63646767Y-40140154D01*
X63646762Y-40140151D01*
X63449225Y-40048039D01*
X63449224Y-40048039D01*
X63444243Y-40045716D01*
X63438935Y-40044294D01*
X63438933Y-40044293D01*
X63228402Y-39987881D01*
X63228400Y-39987881D01*
X63223087Y-39986457D01*
X62995000Y-39966502D01*
X62766913Y-39986457D01*
X62761600Y-39987881D01*
X62761598Y-39987881D01*
X62551067Y-40044293D01*
X62551065Y-40044294D01*
X62545757Y-40045716D01*
X62540776Y-40048039D01*
X62540775Y-40048039D01*
X62343238Y-40140151D01*
X62343233Y-40140154D01*
X62338251Y-40142477D01*
X62298056Y-40170622D01*
X62155211Y-40270643D01*
X62155208Y-40270645D01*
X62150700Y-40273802D01*
X61988802Y-40435700D01*
X61985645Y-40440208D01*
X61985643Y-40440211D01*
X61862713Y-40615773D01*
X61807256Y-40660101D01*
X61736636Y-40667410D01*
X61673276Y-40635379D01*
X61637291Y-40574178D01*
X61633500Y-40543502D01*
X61633500Y-33220500D01*
X61653502Y-33152379D01*
X61707158Y-33105886D01*
X61759500Y-33094500D01*
X69985405Y-33094500D01*
X70053526Y-33114502D01*
G37*
%TD.AperFunction*%
%TA.AperFunction,Conductor*%
G36*
X77916751Y-38099678D02*
G01*
X77944579Y-38131511D01*
X77955743Y-38149729D01*
X78004987Y-38230088D01*
X78151250Y-38398938D01*
X78323126Y-38541632D01*
X78516000Y-38654338D01*
X78520825Y-38656180D01*
X78520826Y-38656181D01*
X78566096Y-38673468D01*
X78724692Y-38734030D01*
X78729760Y-38735061D01*
X78729763Y-38735062D01*
X78828839Y-38755219D01*
X78943597Y-38778567D01*
X78948772Y-38778757D01*
X78948774Y-38778757D01*
X79161673Y-38786564D01*
X79161677Y-38786564D01*
X79166837Y-38786753D01*
X79171957Y-38786097D01*
X79171959Y-38786097D01*
X79383288Y-38759025D01*
X79383289Y-38759025D01*
X79388416Y-38758368D01*
X79393369Y-38756882D01*
X79597429Y-38695661D01*
X79597434Y-38695659D01*
X79602384Y-38694174D01*
X79802994Y-38595896D01*
X79984860Y-38466173D01*
X79990997Y-38460058D01*
X80139435Y-38312137D01*
X80143096Y-38308489D01*
X80202594Y-38225689D01*
X80273453Y-38127077D01*
X80274776Y-38128028D01*
X80321645Y-38084857D01*
X80391580Y-38072625D01*
X80457026Y-38100144D01*
X80484875Y-38131994D01*
X80544987Y-38230088D01*
X80691250Y-38398938D01*
X80863126Y-38541632D01*
X81056000Y-38654338D01*
X81060825Y-38656180D01*
X81060826Y-38656181D01*
X81106096Y-38673468D01*
X81264692Y-38734030D01*
X81269760Y-38735061D01*
X81269763Y-38735062D01*
X81368839Y-38755219D01*
X81483597Y-38778567D01*
X81488772Y-38778757D01*
X81488774Y-38778757D01*
X81701673Y-38786564D01*
X81701677Y-38786564D01*
X81706837Y-38786753D01*
X81711957Y-38786097D01*
X81711959Y-38786097D01*
X81923288Y-38759025D01*
X81923289Y-38759025D01*
X81928416Y-38758368D01*
X81933369Y-38756882D01*
X82137429Y-38695661D01*
X82137434Y-38695659D01*
X82142384Y-38694174D01*
X82342994Y-38595896D01*
X82524860Y-38466173D01*
X82530997Y-38460058D01*
X82679435Y-38312137D01*
X82683096Y-38308489D01*
X82742594Y-38225689D01*
X82813453Y-38127077D01*
X82814776Y-38128028D01*
X82861645Y-38084857D01*
X82931580Y-38072625D01*
X82997026Y-38100144D01*
X83024875Y-38131994D01*
X83084987Y-38230088D01*
X83231250Y-38398938D01*
X83403126Y-38541632D01*
X83596000Y-38654338D01*
X83600825Y-38656180D01*
X83600826Y-38656181D01*
X83646096Y-38673468D01*
X83804692Y-38734030D01*
X83809760Y-38735061D01*
X83809763Y-38735062D01*
X83945621Y-38762703D01*
X84008386Y-38795884D01*
X84043248Y-38857732D01*
X84046500Y-38886173D01*
X84046500Y-39979554D01*
X84026498Y-40047675D01*
X83972842Y-40094168D01*
X83902568Y-40104272D01*
X83867252Y-40093750D01*
X83764243Y-40045716D01*
X83758935Y-40044294D01*
X83758933Y-40044293D01*
X83548402Y-39987881D01*
X83548400Y-39987881D01*
X83543087Y-39986457D01*
X83315000Y-39966502D01*
X83086913Y-39986457D01*
X83081600Y-39987881D01*
X83081598Y-39987881D01*
X82871067Y-40044293D01*
X82871065Y-40044294D01*
X82865757Y-40045716D01*
X82860776Y-40048039D01*
X82860775Y-40048039D01*
X82663238Y-40140151D01*
X82663233Y-40140154D01*
X82658251Y-40142477D01*
X82618056Y-40170622D01*
X82475211Y-40270643D01*
X82475208Y-40270645D01*
X82470700Y-40273802D01*
X82308802Y-40435700D01*
X82305645Y-40440208D01*
X82305643Y-40440211D01*
X82285619Y-40468809D01*
X82177477Y-40623251D01*
X82175154Y-40628233D01*
X82175151Y-40628238D01*
X82159195Y-40662457D01*
X82112278Y-40715742D01*
X82044001Y-40735203D01*
X81976041Y-40714661D01*
X81930805Y-40662457D01*
X81914849Y-40628238D01*
X81914846Y-40628233D01*
X81912523Y-40623251D01*
X81804381Y-40468809D01*
X81784357Y-40440211D01*
X81784355Y-40440208D01*
X81781198Y-40435700D01*
X81619300Y-40273802D01*
X81614792Y-40270645D01*
X81614789Y-40270643D01*
X81471944Y-40170622D01*
X81431749Y-40142477D01*
X81426767Y-40140154D01*
X81426762Y-40140151D01*
X81229225Y-40048039D01*
X81229224Y-40048039D01*
X81224243Y-40045716D01*
X81218935Y-40044294D01*
X81218933Y-40044293D01*
X81008402Y-39987881D01*
X81008400Y-39987881D01*
X81003087Y-39986457D01*
X80775000Y-39966502D01*
X80546913Y-39986457D01*
X80541600Y-39987881D01*
X80541598Y-39987881D01*
X80331067Y-40044293D01*
X80331065Y-40044294D01*
X80325757Y-40045716D01*
X80320776Y-40048039D01*
X80320775Y-40048039D01*
X80123238Y-40140151D01*
X80123233Y-40140154D01*
X80118251Y-40142477D01*
X80078056Y-40170622D01*
X79935211Y-40270643D01*
X79935208Y-40270645D01*
X79930700Y-40273802D01*
X79768802Y-40435700D01*
X79765645Y-40440208D01*
X79765643Y-40440211D01*
X79745619Y-40468809D01*
X79637477Y-40623251D01*
X79635154Y-40628233D01*
X79635151Y-40628238D01*
X79619195Y-40662457D01*
X79572278Y-40715742D01*
X79504001Y-40735203D01*
X79436041Y-40714661D01*
X79390805Y-40662457D01*
X79374849Y-40628238D01*
X79374846Y-40628233D01*
X79372523Y-40623251D01*
X79264381Y-40468809D01*
X79244357Y-40440211D01*
X79244355Y-40440208D01*
X79241198Y-40435700D01*
X79079300Y-40273802D01*
X79074792Y-40270645D01*
X79074789Y-40270643D01*
X78931944Y-40170622D01*
X78891749Y-40142477D01*
X78886767Y-40140154D01*
X78886762Y-40140151D01*
X78689225Y-40048039D01*
X78689224Y-40048039D01*
X78684243Y-40045716D01*
X78678935Y-40044294D01*
X78678933Y-40044293D01*
X78468402Y-39987881D01*
X78468400Y-39987881D01*
X78463087Y-39986457D01*
X78235000Y-39966502D01*
X78006913Y-39986457D01*
X78001600Y-39987881D01*
X78001598Y-39987881D01*
X77820310Y-40036457D01*
X77749334Y-40034767D01*
X77690538Y-39994973D01*
X77662590Y-39929709D01*
X77661699Y-39914750D01*
X77661699Y-39628667D01*
X77662226Y-39617484D01*
X77663901Y-39609991D01*
X77662720Y-39572405D01*
X77661761Y-39541914D01*
X77661699Y-39537955D01*
X77661699Y-39510044D01*
X77661194Y-39506044D01*
X77660261Y-39494201D01*
X77659121Y-39457929D01*
X77658872Y-39450010D01*
X77653221Y-39430558D01*
X77649213Y-39411206D01*
X77647666Y-39398963D01*
X77646673Y-39391103D01*
X77642443Y-39380419D01*
X77630399Y-39349997D01*
X77626554Y-39338770D01*
X77622698Y-39325499D01*
X77614217Y-39296307D01*
X77610183Y-39289485D01*
X77610180Y-39289479D01*
X77603905Y-39278868D01*
X77595209Y-39261118D01*
X77590671Y-39249656D01*
X77590668Y-39249651D01*
X77587751Y-39242283D01*
X77570135Y-39218036D01*
X77561772Y-39206525D01*
X77555256Y-39196607D01*
X77540286Y-39171295D01*
X77532741Y-39158537D01*
X77518417Y-39144213D01*
X77505575Y-39129178D01*
X77500370Y-39122014D01*
X77493671Y-39112793D01*
X77459605Y-39084611D01*
X77450826Y-39076622D01*
X77190710Y-38816506D01*
X77156684Y-38754194D01*
X77161749Y-38683379D01*
X77204296Y-38626543D01*
X77224373Y-38614259D01*
X77258102Y-38597736D01*
X77266940Y-38592467D01*
X77440328Y-38468792D01*
X77448200Y-38462139D01*
X77599052Y-38311812D01*
X77605730Y-38303965D01*
X77733022Y-38126819D01*
X77734279Y-38127722D01*
X77781373Y-38084362D01*
X77851311Y-38072145D01*
X77916751Y-38099678D01*
G37*
%TD.AperFunction*%
%TA.AperFunction,Conductor*%
G36*
X99621121Y-37191002D02*
G01*
X99667614Y-37244658D01*
X99679000Y-37297000D01*
X99679000Y-38743517D01*
X99683064Y-38757359D01*
X99696478Y-38759393D01*
X99703184Y-38758534D01*
X99713262Y-38756392D01*
X99917255Y-38695191D01*
X99926842Y-38691433D01*
X100118095Y-38597739D01*
X100126945Y-38592464D01*
X100300328Y-38468792D01*
X100308200Y-38462139D01*
X100459052Y-38311812D01*
X100465730Y-38303965D01*
X100593022Y-38126819D01*
X100594279Y-38127722D01*
X100641373Y-38084362D01*
X100711311Y-38072145D01*
X100776751Y-38099678D01*
X100804579Y-38131511D01*
X100815743Y-38149729D01*
X100864987Y-38230088D01*
X101011250Y-38398938D01*
X101183126Y-38541632D01*
X101376000Y-38654338D01*
X101380825Y-38656180D01*
X101380826Y-38656181D01*
X101426096Y-38673468D01*
X101584692Y-38734030D01*
X101589760Y-38735061D01*
X101589763Y-38735062D01*
X101688839Y-38755219D01*
X101803597Y-38778567D01*
X101808772Y-38778757D01*
X101808774Y-38778757D01*
X102021673Y-38786564D01*
X102021677Y-38786564D01*
X102026837Y-38786753D01*
X102031957Y-38786097D01*
X102031959Y-38786097D01*
X102243288Y-38759025D01*
X102243289Y-38759025D01*
X102248416Y-38758368D01*
X102253369Y-38756882D01*
X102457429Y-38695661D01*
X102457434Y-38695659D01*
X102462384Y-38694174D01*
X102505069Y-38673263D01*
X102575041Y-38661256D01*
X102640398Y-38688986D01*
X102680388Y-38747648D01*
X102686500Y-38786414D01*
X102686500Y-39801376D01*
X102666498Y-39869497D01*
X102612842Y-39915990D01*
X102555982Y-39925785D01*
X102555982Y-39926981D01*
X102550475Y-39926981D01*
X102545000Y-39926502D01*
X102316913Y-39946457D01*
X102311600Y-39947881D01*
X102311598Y-39947881D01*
X102101067Y-40004293D01*
X102101065Y-40004294D01*
X102095757Y-40005716D01*
X102090776Y-40008039D01*
X102090775Y-40008039D01*
X101893238Y-40100151D01*
X101893233Y-40100154D01*
X101888251Y-40102477D01*
X101790930Y-40170622D01*
X101705211Y-40230643D01*
X101705208Y-40230645D01*
X101700700Y-40233802D01*
X101538802Y-40395700D01*
X101535645Y-40400208D01*
X101535643Y-40400211D01*
X101480902Y-40478389D01*
X101407477Y-40583251D01*
X101405154Y-40588233D01*
X101405151Y-40588238D01*
X101389195Y-40622457D01*
X101342278Y-40675742D01*
X101274001Y-40695203D01*
X101206041Y-40674661D01*
X101160805Y-40622457D01*
X101144849Y-40588238D01*
X101144846Y-40588233D01*
X101142523Y-40583251D01*
X101069098Y-40478389D01*
X101014357Y-40400211D01*
X101014355Y-40400208D01*
X101011198Y-40395700D01*
X100849300Y-40233802D01*
X100844792Y-40230645D01*
X100844789Y-40230643D01*
X100759070Y-40170622D01*
X100661749Y-40102477D01*
X100656767Y-40100154D01*
X100656762Y-40100151D01*
X100459225Y-40008039D01*
X100459224Y-40008039D01*
X100454243Y-40005716D01*
X100448935Y-40004294D01*
X100448933Y-40004293D01*
X100238402Y-39947881D01*
X100238400Y-39947881D01*
X100233087Y-39946457D01*
X100005000Y-39926502D01*
X99776913Y-39946457D01*
X99771600Y-39947881D01*
X99771598Y-39947881D01*
X99561067Y-40004293D01*
X99561065Y-40004294D01*
X99555757Y-40005716D01*
X99550776Y-40008039D01*
X99550775Y-40008039D01*
X99489832Y-40036457D01*
X99427719Y-40065421D01*
X99402750Y-40077064D01*
X99332558Y-40087725D01*
X99267745Y-40058745D01*
X99228889Y-39999325D01*
X99223500Y-39962869D01*
X99223500Y-39208767D01*
X99224027Y-39197584D01*
X99225702Y-39190091D01*
X99225421Y-39181134D01*
X99223562Y-39122014D01*
X99223500Y-39118055D01*
X99223500Y-39090144D01*
X99222995Y-39086144D01*
X99222062Y-39074301D01*
X99221994Y-39072114D01*
X99220673Y-39030110D01*
X99215022Y-39010658D01*
X99211014Y-38991306D01*
X99209467Y-38979063D01*
X99208474Y-38971203D01*
X99205556Y-38963832D01*
X99192200Y-38930097D01*
X99188355Y-38918870D01*
X99181195Y-38894226D01*
X99176018Y-38876407D01*
X99171983Y-38869584D01*
X99168835Y-38862310D01*
X99170787Y-38861465D01*
X99156035Y-38803326D01*
X99163309Y-38765566D01*
X99171000Y-38744064D01*
X99171000Y-37297000D01*
X99191002Y-37228879D01*
X99244658Y-37182386D01*
X99297000Y-37171000D01*
X99553000Y-37171000D01*
X99621121Y-37191002D01*
G37*
%TD.AperFunction*%
%TA.AperFunction,Conductor*%
G36*
X113898621Y-33114502D02*
G01*
X113945114Y-33168158D01*
X113956500Y-33220500D01*
X113956500Y-40346406D01*
X113936498Y-40414527D01*
X113882842Y-40461020D01*
X113812568Y-40471124D01*
X113747988Y-40441630D01*
X113727288Y-40418678D01*
X113714359Y-40400214D01*
X113714357Y-40400212D01*
X113711198Y-40395700D01*
X113549300Y-40233802D01*
X113544792Y-40230645D01*
X113544789Y-40230643D01*
X113459070Y-40170622D01*
X113361749Y-40102477D01*
X113356767Y-40100154D01*
X113356762Y-40100151D01*
X113159225Y-40008039D01*
X113159224Y-40008039D01*
X113154243Y-40005716D01*
X113148935Y-40004294D01*
X113148933Y-40004293D01*
X112938402Y-39947881D01*
X112938400Y-39947881D01*
X112933087Y-39946457D01*
X112705000Y-39926502D01*
X112476913Y-39946457D01*
X112471600Y-39947881D01*
X112471598Y-39947881D01*
X112261067Y-40004293D01*
X112261065Y-40004294D01*
X112255757Y-40005716D01*
X112250776Y-40008039D01*
X112250775Y-40008039D01*
X112053238Y-40100151D01*
X112053233Y-40100154D01*
X112048251Y-40102477D01*
X111950930Y-40170622D01*
X111865211Y-40230643D01*
X111865208Y-40230645D01*
X111860700Y-40233802D01*
X111698802Y-40395700D01*
X111695645Y-40400208D01*
X111695643Y-40400211D01*
X111640902Y-40478389D01*
X111567477Y-40583251D01*
X111565154Y-40588233D01*
X111565151Y-40588238D01*
X111549195Y-40622457D01*
X111502278Y-40675742D01*
X111434001Y-40695203D01*
X111366041Y-40674661D01*
X111320805Y-40622457D01*
X111304849Y-40588238D01*
X111304846Y-40588233D01*
X111302523Y-40583251D01*
X111229098Y-40478389D01*
X111174357Y-40400211D01*
X111174355Y-40400208D01*
X111171198Y-40395700D01*
X111009300Y-40233802D01*
X111004792Y-40230645D01*
X111004789Y-40230643D01*
X110919070Y-40170622D01*
X110821749Y-40102477D01*
X110816767Y-40100154D01*
X110816762Y-40100151D01*
X110619225Y-40008039D01*
X110619224Y-40008039D01*
X110614243Y-40005716D01*
X110608935Y-40004294D01*
X110608933Y-40004293D01*
X110398402Y-39947881D01*
X110398400Y-39947881D01*
X110393087Y-39946457D01*
X110165000Y-39926502D01*
X109936913Y-39946457D01*
X109931608Y-39947879D01*
X109931594Y-39947881D01*
X109873461Y-39963459D01*
X109802484Y-39961771D01*
X109751752Y-39930848D01*
X109422969Y-39602064D01*
X109080404Y-39259499D01*
X109046379Y-39197187D01*
X109043500Y-39170404D01*
X109043500Y-38854574D01*
X109063502Y-38786453D01*
X109117158Y-38739960D01*
X109187432Y-38729856D01*
X109202009Y-38733006D01*
X109204692Y-38734030D01*
X109209762Y-38735061D01*
X109209767Y-38735063D01*
X109329354Y-38759393D01*
X109423597Y-38778567D01*
X109428772Y-38778757D01*
X109428774Y-38778757D01*
X109641673Y-38786564D01*
X109641677Y-38786564D01*
X109646837Y-38786753D01*
X109651957Y-38786097D01*
X109651959Y-38786097D01*
X109863288Y-38759025D01*
X109863289Y-38759025D01*
X109868416Y-38758368D01*
X109873369Y-38756882D01*
X110077429Y-38695661D01*
X110077434Y-38695659D01*
X110082384Y-38694174D01*
X110282994Y-38595896D01*
X110464860Y-38466173D01*
X110470997Y-38460058D01*
X110619435Y-38312137D01*
X110623096Y-38308489D01*
X110682594Y-38225689D01*
X110753453Y-38127077D01*
X110754776Y-38128028D01*
X110801645Y-38084857D01*
X110871580Y-38072625D01*
X110937026Y-38100144D01*
X110964875Y-38131994D01*
X111024987Y-38230088D01*
X111171250Y-38398938D01*
X111343126Y-38541632D01*
X111536000Y-38654338D01*
X111540825Y-38656180D01*
X111540826Y-38656181D01*
X111586096Y-38673468D01*
X111744692Y-38734030D01*
X111749760Y-38735061D01*
X111749763Y-38735062D01*
X111848839Y-38755219D01*
X111963597Y-38778567D01*
X111968772Y-38778757D01*
X111968774Y-38778757D01*
X112181673Y-38786564D01*
X112181677Y-38786564D01*
X112186837Y-38786753D01*
X112191957Y-38786097D01*
X112191959Y-38786097D01*
X112403288Y-38759025D01*
X112403289Y-38759025D01*
X112408416Y-38758368D01*
X112413369Y-38756882D01*
X112617429Y-38695661D01*
X112617434Y-38695659D01*
X112622384Y-38694174D01*
X112822994Y-38595896D01*
X113004860Y-38466173D01*
X113010997Y-38460058D01*
X113159435Y-38312137D01*
X113163096Y-38308489D01*
X113222594Y-38225689D01*
X113290435Y-38131277D01*
X113293453Y-38127077D01*
X113306995Y-38099678D01*
X113390136Y-37931453D01*
X113390137Y-37931451D01*
X113392430Y-37926811D01*
X113457370Y-37713069D01*
X113486529Y-37491590D01*
X113488156Y-37425000D01*
X113469852Y-37202361D01*
X113415431Y-36985702D01*
X113326354Y-36780840D01*
X113205014Y-36593277D01*
X113201532Y-36589450D01*
X113057798Y-36431488D01*
X113026746Y-36367642D01*
X113035141Y-36297143D01*
X113080317Y-36242375D01*
X113106761Y-36228706D01*
X113213297Y-36188767D01*
X113221705Y-36185615D01*
X113338261Y-36098261D01*
X113425615Y-35981705D01*
X113476745Y-35845316D01*
X113483500Y-35783134D01*
X113483500Y-33986866D01*
X113476745Y-33924684D01*
X113425615Y-33788295D01*
X113338261Y-33671739D01*
X113221705Y-33584385D01*
X113085316Y-33533255D01*
X113023134Y-33526500D01*
X111226866Y-33526500D01*
X111164684Y-33533255D01*
X111028295Y-33584385D01*
X110911739Y-33671739D01*
X110824385Y-33788295D01*
X110821233Y-33796703D01*
X110779919Y-33906907D01*
X110737277Y-33963671D01*
X110670716Y-33988371D01*
X110601367Y-33973163D01*
X110568743Y-33947476D01*
X110518151Y-33891875D01*
X110518142Y-33891866D01*
X110514670Y-33888051D01*
X110510619Y-33884852D01*
X110510615Y-33884848D01*
X110343414Y-33752800D01*
X110343410Y-33752798D01*
X110339359Y-33749598D01*
X110299472Y-33727579D01*
X110264221Y-33708120D01*
X110143789Y-33641638D01*
X110138920Y-33639914D01*
X110138916Y-33639912D01*
X109938087Y-33568795D01*
X109938083Y-33568794D01*
X109933212Y-33567069D01*
X109928119Y-33566162D01*
X109928116Y-33566161D01*
X109718373Y-33528800D01*
X109718367Y-33528799D01*
X109713284Y-33527894D01*
X109639452Y-33526992D01*
X109495081Y-33525228D01*
X109495079Y-33525228D01*
X109489911Y-33525165D01*
X109269091Y-33558955D01*
X109056756Y-33628357D01*
X109026443Y-33644137D01*
X108866153Y-33727579D01*
X108858607Y-33731507D01*
X108854474Y-33734610D01*
X108854471Y-33734612D01*
X108684100Y-33862530D01*
X108679965Y-33865635D01*
X108640525Y-33906907D01*
X108586280Y-33963671D01*
X108525629Y-34027138D01*
X108418201Y-34184621D01*
X108363293Y-34229621D01*
X108292768Y-34237792D01*
X108229021Y-34206538D01*
X108208324Y-34182054D01*
X108127822Y-34057617D01*
X108127820Y-34057614D01*
X108125014Y-34053277D01*
X107974670Y-33888051D01*
X107970619Y-33884852D01*
X107970615Y-33884848D01*
X107803414Y-33752800D01*
X107803410Y-33752798D01*
X107799359Y-33749598D01*
X107759472Y-33727579D01*
X107724221Y-33708120D01*
X107603789Y-33641638D01*
X107598920Y-33639914D01*
X107598916Y-33639912D01*
X107398087Y-33568795D01*
X107398083Y-33568794D01*
X107393212Y-33567069D01*
X107388119Y-33566162D01*
X107388116Y-33566161D01*
X107178373Y-33528800D01*
X107178367Y-33528799D01*
X107173284Y-33527894D01*
X107099452Y-33526992D01*
X106955081Y-33525228D01*
X106955079Y-33525228D01*
X106949911Y-33525165D01*
X106729091Y-33558955D01*
X106516756Y-33628357D01*
X106486443Y-33644137D01*
X106326153Y-33727579D01*
X106318607Y-33731507D01*
X106314474Y-33734610D01*
X106314471Y-33734612D01*
X106144100Y-33862530D01*
X106139965Y-33865635D01*
X106100525Y-33906907D01*
X106046280Y-33963671D01*
X105985629Y-34027138D01*
X105878201Y-34184621D01*
X105823293Y-34229621D01*
X105752768Y-34237792D01*
X105689021Y-34206538D01*
X105668324Y-34182054D01*
X105587822Y-34057617D01*
X105587820Y-34057614D01*
X105585014Y-34053277D01*
X105434670Y-33888051D01*
X105430619Y-33884852D01*
X105430615Y-33884848D01*
X105263414Y-33752800D01*
X105263410Y-33752798D01*
X105259359Y-33749598D01*
X105219472Y-33727579D01*
X105184221Y-33708120D01*
X105063789Y-33641638D01*
X105058920Y-33639914D01*
X105058916Y-33639912D01*
X104858087Y-33568795D01*
X104858083Y-33568794D01*
X104853212Y-33567069D01*
X104848119Y-33566162D01*
X104848116Y-33566161D01*
X104638373Y-33528800D01*
X104638367Y-33528799D01*
X104633284Y-33527894D01*
X104559452Y-33526992D01*
X104415081Y-33525228D01*
X104415079Y-33525228D01*
X104409911Y-33525165D01*
X104189091Y-33558955D01*
X103976756Y-33628357D01*
X103946443Y-33644137D01*
X103786153Y-33727579D01*
X103778607Y-33731507D01*
X103774474Y-33734610D01*
X103774471Y-33734612D01*
X103604100Y-33862530D01*
X103599965Y-33865635D01*
X103560525Y-33906907D01*
X103506280Y-33963671D01*
X103445629Y-34027138D01*
X103338201Y-34184621D01*
X103283293Y-34229621D01*
X103212768Y-34237792D01*
X103149021Y-34206538D01*
X103128324Y-34182054D01*
X103047822Y-34057617D01*
X103047820Y-34057614D01*
X103045014Y-34053277D01*
X102894670Y-33888051D01*
X102890619Y-33884852D01*
X102890615Y-33884848D01*
X102723414Y-33752800D01*
X102723410Y-33752798D01*
X102719359Y-33749598D01*
X102679472Y-33727579D01*
X102644221Y-33708120D01*
X102523789Y-33641638D01*
X102518920Y-33639914D01*
X102518916Y-33639912D01*
X102318087Y-33568795D01*
X102318083Y-33568794D01*
X102313212Y-33567069D01*
X102308119Y-33566162D01*
X102308116Y-33566161D01*
X102098373Y-33528800D01*
X102098367Y-33528799D01*
X102093284Y-33527894D01*
X102019452Y-33526992D01*
X101875081Y-33525228D01*
X101875079Y-33525228D01*
X101869911Y-33525165D01*
X101649091Y-33558955D01*
X101436756Y-33628357D01*
X101406443Y-33644137D01*
X101246153Y-33727579D01*
X101238607Y-33731507D01*
X101234474Y-33734610D01*
X101234471Y-33734612D01*
X101064100Y-33862530D01*
X101059965Y-33865635D01*
X101020525Y-33906907D01*
X100966280Y-33963671D01*
X100905629Y-34027138D01*
X100798201Y-34184621D01*
X100743293Y-34229621D01*
X100672768Y-34237792D01*
X100609021Y-34206538D01*
X100588324Y-34182054D01*
X100507822Y-34057617D01*
X100507820Y-34057614D01*
X100505014Y-34053277D01*
X100354670Y-33888051D01*
X100350619Y-33884852D01*
X100350615Y-33884848D01*
X100183414Y-33752800D01*
X100183410Y-33752798D01*
X100179359Y-33749598D01*
X100139472Y-33727579D01*
X100104221Y-33708120D01*
X99983789Y-33641638D01*
X99978920Y-33639914D01*
X99978916Y-33639912D01*
X99778087Y-33568795D01*
X99778083Y-33568794D01*
X99773212Y-33567069D01*
X99768119Y-33566162D01*
X99768116Y-33566161D01*
X99558373Y-33528800D01*
X99558367Y-33528799D01*
X99553284Y-33527894D01*
X99479452Y-33526992D01*
X99335081Y-33525228D01*
X99335079Y-33525228D01*
X99329911Y-33525165D01*
X99109091Y-33558955D01*
X98896756Y-33628357D01*
X98866443Y-33644137D01*
X98706153Y-33727579D01*
X98698607Y-33731507D01*
X98694474Y-33734610D01*
X98694471Y-33734612D01*
X98524100Y-33862530D01*
X98519965Y-33865635D01*
X98480525Y-33906907D01*
X98426280Y-33963671D01*
X98365629Y-34027138D01*
X98258201Y-34184621D01*
X98203293Y-34229621D01*
X98132768Y-34237792D01*
X98069021Y-34206538D01*
X98048324Y-34182054D01*
X97967822Y-34057617D01*
X97967820Y-34057614D01*
X97965014Y-34053277D01*
X97814670Y-33888051D01*
X97810619Y-33884852D01*
X97810615Y-33884848D01*
X97643414Y-33752800D01*
X97643410Y-33752798D01*
X97639359Y-33749598D01*
X97599472Y-33727579D01*
X97564221Y-33708120D01*
X97443789Y-33641638D01*
X97438920Y-33639914D01*
X97438916Y-33639912D01*
X97238087Y-33568795D01*
X97238083Y-33568794D01*
X97233212Y-33567069D01*
X97228119Y-33566162D01*
X97228116Y-33566161D01*
X97018373Y-33528800D01*
X97018367Y-33528799D01*
X97013284Y-33527894D01*
X96939452Y-33526992D01*
X96795081Y-33525228D01*
X96795079Y-33525228D01*
X96789911Y-33525165D01*
X96569091Y-33558955D01*
X96356756Y-33628357D01*
X96326443Y-33644137D01*
X96166153Y-33727579D01*
X96158607Y-33731507D01*
X96154474Y-33734610D01*
X96154471Y-33734612D01*
X95984100Y-33862530D01*
X95979965Y-33865635D01*
X95940525Y-33906907D01*
X95886280Y-33963671D01*
X95825629Y-34027138D01*
X95718201Y-34184621D01*
X95663293Y-34229621D01*
X95592768Y-34237792D01*
X95529021Y-34206538D01*
X95508324Y-34182054D01*
X95427822Y-34057617D01*
X95427820Y-34057614D01*
X95425014Y-34053277D01*
X95274670Y-33888051D01*
X95270619Y-33884852D01*
X95270615Y-33884848D01*
X95103414Y-33752800D01*
X95103410Y-33752798D01*
X95099359Y-33749598D01*
X95059472Y-33727579D01*
X95024221Y-33708120D01*
X94903789Y-33641638D01*
X94898920Y-33639914D01*
X94898916Y-33639912D01*
X94698087Y-33568795D01*
X94698083Y-33568794D01*
X94693212Y-33567069D01*
X94688119Y-33566162D01*
X94688116Y-33566161D01*
X94478373Y-33528800D01*
X94478367Y-33528799D01*
X94473284Y-33527894D01*
X94399452Y-33526992D01*
X94255081Y-33525228D01*
X94255079Y-33525228D01*
X94249911Y-33525165D01*
X94029091Y-33558955D01*
X93816756Y-33628357D01*
X93786443Y-33644137D01*
X93626153Y-33727579D01*
X93618607Y-33731507D01*
X93614474Y-33734610D01*
X93614471Y-33734612D01*
X93444100Y-33862530D01*
X93439965Y-33865635D01*
X93400525Y-33906907D01*
X93346280Y-33963671D01*
X93285629Y-34027138D01*
X93178201Y-34184621D01*
X93123293Y-34229621D01*
X93052768Y-34237792D01*
X92989021Y-34206538D01*
X92968324Y-34182054D01*
X92887822Y-34057617D01*
X92887820Y-34057614D01*
X92885014Y-34053277D01*
X92734670Y-33888051D01*
X92730619Y-33884852D01*
X92730615Y-33884848D01*
X92563414Y-33752800D01*
X92563410Y-33752798D01*
X92559359Y-33749598D01*
X92519472Y-33727579D01*
X92484221Y-33708120D01*
X92363789Y-33641638D01*
X92358920Y-33639914D01*
X92358916Y-33639912D01*
X92158087Y-33568795D01*
X92158083Y-33568794D01*
X92153212Y-33567069D01*
X92148119Y-33566162D01*
X92148116Y-33566161D01*
X91938373Y-33528800D01*
X91938367Y-33528799D01*
X91933284Y-33527894D01*
X91859452Y-33526992D01*
X91715081Y-33525228D01*
X91715079Y-33525228D01*
X91709911Y-33525165D01*
X91489091Y-33558955D01*
X91276756Y-33628357D01*
X91246443Y-33644137D01*
X91086153Y-33727579D01*
X91078607Y-33731507D01*
X91074474Y-33734610D01*
X91074471Y-33734612D01*
X90904100Y-33862530D01*
X90899965Y-33865635D01*
X90860525Y-33906907D01*
X90806280Y-33963671D01*
X90745629Y-34027138D01*
X90638201Y-34184621D01*
X90583293Y-34229621D01*
X90512768Y-34237792D01*
X90449021Y-34206538D01*
X90428324Y-34182054D01*
X90347822Y-34057617D01*
X90347820Y-34057614D01*
X90345014Y-34053277D01*
X90194670Y-33888051D01*
X90190619Y-33884852D01*
X90190615Y-33884848D01*
X90023414Y-33752800D01*
X90023410Y-33752798D01*
X90019359Y-33749598D01*
X89979472Y-33727579D01*
X89944221Y-33708120D01*
X89823789Y-33641638D01*
X89818920Y-33639914D01*
X89818916Y-33639912D01*
X89618087Y-33568795D01*
X89618083Y-33568794D01*
X89613212Y-33567069D01*
X89608119Y-33566162D01*
X89608116Y-33566161D01*
X89398373Y-33528800D01*
X89398367Y-33528799D01*
X89393284Y-33527894D01*
X89319452Y-33526992D01*
X89175081Y-33525228D01*
X89175079Y-33525228D01*
X89169911Y-33525165D01*
X88949091Y-33558955D01*
X88736756Y-33628357D01*
X88706443Y-33644137D01*
X88546153Y-33727579D01*
X88538607Y-33731507D01*
X88534474Y-33734610D01*
X88534471Y-33734612D01*
X88364100Y-33862530D01*
X88359965Y-33865635D01*
X88320525Y-33906907D01*
X88266280Y-33963671D01*
X88205629Y-34027138D01*
X88098201Y-34184621D01*
X88043293Y-34229621D01*
X87972768Y-34237792D01*
X87909021Y-34206538D01*
X87888324Y-34182054D01*
X87807822Y-34057617D01*
X87807820Y-34057614D01*
X87805014Y-34053277D01*
X87654670Y-33888051D01*
X87650619Y-33884852D01*
X87650615Y-33884848D01*
X87483414Y-33752800D01*
X87483410Y-33752798D01*
X87479359Y-33749598D01*
X87439472Y-33727579D01*
X87404221Y-33708120D01*
X87283789Y-33641638D01*
X87278920Y-33639914D01*
X87278916Y-33639912D01*
X87078087Y-33568795D01*
X87078083Y-33568794D01*
X87073212Y-33567069D01*
X87068119Y-33566162D01*
X87068116Y-33566161D01*
X86858373Y-33528800D01*
X86858367Y-33528799D01*
X86853284Y-33527894D01*
X86779452Y-33526992D01*
X86635081Y-33525228D01*
X86635079Y-33525228D01*
X86629911Y-33525165D01*
X86409091Y-33558955D01*
X86196756Y-33628357D01*
X86166443Y-33644137D01*
X86006153Y-33727579D01*
X85998607Y-33731507D01*
X85994474Y-33734610D01*
X85994471Y-33734612D01*
X85824100Y-33862530D01*
X85819965Y-33865635D01*
X85780525Y-33906907D01*
X85726280Y-33963671D01*
X85665629Y-34027138D01*
X85558201Y-34184621D01*
X85503293Y-34229621D01*
X85432768Y-34237792D01*
X85369021Y-34206538D01*
X85348324Y-34182054D01*
X85267822Y-34057617D01*
X85267820Y-34057614D01*
X85265014Y-34053277D01*
X85114670Y-33888051D01*
X85110619Y-33884852D01*
X85110615Y-33884848D01*
X84943414Y-33752800D01*
X84943410Y-33752798D01*
X84939359Y-33749598D01*
X84899472Y-33727579D01*
X84864221Y-33708120D01*
X84743789Y-33641638D01*
X84738920Y-33639914D01*
X84738916Y-33639912D01*
X84538087Y-33568795D01*
X84538083Y-33568794D01*
X84533212Y-33567069D01*
X84528119Y-33566162D01*
X84528116Y-33566161D01*
X84318373Y-33528800D01*
X84318367Y-33528799D01*
X84313284Y-33527894D01*
X84239452Y-33526992D01*
X84095081Y-33525228D01*
X84095079Y-33525228D01*
X84089911Y-33525165D01*
X83869091Y-33558955D01*
X83656756Y-33628357D01*
X83626443Y-33644137D01*
X83466153Y-33727579D01*
X83458607Y-33731507D01*
X83454474Y-33734610D01*
X83454471Y-33734612D01*
X83284100Y-33862530D01*
X83279965Y-33865635D01*
X83240525Y-33906907D01*
X83186280Y-33963671D01*
X83125629Y-34027138D01*
X83018201Y-34184621D01*
X82963293Y-34229621D01*
X82892768Y-34237792D01*
X82829021Y-34206538D01*
X82808324Y-34182054D01*
X82727822Y-34057617D01*
X82727820Y-34057614D01*
X82725014Y-34053277D01*
X82574670Y-33888051D01*
X82570619Y-33884852D01*
X82570615Y-33884848D01*
X82403414Y-33752800D01*
X82403410Y-33752798D01*
X82399359Y-33749598D01*
X82359472Y-33727579D01*
X82324221Y-33708120D01*
X82203789Y-33641638D01*
X82198920Y-33639914D01*
X82198916Y-33639912D01*
X81998087Y-33568795D01*
X81998083Y-33568794D01*
X81993212Y-33567069D01*
X81988119Y-33566162D01*
X81988116Y-33566161D01*
X81778373Y-33528800D01*
X81778367Y-33528799D01*
X81773284Y-33527894D01*
X81699452Y-33526992D01*
X81555081Y-33525228D01*
X81555079Y-33525228D01*
X81549911Y-33525165D01*
X81329091Y-33558955D01*
X81116756Y-33628357D01*
X81086443Y-33644137D01*
X80926153Y-33727579D01*
X80918607Y-33731507D01*
X80914474Y-33734610D01*
X80914471Y-33734612D01*
X80744100Y-33862530D01*
X80739965Y-33865635D01*
X80700525Y-33906907D01*
X80646280Y-33963671D01*
X80585629Y-34027138D01*
X80478201Y-34184621D01*
X80423293Y-34229621D01*
X80352768Y-34237792D01*
X80289021Y-34206538D01*
X80268324Y-34182054D01*
X80187822Y-34057617D01*
X80187820Y-34057614D01*
X80185014Y-34053277D01*
X80034670Y-33888051D01*
X80030619Y-33884852D01*
X80030615Y-33884848D01*
X79863414Y-33752800D01*
X79863410Y-33752798D01*
X79859359Y-33749598D01*
X79819472Y-33727579D01*
X79784221Y-33708120D01*
X79663789Y-33641638D01*
X79658920Y-33639914D01*
X79658916Y-33639912D01*
X79458087Y-33568795D01*
X79458083Y-33568794D01*
X79453212Y-33567069D01*
X79448119Y-33566162D01*
X79448116Y-33566161D01*
X79238373Y-33528800D01*
X79238367Y-33528799D01*
X79233284Y-33527894D01*
X79159452Y-33526992D01*
X79015081Y-33525228D01*
X79015079Y-33525228D01*
X79009911Y-33525165D01*
X78789091Y-33558955D01*
X78576756Y-33628357D01*
X78546443Y-33644137D01*
X78386153Y-33727579D01*
X78378607Y-33731507D01*
X78374474Y-33734610D01*
X78374471Y-33734612D01*
X78204100Y-33862530D01*
X78199965Y-33865635D01*
X78160525Y-33906907D01*
X78106280Y-33963671D01*
X78045629Y-34027138D01*
X77938201Y-34184621D01*
X77883293Y-34229621D01*
X77812768Y-34237792D01*
X77749021Y-34206538D01*
X77728324Y-34182054D01*
X77647822Y-34057617D01*
X77647820Y-34057614D01*
X77645014Y-34053277D01*
X77494670Y-33888051D01*
X77490619Y-33884852D01*
X77490615Y-33884848D01*
X77323414Y-33752800D01*
X77323410Y-33752798D01*
X77319359Y-33749598D01*
X77279472Y-33727579D01*
X77244221Y-33708120D01*
X77123789Y-33641638D01*
X77118920Y-33639914D01*
X77118916Y-33639912D01*
X76918087Y-33568795D01*
X76918083Y-33568794D01*
X76913212Y-33567069D01*
X76908119Y-33566162D01*
X76908116Y-33566161D01*
X76698373Y-33528800D01*
X76698367Y-33528799D01*
X76693284Y-33527894D01*
X76619452Y-33526992D01*
X76475081Y-33525228D01*
X76475079Y-33525228D01*
X76469911Y-33525165D01*
X76249091Y-33558955D01*
X76036756Y-33628357D01*
X76006443Y-33644137D01*
X75846153Y-33727579D01*
X75838607Y-33731507D01*
X75834474Y-33734610D01*
X75834471Y-33734612D01*
X75692155Y-33841466D01*
X75625670Y-33866372D01*
X75556274Y-33851380D01*
X75527407Y-33829801D01*
X75007201Y-33309595D01*
X74973175Y-33247283D01*
X74978240Y-33176468D01*
X75020787Y-33119632D01*
X75087307Y-33094821D01*
X75096296Y-33094500D01*
X113830500Y-33094500D01*
X113898621Y-33114502D01*
G37*
%TD.AperFunction*%
%TA.AperFunction,Conductor*%
G36*
X98237026Y-35560144D02*
G01*
X98264875Y-35591994D01*
X98324987Y-35690088D01*
X98471250Y-35858938D01*
X98643126Y-36001632D01*
X98699852Y-36034780D01*
X98716955Y-36044774D01*
X98765679Y-36096412D01*
X98778750Y-36166195D01*
X98752019Y-36231967D01*
X98711562Y-36265327D01*
X98703457Y-36269546D01*
X98694738Y-36275036D01*
X98524433Y-36402905D01*
X98516726Y-36409748D01*
X98369590Y-36563717D01*
X98363109Y-36571722D01*
X98258498Y-36725074D01*
X98203587Y-36770076D01*
X98133062Y-36778247D01*
X98069315Y-36746993D01*
X98048618Y-36722509D01*
X97967822Y-36597617D01*
X97967820Y-36597614D01*
X97965014Y-36593277D01*
X97814670Y-36428051D01*
X97810619Y-36424852D01*
X97810615Y-36424848D01*
X97643414Y-36292800D01*
X97643410Y-36292798D01*
X97639359Y-36289598D01*
X97598053Y-36266796D01*
X97548084Y-36216364D01*
X97533312Y-36146921D01*
X97558428Y-36080516D01*
X97585780Y-36053909D01*
X97629603Y-36022650D01*
X97764860Y-35926173D01*
X97923096Y-35768489D01*
X97982594Y-35685689D01*
X98053453Y-35587077D01*
X98054776Y-35588028D01*
X98101645Y-35544857D01*
X98171580Y-35532625D01*
X98237026Y-35560144D01*
G37*
%TD.AperFunction*%
%TA.AperFunction,Conductor*%
G36*
X77917026Y-35560144D02*
G01*
X77944875Y-35591994D01*
X78004987Y-35690088D01*
X78151250Y-35858938D01*
X78323126Y-36001632D01*
X78379852Y-36034780D01*
X78396445Y-36044476D01*
X78445169Y-36096114D01*
X78458240Y-36165897D01*
X78431509Y-36231669D01*
X78391055Y-36265027D01*
X78378607Y-36271507D01*
X78374474Y-36274610D01*
X78374471Y-36274612D01*
X78250567Y-36367642D01*
X78199965Y-36405635D01*
X78045629Y-36567138D01*
X77938204Y-36724618D01*
X77937898Y-36725066D01*
X77882987Y-36770069D01*
X77812462Y-36778240D01*
X77748715Y-36746986D01*
X77728018Y-36722502D01*
X77647426Y-36597926D01*
X77641136Y-36589757D01*
X77497806Y-36432240D01*
X77490273Y-36425215D01*
X77323139Y-36293222D01*
X77314556Y-36287520D01*
X77277602Y-36267120D01*
X77227631Y-36216687D01*
X77212859Y-36147245D01*
X77237975Y-36080839D01*
X77265327Y-36054232D01*
X77292598Y-36034780D01*
X77444860Y-35926173D01*
X77603096Y-35768489D01*
X77662594Y-35685689D01*
X77733453Y-35587077D01*
X77734776Y-35588028D01*
X77781645Y-35544857D01*
X77851580Y-35532625D01*
X77917026Y-35560144D01*
G37*
%TD.AperFunction*%
%TD*%
M02*
