%TF.GenerationSoftware,KiCad,Pcbnew,(6.0.7)*%
%TF.CreationDate,2023-01-26T09:38:28+00:00*%
%TF.ProjectId,CoCo_FPGA_Hat,436f436f-5f46-4504-9741-5f4861742e6b,0*%
%TF.SameCoordinates,Original*%
%TF.FileFunction,Drillmap*%
%TF.FilePolarity,Positive*%
%FSLAX45Y45*%
G04 Gerber Fmt 4.5, Leading zero omitted, Abs format (unit mm)*
G04 Created by KiCad (PCBNEW (6.0.7)) date 2023-01-26 09:38:28*
%MOMM*%
%LPD*%
G01*
G04 APERTURE LIST*
%ADD10C,0.200000*%
G04 APERTURE END LIST*
D10*
X6363769Y-8020426D02*
X6363769Y-7820426D01*
X6411388Y-7820426D01*
X6439959Y-7829950D01*
X6459007Y-7848998D01*
X6468531Y-7868045D01*
X6478055Y-7906140D01*
X6478055Y-7934712D01*
X6468531Y-7972807D01*
X6459007Y-7991855D01*
X6439959Y-8010902D01*
X6411388Y-8020426D01*
X6363769Y-8020426D01*
X6563769Y-8020426D02*
X6563769Y-7887093D01*
X6563769Y-7925188D02*
X6573293Y-7906140D01*
X6582817Y-7896617D01*
X6601864Y-7887093D01*
X6620912Y-7887093D01*
X6687578Y-8020426D02*
X6687578Y-7887093D01*
X6687578Y-7820426D02*
X6678055Y-7829950D01*
X6687578Y-7839474D01*
X6697102Y-7829950D01*
X6687578Y-7820426D01*
X6687578Y-7839474D01*
X6811388Y-8020426D02*
X6792340Y-8010902D01*
X6782817Y-7991855D01*
X6782817Y-7820426D01*
X6916150Y-8020426D02*
X6897102Y-8010902D01*
X6887578Y-7991855D01*
X6887578Y-7820426D01*
X7144721Y-8020426D02*
X7144721Y-7820426D01*
X7211388Y-7963283D01*
X7278055Y-7820426D01*
X7278055Y-8020426D01*
X7459007Y-8020426D02*
X7459007Y-7915664D01*
X7449483Y-7896617D01*
X7430436Y-7887093D01*
X7392340Y-7887093D01*
X7373293Y-7896617D01*
X7459007Y-8010902D02*
X7439959Y-8020426D01*
X7392340Y-8020426D01*
X7373293Y-8010902D01*
X7363769Y-7991855D01*
X7363769Y-7972807D01*
X7373293Y-7953759D01*
X7392340Y-7944236D01*
X7439959Y-7944236D01*
X7459007Y-7934712D01*
X7554245Y-7887093D02*
X7554245Y-8087093D01*
X7554245Y-7896617D02*
X7573293Y-7887093D01*
X7611388Y-7887093D01*
X7630436Y-7896617D01*
X7639959Y-7906140D01*
X7649483Y-7925188D01*
X7649483Y-7982331D01*
X7639959Y-8001378D01*
X7630436Y-8010902D01*
X7611388Y-8020426D01*
X7573293Y-8020426D01*
X7554245Y-8010902D01*
X7735198Y-8001378D02*
X7744721Y-8010902D01*
X7735198Y-8020426D01*
X7725674Y-8010902D01*
X7735198Y-8001378D01*
X7735198Y-8020426D01*
X7735198Y-7896617D02*
X7744721Y-7906140D01*
X7735198Y-7915664D01*
X7725674Y-7906140D01*
X7735198Y-7896617D01*
X7735198Y-7915664D01*
M02*
