%TF.GenerationSoftware,KiCad,Pcbnew,(6.0.7)*%
%TF.CreationDate,2023-01-26T09:38:32+00:00*%
%TF.ProjectId,CoCo_FPGA_Hat,436f436f-5f46-4504-9741-5f4861742e6b,0*%
%TF.SameCoordinates,Original*%
%TF.FileFunction,Legend,Top*%
%TF.FilePolarity,Positive*%
%FSLAX46Y46*%
G04 Gerber Fmt 4.6, Leading zero omitted, Abs format (unit mm)*
G04 Created by KiCad (PCBNEW (6.0.7)) date 2023-01-26 09:38:32*
%MOMM*%
%LPD*%
G01*
G04 APERTURE LIST*
%ADD10C,0.150000*%
%ADD11C,0.125000*%
%ADD12C,0.200000*%
%ADD13C,0.120000*%
G04 APERTURE END LIST*
D10*
X90030000Y-33340000D02*
X85830000Y-33340000D01*
X90030000Y-32760000D02*
X90030000Y-33320000D01*
X85830000Y-33340000D02*
X85830000Y-32750000D01*
D11*
X63440952Y-39423690D02*
X63440952Y-38923690D01*
X63560000Y-38923690D01*
X63631428Y-38947500D01*
X63679047Y-38995119D01*
X63702857Y-39042738D01*
X63726666Y-39137976D01*
X63726666Y-39209404D01*
X63702857Y-39304642D01*
X63679047Y-39352261D01*
X63631428Y-39399880D01*
X63560000Y-39423690D01*
X63440952Y-39423690D01*
X64202857Y-39423690D02*
X63917142Y-39423690D01*
X64060000Y-39423690D02*
X64060000Y-38923690D01*
X64012380Y-38995119D01*
X63964761Y-39042738D01*
X63917142Y-39066547D01*
X63440952Y-40228690D02*
X63440952Y-39728690D01*
X63560000Y-39728690D01*
X63631428Y-39752500D01*
X63679047Y-39800119D01*
X63702857Y-39847738D01*
X63726666Y-39942976D01*
X63726666Y-40014404D01*
X63702857Y-40109642D01*
X63679047Y-40157261D01*
X63631428Y-40204880D01*
X63560000Y-40228690D01*
X63440952Y-40228690D01*
X64036190Y-39728690D02*
X64083809Y-39728690D01*
X64131428Y-39752500D01*
X64155238Y-39776309D01*
X64179047Y-39823928D01*
X64202857Y-39919166D01*
X64202857Y-40038214D01*
X64179047Y-40133452D01*
X64155238Y-40181071D01*
X64131428Y-40204880D01*
X64083809Y-40228690D01*
X64036190Y-40228690D01*
X63988571Y-40204880D01*
X63964761Y-40181071D01*
X63940952Y-40133452D01*
X63917142Y-40038214D01*
X63917142Y-39919166D01*
X63940952Y-39823928D01*
X63964761Y-39776309D01*
X63988571Y-39752500D01*
X64036190Y-39728690D01*
D10*
X82680000Y-52506666D02*
X82680000Y-52673333D01*
X82513333Y-52606666D02*
X82680000Y-52673333D01*
X82846666Y-52606666D01*
X82580000Y-52806666D02*
X82680000Y-52673333D01*
X82780000Y-52806666D01*
X83080000Y-53173333D02*
X83180000Y-53206666D01*
X83346666Y-53206666D01*
X83413333Y-53173333D01*
X83446666Y-53140000D01*
X83480000Y-53073333D01*
X83480000Y-53006666D01*
X83446666Y-52940000D01*
X83413333Y-52906666D01*
X83346666Y-52873333D01*
X83213333Y-52840000D01*
X83146666Y-52806666D01*
X83113333Y-52773333D01*
X83080000Y-52706666D01*
X83080000Y-52640000D01*
X83113333Y-52573333D01*
X83146666Y-52540000D01*
X83213333Y-52506666D01*
X83380000Y-52506666D01*
X83480000Y-52540000D01*
X84113333Y-53206666D02*
X83780000Y-53206666D01*
X83780000Y-52506666D01*
X84346666Y-52840000D02*
X84580000Y-52840000D01*
X84680000Y-53206666D02*
X84346666Y-53206666D01*
X84346666Y-52506666D01*
X84680000Y-52506666D01*
X84980000Y-53206666D02*
X84980000Y-52506666D01*
X85380000Y-53206666D01*
X85380000Y-52506666D01*
X85946666Y-52840000D02*
X86046666Y-52873333D01*
X86080000Y-52906666D01*
X86113333Y-52973333D01*
X86113333Y-53073333D01*
X86080000Y-53140000D01*
X86046666Y-53173333D01*
X85980000Y-53206666D01*
X85713333Y-53206666D01*
X85713333Y-52506666D01*
X85946666Y-52506666D01*
X86013333Y-52540000D01*
X86046666Y-52573333D01*
X86080000Y-52640000D01*
X86080000Y-52706666D01*
X86046666Y-52773333D01*
X86013333Y-52806666D01*
X85946666Y-52840000D01*
X85713333Y-52840000D01*
D11*
X106404761Y-39330833D02*
X106642857Y-39330833D01*
X106357142Y-39473690D02*
X106523809Y-38973690D01*
X106690476Y-39473690D01*
X107119047Y-39473690D02*
X106833333Y-39473690D01*
X106976190Y-39473690D02*
X106976190Y-38973690D01*
X106928571Y-39045119D01*
X106880952Y-39092738D01*
X106833333Y-39116547D01*
X107547619Y-39140357D02*
X107547619Y-39473690D01*
X107428571Y-38949880D02*
X107309523Y-39307023D01*
X107619047Y-39307023D01*
X106404761Y-40135833D02*
X106642857Y-40135833D01*
X106357142Y-40278690D02*
X106523809Y-39778690D01*
X106690476Y-40278690D01*
X107119047Y-40278690D02*
X106833333Y-40278690D01*
X106976190Y-40278690D02*
X106976190Y-39778690D01*
X106928571Y-39850119D01*
X106880952Y-39897738D01*
X106833333Y-39921547D01*
X107595238Y-40278690D02*
X107309523Y-40278690D01*
X107452380Y-40278690D02*
X107452380Y-39778690D01*
X107404761Y-39850119D01*
X107357142Y-39897738D01*
X107309523Y-39921547D01*
X66060952Y-39453690D02*
X66060952Y-38953690D01*
X66180000Y-38953690D01*
X66251428Y-38977500D01*
X66299047Y-39025119D01*
X66322857Y-39072738D01*
X66346666Y-39167976D01*
X66346666Y-39239404D01*
X66322857Y-39334642D01*
X66299047Y-39382261D01*
X66251428Y-39429880D01*
X66180000Y-39453690D01*
X66060952Y-39453690D01*
X66537142Y-39001309D02*
X66560952Y-38977500D01*
X66608571Y-38953690D01*
X66727619Y-38953690D01*
X66775238Y-38977500D01*
X66799047Y-39001309D01*
X66822857Y-39048928D01*
X66822857Y-39096547D01*
X66799047Y-39167976D01*
X66513333Y-39453690D01*
X66822857Y-39453690D01*
X65822857Y-40258690D02*
X65822857Y-39758690D01*
X66013333Y-39758690D01*
X66060952Y-39782500D01*
X66084761Y-39806309D01*
X66108571Y-39853928D01*
X66108571Y-39925357D01*
X66084761Y-39972976D01*
X66060952Y-39996785D01*
X66013333Y-40020595D01*
X65822857Y-40020595D01*
X66275238Y-39758690D02*
X66584761Y-39758690D01*
X66418095Y-39949166D01*
X66489523Y-39949166D01*
X66537142Y-39972976D01*
X66560952Y-39996785D01*
X66584761Y-40044404D01*
X66584761Y-40163452D01*
X66560952Y-40211071D01*
X66537142Y-40234880D01*
X66489523Y-40258690D01*
X66346666Y-40258690D01*
X66299047Y-40234880D01*
X66275238Y-40211071D01*
X66870476Y-39972976D02*
X66822857Y-39949166D01*
X66799047Y-39925357D01*
X66775238Y-39877738D01*
X66775238Y-39853928D01*
X66799047Y-39806309D01*
X66822857Y-39782500D01*
X66870476Y-39758690D01*
X66965714Y-39758690D01*
X67013333Y-39782500D01*
X67037142Y-39806309D01*
X67060952Y-39853928D01*
X67060952Y-39877738D01*
X67037142Y-39925357D01*
X67013333Y-39949166D01*
X66965714Y-39972976D01*
X66870476Y-39972976D01*
X66822857Y-39996785D01*
X66799047Y-40020595D01*
X66775238Y-40068214D01*
X66775238Y-40163452D01*
X66799047Y-40211071D01*
X66822857Y-40234880D01*
X66870476Y-40258690D01*
X66965714Y-40258690D01*
X67013333Y-40234880D01*
X67037142Y-40211071D01*
X67060952Y-40163452D01*
X67060952Y-40068214D01*
X67037142Y-40020595D01*
X67013333Y-39996785D01*
X66965714Y-39972976D01*
X73200952Y-38893690D02*
X73200952Y-39012738D01*
X73081904Y-38965119D02*
X73200952Y-39012738D01*
X73320000Y-38965119D01*
X73129523Y-39107976D02*
X73200952Y-39012738D01*
X73272380Y-39107976D01*
X73510476Y-39393690D02*
X73510476Y-38893690D01*
X73510476Y-39131785D02*
X73796190Y-39131785D01*
X73796190Y-39393690D02*
X73796190Y-38893690D01*
X74010476Y-39250833D02*
X74248571Y-39250833D01*
X73962857Y-39393690D02*
X74129523Y-38893690D01*
X74296190Y-39393690D01*
X74700952Y-39393690D02*
X74462857Y-39393690D01*
X74462857Y-38893690D01*
X74796190Y-38893690D02*
X75081904Y-38893690D01*
X74939047Y-39393690D02*
X74939047Y-38893690D01*
X73165238Y-39698690D02*
X73165238Y-39817738D01*
X73046190Y-39770119D02*
X73165238Y-39817738D01*
X73284285Y-39770119D01*
X73093809Y-39912976D02*
X73165238Y-39817738D01*
X73236666Y-39912976D01*
X73760476Y-40151071D02*
X73736666Y-40174880D01*
X73665238Y-40198690D01*
X73617619Y-40198690D01*
X73546190Y-40174880D01*
X73498571Y-40127261D01*
X73474761Y-40079642D01*
X73450952Y-39984404D01*
X73450952Y-39912976D01*
X73474761Y-39817738D01*
X73498571Y-39770119D01*
X73546190Y-39722500D01*
X73617619Y-39698690D01*
X73665238Y-39698690D01*
X73736666Y-39722500D01*
X73760476Y-39746309D01*
X73950952Y-40055833D02*
X74189047Y-40055833D01*
X73903333Y-40198690D02*
X74070000Y-39698690D01*
X74236666Y-40198690D01*
X74689047Y-40198690D02*
X74522380Y-39960595D01*
X74403333Y-40198690D02*
X74403333Y-39698690D01*
X74593809Y-39698690D01*
X74641428Y-39722500D01*
X74665238Y-39746309D01*
X74689047Y-39793928D01*
X74689047Y-39865357D01*
X74665238Y-39912976D01*
X74641428Y-39936785D01*
X74593809Y-39960595D01*
X74403333Y-39960595D01*
X74831904Y-39698690D02*
X75117619Y-39698690D01*
X74974761Y-40198690D02*
X74974761Y-39698690D01*
D10*
X72076666Y-52546666D02*
X72076666Y-52713333D01*
X71910000Y-52646666D02*
X72076666Y-52713333D01*
X72243333Y-52646666D01*
X71976666Y-52846666D02*
X72076666Y-52713333D01*
X72176666Y-52846666D01*
X72510000Y-53246666D02*
X72510000Y-52546666D01*
X72910000Y-53246666D01*
X72910000Y-52546666D01*
X73243333Y-53246666D02*
X73243333Y-52546666D01*
X73476666Y-53046666D01*
X73710000Y-52546666D01*
X73710000Y-53246666D01*
X74043333Y-53246666D02*
X74043333Y-52546666D01*
D11*
X81850476Y-39521309D02*
X81802857Y-39497500D01*
X81755238Y-39449880D01*
X81683809Y-39378452D01*
X81636190Y-39354642D01*
X81588571Y-39354642D01*
X81612380Y-39473690D02*
X81564761Y-39449880D01*
X81517142Y-39402261D01*
X81493333Y-39307023D01*
X81493333Y-39140357D01*
X81517142Y-39045119D01*
X81564761Y-38997500D01*
X81612380Y-38973690D01*
X81707619Y-38973690D01*
X81755238Y-38997500D01*
X81802857Y-39045119D01*
X81826666Y-39140357D01*
X81826666Y-39307023D01*
X81802857Y-39402261D01*
X81755238Y-39449880D01*
X81707619Y-39473690D01*
X81612380Y-39473690D01*
X81290952Y-40278690D02*
X81290952Y-39778690D01*
X81410000Y-39778690D01*
X81481428Y-39802500D01*
X81529047Y-39850119D01*
X81552857Y-39897738D01*
X81576666Y-39992976D01*
X81576666Y-40064404D01*
X81552857Y-40159642D01*
X81529047Y-40207261D01*
X81481428Y-40254880D01*
X81410000Y-40278690D01*
X81290952Y-40278690D01*
X81743333Y-39778690D02*
X82076666Y-39778690D01*
X81862380Y-40278690D01*
D10*
X105975833Y-64976500D02*
X105942500Y-65009833D01*
X105842500Y-65043166D01*
X105775833Y-65043166D01*
X105675833Y-65009833D01*
X105609166Y-64943166D01*
X105575833Y-64876500D01*
X105542500Y-64743166D01*
X105542500Y-64643166D01*
X105575833Y-64509833D01*
X105609166Y-64443166D01*
X105675833Y-64376500D01*
X105775833Y-64343166D01*
X105842500Y-64343166D01*
X105942500Y-64376500D01*
X105975833Y-64409833D01*
X106375833Y-65043166D02*
X106309166Y-65009833D01*
X106275833Y-64976500D01*
X106242500Y-64909833D01*
X106242500Y-64709833D01*
X106275833Y-64643166D01*
X106309166Y-64609833D01*
X106375833Y-64576500D01*
X106475833Y-64576500D01*
X106542500Y-64609833D01*
X106575833Y-64643166D01*
X106609166Y-64709833D01*
X106609166Y-64909833D01*
X106575833Y-64976500D01*
X106542500Y-65009833D01*
X106475833Y-65043166D01*
X106375833Y-65043166D01*
X107309166Y-64976500D02*
X107275833Y-65009833D01*
X107175833Y-65043166D01*
X107109166Y-65043166D01*
X107009166Y-65009833D01*
X106942500Y-64943166D01*
X106909166Y-64876500D01*
X106875833Y-64743166D01*
X106875833Y-64643166D01*
X106909166Y-64509833D01*
X106942500Y-64443166D01*
X107009166Y-64376500D01*
X107109166Y-64343166D01*
X107175833Y-64343166D01*
X107275833Y-64376500D01*
X107309166Y-64409833D01*
X107709166Y-65043166D02*
X107642500Y-65009833D01*
X107609166Y-64976500D01*
X107575833Y-64909833D01*
X107575833Y-64709833D01*
X107609166Y-64643166D01*
X107642500Y-64609833D01*
X107709166Y-64576500D01*
X107809166Y-64576500D01*
X107875833Y-64609833D01*
X107909166Y-64643166D01*
X107942500Y-64709833D01*
X107942500Y-64909833D01*
X107909166Y-64976500D01*
X107875833Y-65009833D01*
X107809166Y-65043166D01*
X107709166Y-65043166D01*
X109009166Y-64676500D02*
X108775833Y-64676500D01*
X108775833Y-65043166D02*
X108775833Y-64343166D01*
X109109166Y-64343166D01*
X109375833Y-65043166D02*
X109375833Y-64343166D01*
X109642500Y-64343166D01*
X109709166Y-64376500D01*
X109742500Y-64409833D01*
X109775833Y-64476500D01*
X109775833Y-64576500D01*
X109742500Y-64643166D01*
X109709166Y-64676500D01*
X109642500Y-64709833D01*
X109375833Y-64709833D01*
X110442500Y-64376500D02*
X110375833Y-64343166D01*
X110275833Y-64343166D01*
X110175833Y-64376500D01*
X110109166Y-64443166D01*
X110075833Y-64509833D01*
X110042500Y-64643166D01*
X110042500Y-64743166D01*
X110075833Y-64876500D01*
X110109166Y-64943166D01*
X110175833Y-65009833D01*
X110275833Y-65043166D01*
X110342500Y-65043166D01*
X110442500Y-65009833D01*
X110475833Y-64976500D01*
X110475833Y-64743166D01*
X110342500Y-64743166D01*
X110742500Y-64843166D02*
X111075833Y-64843166D01*
X110675833Y-65043166D02*
X110909166Y-64343166D01*
X111142500Y-65043166D01*
X111909166Y-65043166D02*
X111909166Y-64343166D01*
X111909166Y-64676500D02*
X112309166Y-64676500D01*
X112309166Y-65043166D02*
X112309166Y-64343166D01*
X112942500Y-65043166D02*
X112942500Y-64676500D01*
X112909166Y-64609833D01*
X112842500Y-64576500D01*
X112709166Y-64576500D01*
X112642500Y-64609833D01*
X112942500Y-65009833D02*
X112875833Y-65043166D01*
X112709166Y-65043166D01*
X112642500Y-65009833D01*
X112609166Y-64943166D01*
X112609166Y-64876500D01*
X112642500Y-64809833D01*
X112709166Y-64776500D01*
X112875833Y-64776500D01*
X112942500Y-64743166D01*
X113175833Y-64576500D02*
X113442500Y-64576500D01*
X113275833Y-64343166D02*
X113275833Y-64943166D01*
X113309166Y-65009833D01*
X113375833Y-65043166D01*
X113442500Y-65043166D01*
X106109166Y-66170166D02*
X106109166Y-65470166D01*
X106275833Y-65470166D01*
X106375833Y-65503500D01*
X106442500Y-65570166D01*
X106475833Y-65636833D01*
X106509166Y-65770166D01*
X106509166Y-65870166D01*
X106475833Y-66003500D01*
X106442500Y-66070166D01*
X106375833Y-66136833D01*
X106275833Y-66170166D01*
X106109166Y-66170166D01*
X106809166Y-65803500D02*
X107042500Y-65803500D01*
X107142500Y-66170166D02*
X106809166Y-66170166D01*
X106809166Y-65470166D01*
X107142500Y-65470166D01*
X107575833Y-65470166D02*
X107642500Y-65470166D01*
X107709166Y-65503500D01*
X107742500Y-65536833D01*
X107775833Y-65603500D01*
X107809166Y-65736833D01*
X107809166Y-65903500D01*
X107775833Y-66036833D01*
X107742500Y-66103500D01*
X107709166Y-66136833D01*
X107642500Y-66170166D01*
X107575833Y-66170166D01*
X107509166Y-66136833D01*
X107475833Y-66103500D01*
X107442500Y-66036833D01*
X107409166Y-65903500D01*
X107409166Y-65736833D01*
X107442500Y-65603500D01*
X107475833Y-65536833D01*
X107509166Y-65503500D01*
X107575833Y-65470166D01*
X108609166Y-65436833D02*
X108009166Y-66336833D01*
X108842500Y-66170166D02*
X108842500Y-65470166D01*
X109009166Y-65470166D01*
X109109166Y-65503500D01*
X109175833Y-65570166D01*
X109209166Y-65636833D01*
X109242500Y-65770166D01*
X109242500Y-65870166D01*
X109209166Y-66003500D01*
X109175833Y-66070166D01*
X109109166Y-66136833D01*
X109009166Y-66170166D01*
X108842500Y-66170166D01*
X109542500Y-65803500D02*
X109775833Y-65803500D01*
X109875833Y-66170166D02*
X109542500Y-66170166D01*
X109542500Y-65470166D01*
X109875833Y-65470166D01*
X110542500Y-66170166D02*
X110142500Y-66170166D01*
X110342500Y-66170166D02*
X110342500Y-65470166D01*
X110275833Y-65570166D01*
X110209166Y-65636833D01*
X110142500Y-65670166D01*
X111775833Y-66170166D02*
X111542500Y-65836833D01*
X111375833Y-66170166D02*
X111375833Y-65470166D01*
X111642500Y-65470166D01*
X111709166Y-65503500D01*
X111742500Y-65536833D01*
X111775833Y-65603500D01*
X111775833Y-65703500D01*
X111742500Y-65770166D01*
X111709166Y-65803500D01*
X111642500Y-65836833D01*
X111375833Y-65836833D01*
X112342500Y-66136833D02*
X112275833Y-66170166D01*
X112142500Y-66170166D01*
X112075833Y-66136833D01*
X112042500Y-66070166D01*
X112042500Y-65803500D01*
X112075833Y-65736833D01*
X112142500Y-65703500D01*
X112275833Y-65703500D01*
X112342500Y-65736833D01*
X112375833Y-65803500D01*
X112375833Y-65870166D01*
X112042500Y-65936833D01*
X112609166Y-65703500D02*
X112775833Y-66170166D01*
X112942500Y-65703500D01*
X113209166Y-66103500D02*
X113242500Y-66136833D01*
X113209166Y-66170166D01*
X113175833Y-66136833D01*
X113209166Y-66103500D01*
X113209166Y-66170166D01*
X113675833Y-65470166D02*
X113742500Y-65470166D01*
X113809166Y-65503500D01*
X113842500Y-65536833D01*
X113875833Y-65603500D01*
X113909166Y-65736833D01*
X113909166Y-65903500D01*
X113875833Y-66036833D01*
X113842500Y-66103500D01*
X113809166Y-66136833D01*
X113742500Y-66170166D01*
X113675833Y-66170166D01*
X113609166Y-66136833D01*
X113575833Y-66103500D01*
X113542500Y-66036833D01*
X113509166Y-65903500D01*
X113509166Y-65736833D01*
X113542500Y-65603500D01*
X113575833Y-65536833D01*
X113609166Y-65503500D01*
X113675833Y-65470166D01*
D11*
X76329047Y-38933690D02*
X76638571Y-38933690D01*
X76471904Y-39124166D01*
X76543333Y-39124166D01*
X76590952Y-39147976D01*
X76614761Y-39171785D01*
X76638571Y-39219404D01*
X76638571Y-39338452D01*
X76614761Y-39386071D01*
X76590952Y-39409880D01*
X76543333Y-39433690D01*
X76400476Y-39433690D01*
X76352857Y-39409880D01*
X76329047Y-39386071D01*
X76781428Y-38933690D02*
X76948095Y-39433690D01*
X77114761Y-38933690D01*
X76329047Y-39762500D02*
X76281428Y-39738690D01*
X76210000Y-39738690D01*
X76138571Y-39762500D01*
X76090952Y-39810119D01*
X76067142Y-39857738D01*
X76043333Y-39952976D01*
X76043333Y-40024404D01*
X76067142Y-40119642D01*
X76090952Y-40167261D01*
X76138571Y-40214880D01*
X76210000Y-40238690D01*
X76257619Y-40238690D01*
X76329047Y-40214880D01*
X76352857Y-40191071D01*
X76352857Y-40024404D01*
X76257619Y-40024404D01*
X76567142Y-40238690D02*
X76567142Y-39738690D01*
X76852857Y-40238690D01*
X76852857Y-39738690D01*
X77090952Y-40238690D02*
X77090952Y-39738690D01*
X77210000Y-39738690D01*
X77281428Y-39762500D01*
X77329047Y-39810119D01*
X77352857Y-39857738D01*
X77376666Y-39952976D01*
X77376666Y-40024404D01*
X77352857Y-40119642D01*
X77329047Y-40167261D01*
X77281428Y-40214880D01*
X77210000Y-40238690D01*
X77090952Y-40238690D01*
D10*
X69443333Y-65476666D02*
X69210000Y-65143333D01*
X69043333Y-65476666D02*
X69043333Y-64776666D01*
X69310000Y-64776666D01*
X69376666Y-64810000D01*
X69410000Y-64843333D01*
X69443333Y-64910000D01*
X69443333Y-65010000D01*
X69410000Y-65076666D01*
X69376666Y-65110000D01*
X69310000Y-65143333D01*
X69043333Y-65143333D01*
X70143333Y-65410000D02*
X70110000Y-65443333D01*
X70010000Y-65476666D01*
X69943333Y-65476666D01*
X69843333Y-65443333D01*
X69776666Y-65376666D01*
X69743333Y-65310000D01*
X69710000Y-65176666D01*
X69710000Y-65076666D01*
X69743333Y-64943333D01*
X69776666Y-64876666D01*
X69843333Y-64810000D01*
X69943333Y-64776666D01*
X70010000Y-64776666D01*
X70110000Y-64810000D01*
X70143333Y-64843333D01*
X70843333Y-65410000D02*
X70810000Y-65443333D01*
X70710000Y-65476666D01*
X70643333Y-65476666D01*
X70543333Y-65443333D01*
X70476666Y-65376666D01*
X70443333Y-65310000D01*
X70410000Y-65176666D01*
X70410000Y-65076666D01*
X70443333Y-64943333D01*
X70476666Y-64876666D01*
X70543333Y-64810000D01*
X70643333Y-64776666D01*
X70710000Y-64776666D01*
X70810000Y-64810000D01*
X70843333Y-64843333D01*
X71576666Y-65143333D02*
X71543333Y-65110000D01*
X71476666Y-65076666D01*
X71410000Y-65076666D01*
X71343333Y-65110000D01*
X71310000Y-65143333D01*
X71276666Y-65210000D01*
X71276666Y-65276666D01*
X71310000Y-65343333D01*
X71343333Y-65376666D01*
X71410000Y-65410000D01*
X71476666Y-65410000D01*
X71543333Y-65376666D01*
X71576666Y-65343333D01*
X71576666Y-65076666D02*
X71576666Y-65343333D01*
X71610000Y-65376666D01*
X71643333Y-65376666D01*
X71710000Y-65343333D01*
X71743333Y-65276666D01*
X71743333Y-65110000D01*
X71676666Y-65010000D01*
X71576666Y-64943333D01*
X71443333Y-64910000D01*
X71310000Y-64943333D01*
X71210000Y-65010000D01*
X71143333Y-65110000D01*
X71110000Y-65243333D01*
X71143333Y-65376666D01*
X71210000Y-65476666D01*
X71310000Y-65543333D01*
X71443333Y-65576666D01*
X71576666Y-65543333D01*
X71676666Y-65476666D01*
X72010000Y-64843333D02*
X72043333Y-64810000D01*
X72110000Y-64776666D01*
X72276666Y-64776666D01*
X72343333Y-64810000D01*
X72376666Y-64843333D01*
X72410000Y-64910000D01*
X72410000Y-64976666D01*
X72376666Y-65076666D01*
X71976666Y-65476666D01*
X72410000Y-65476666D01*
X72843333Y-64776666D02*
X72910000Y-64776666D01*
X72976666Y-64810000D01*
X73010000Y-64843333D01*
X73043333Y-64910000D01*
X73076666Y-65043333D01*
X73076666Y-65210000D01*
X73043333Y-65343333D01*
X73010000Y-65410000D01*
X72976666Y-65443333D01*
X72910000Y-65476666D01*
X72843333Y-65476666D01*
X72776666Y-65443333D01*
X72743333Y-65410000D01*
X72710000Y-65343333D01*
X72676666Y-65210000D01*
X72676666Y-65043333D01*
X72710000Y-64910000D01*
X72743333Y-64843333D01*
X72776666Y-64810000D01*
X72843333Y-64776666D01*
X73343333Y-64843333D02*
X73376666Y-64810000D01*
X73443333Y-64776666D01*
X73610000Y-64776666D01*
X73676666Y-64810000D01*
X73710000Y-64843333D01*
X73743333Y-64910000D01*
X73743333Y-64976666D01*
X73710000Y-65076666D01*
X73310000Y-65476666D01*
X73743333Y-65476666D01*
X73976666Y-64776666D02*
X74410000Y-64776666D01*
X74176666Y-65043333D01*
X74276666Y-65043333D01*
X74343333Y-65076666D01*
X74376666Y-65110000D01*
X74410000Y-65176666D01*
X74410000Y-65343333D01*
X74376666Y-65410000D01*
X74343333Y-65443333D01*
X74276666Y-65476666D01*
X74076666Y-65476666D01*
X74010000Y-65443333D01*
X73976666Y-65410000D01*
D11*
X96582857Y-39260833D02*
X96820952Y-39260833D01*
X96535238Y-39403690D02*
X96701904Y-38903690D01*
X96868571Y-39403690D01*
X96987619Y-38903690D02*
X97297142Y-38903690D01*
X97130476Y-39094166D01*
X97201904Y-39094166D01*
X97249523Y-39117976D01*
X97273333Y-39141785D01*
X97297142Y-39189404D01*
X97297142Y-39308452D01*
X97273333Y-39356071D01*
X97249523Y-39379880D01*
X97201904Y-39403690D01*
X97059047Y-39403690D01*
X97011428Y-39379880D01*
X96987619Y-39356071D01*
X96344761Y-40065833D02*
X96582857Y-40065833D01*
X96297142Y-40208690D02*
X96463809Y-39708690D01*
X96630476Y-40208690D01*
X97059047Y-40208690D02*
X96773333Y-40208690D01*
X96916190Y-40208690D02*
X96916190Y-39708690D01*
X96868571Y-39780119D01*
X96820952Y-39827738D01*
X96773333Y-39851547D01*
X97249523Y-39756309D02*
X97273333Y-39732500D01*
X97320952Y-39708690D01*
X97440000Y-39708690D01*
X97487619Y-39732500D01*
X97511428Y-39756309D01*
X97535238Y-39803928D01*
X97535238Y-39851547D01*
X97511428Y-39922976D01*
X97225714Y-40208690D01*
X97535238Y-40208690D01*
X90886666Y-39141785D02*
X90958095Y-39165595D01*
X90981904Y-39189404D01*
X91005714Y-39237023D01*
X91005714Y-39308452D01*
X90981904Y-39356071D01*
X90958095Y-39379880D01*
X90910476Y-39403690D01*
X90720000Y-39403690D01*
X90720000Y-38903690D01*
X90886666Y-38903690D01*
X90934285Y-38927500D01*
X90958095Y-38951309D01*
X90981904Y-38998928D01*
X90981904Y-39046547D01*
X90958095Y-39094166D01*
X90934285Y-39117976D01*
X90886666Y-39141785D01*
X90720000Y-39141785D01*
X91220000Y-38903690D02*
X91220000Y-39308452D01*
X91243809Y-39356071D01*
X91267619Y-39379880D01*
X91315238Y-39403690D01*
X91410476Y-39403690D01*
X91458095Y-39379880D01*
X91481904Y-39356071D01*
X91505714Y-39308452D01*
X91505714Y-38903690D01*
X91720000Y-39379880D02*
X91791428Y-39403690D01*
X91910476Y-39403690D01*
X91958095Y-39379880D01*
X91981904Y-39356071D01*
X92005714Y-39308452D01*
X92005714Y-39260833D01*
X91981904Y-39213214D01*
X91958095Y-39189404D01*
X91910476Y-39165595D01*
X91815238Y-39141785D01*
X91767619Y-39117976D01*
X91743809Y-39094166D01*
X91720000Y-39046547D01*
X91720000Y-38998928D01*
X91743809Y-38951309D01*
X91767619Y-38927500D01*
X91815238Y-38903690D01*
X91934285Y-38903690D01*
X92005714Y-38927500D01*
X92220000Y-39403690D02*
X92220000Y-38903690D01*
X92339047Y-38903690D01*
X92410476Y-38927500D01*
X92458095Y-38975119D01*
X92481904Y-39022738D01*
X92505714Y-39117976D01*
X92505714Y-39189404D01*
X92481904Y-39284642D01*
X92458095Y-39332261D01*
X92410476Y-39379880D01*
X92339047Y-39403690D01*
X92220000Y-39403690D01*
X92720000Y-39403690D02*
X92720000Y-38903690D01*
X93243809Y-39403690D02*
X93077142Y-39165595D01*
X92958095Y-39403690D02*
X92958095Y-38903690D01*
X93148571Y-38903690D01*
X93196190Y-38927500D01*
X93220000Y-38951309D01*
X93243809Y-38998928D01*
X93243809Y-39070357D01*
X93220000Y-39117976D01*
X93196190Y-39141785D01*
X93148571Y-39165595D01*
X92958095Y-39165595D01*
X91612857Y-40065833D02*
X91850952Y-40065833D01*
X91565238Y-40208690D02*
X91731904Y-39708690D01*
X91898571Y-40208690D01*
X92279523Y-39708690D02*
X92184285Y-39708690D01*
X92136666Y-39732500D01*
X92112857Y-39756309D01*
X92065238Y-39827738D01*
X92041428Y-39922976D01*
X92041428Y-40113452D01*
X92065238Y-40161071D01*
X92089047Y-40184880D01*
X92136666Y-40208690D01*
X92231904Y-40208690D01*
X92279523Y-40184880D01*
X92303333Y-40161071D01*
X92327142Y-40113452D01*
X92327142Y-39994404D01*
X92303333Y-39946785D01*
X92279523Y-39922976D01*
X92231904Y-39899166D01*
X92136666Y-39899166D01*
X92089047Y-39922976D01*
X92065238Y-39946785D01*
X92041428Y-39994404D01*
X99334761Y-38933690D02*
X99096666Y-38933690D01*
X99072857Y-39171785D01*
X99096666Y-39147976D01*
X99144285Y-39124166D01*
X99263333Y-39124166D01*
X99310952Y-39147976D01*
X99334761Y-39171785D01*
X99358571Y-39219404D01*
X99358571Y-39338452D01*
X99334761Y-39386071D01*
X99310952Y-39409880D01*
X99263333Y-39433690D01*
X99144285Y-39433690D01*
X99096666Y-39409880D01*
X99072857Y-39386071D01*
X99501428Y-38933690D02*
X99668095Y-39433690D01*
X99834761Y-38933690D01*
X99049047Y-39762500D02*
X99001428Y-39738690D01*
X98930000Y-39738690D01*
X98858571Y-39762500D01*
X98810952Y-39810119D01*
X98787142Y-39857738D01*
X98763333Y-39952976D01*
X98763333Y-40024404D01*
X98787142Y-40119642D01*
X98810952Y-40167261D01*
X98858571Y-40214880D01*
X98930000Y-40238690D01*
X98977619Y-40238690D01*
X99049047Y-40214880D01*
X99072857Y-40191071D01*
X99072857Y-40024404D01*
X98977619Y-40024404D01*
X99287142Y-40238690D02*
X99287142Y-39738690D01*
X99572857Y-40238690D01*
X99572857Y-39738690D01*
X99810952Y-40238690D02*
X99810952Y-39738690D01*
X99930000Y-39738690D01*
X100001428Y-39762500D01*
X100049047Y-39810119D01*
X100072857Y-39857738D01*
X100096666Y-39952976D01*
X100096666Y-40024404D01*
X100072857Y-40119642D01*
X100049047Y-40167261D01*
X100001428Y-40214880D01*
X99930000Y-40238690D01*
X99810952Y-40238690D01*
X88897142Y-39473690D02*
X88897142Y-38973690D01*
X89182857Y-39473690D01*
X89182857Y-38973690D01*
X89706666Y-39426071D02*
X89682857Y-39449880D01*
X89611428Y-39473690D01*
X89563809Y-39473690D01*
X89492380Y-39449880D01*
X89444761Y-39402261D01*
X89420952Y-39354642D01*
X89397142Y-39259404D01*
X89397142Y-39187976D01*
X89420952Y-39092738D01*
X89444761Y-39045119D01*
X89492380Y-38997500D01*
X89563809Y-38973690D01*
X89611428Y-38973690D01*
X89682857Y-38997500D01*
X89706666Y-39021309D01*
X88932857Y-40135833D02*
X89170952Y-40135833D01*
X88885238Y-40278690D02*
X89051904Y-39778690D01*
X89218571Y-40278690D01*
X89480476Y-39778690D02*
X89528095Y-39778690D01*
X89575714Y-39802500D01*
X89599523Y-39826309D01*
X89623333Y-39873928D01*
X89647142Y-39969166D01*
X89647142Y-40088214D01*
X89623333Y-40183452D01*
X89599523Y-40231071D01*
X89575714Y-40254880D01*
X89528095Y-40278690D01*
X89480476Y-40278690D01*
X89432857Y-40254880D01*
X89409047Y-40231071D01*
X89385238Y-40183452D01*
X89361428Y-40088214D01*
X89361428Y-39969166D01*
X89385238Y-39873928D01*
X89409047Y-39826309D01*
X89432857Y-39802500D01*
X89480476Y-39778690D01*
X78770952Y-39413690D02*
X78770952Y-38913690D01*
X78890000Y-38913690D01*
X78961428Y-38937500D01*
X79009047Y-38985119D01*
X79032857Y-39032738D01*
X79056666Y-39127976D01*
X79056666Y-39199404D01*
X79032857Y-39294642D01*
X79009047Y-39342261D01*
X78961428Y-39389880D01*
X78890000Y-39413690D01*
X78770952Y-39413690D01*
X79509047Y-38913690D02*
X79270952Y-38913690D01*
X79247142Y-39151785D01*
X79270952Y-39127976D01*
X79318571Y-39104166D01*
X79437619Y-39104166D01*
X79485238Y-39127976D01*
X79509047Y-39151785D01*
X79532857Y-39199404D01*
X79532857Y-39318452D01*
X79509047Y-39366071D01*
X79485238Y-39389880D01*
X79437619Y-39413690D01*
X79318571Y-39413690D01*
X79270952Y-39389880D01*
X79247142Y-39366071D01*
X78770952Y-40218690D02*
X78770952Y-39718690D01*
X78890000Y-39718690D01*
X78961428Y-39742500D01*
X79009047Y-39790119D01*
X79032857Y-39837738D01*
X79056666Y-39932976D01*
X79056666Y-40004404D01*
X79032857Y-40099642D01*
X79009047Y-40147261D01*
X78961428Y-40194880D01*
X78890000Y-40218690D01*
X78770952Y-40218690D01*
X79485238Y-39718690D02*
X79390000Y-39718690D01*
X79342380Y-39742500D01*
X79318571Y-39766309D01*
X79270952Y-39837738D01*
X79247142Y-39932976D01*
X79247142Y-40123452D01*
X79270952Y-40171071D01*
X79294761Y-40194880D01*
X79342380Y-40218690D01*
X79437619Y-40218690D01*
X79485238Y-40194880D01*
X79509047Y-40171071D01*
X79532857Y-40123452D01*
X79532857Y-40004404D01*
X79509047Y-39956785D01*
X79485238Y-39932976D01*
X79437619Y-39909166D01*
X79342380Y-39909166D01*
X79294761Y-39932976D01*
X79270952Y-39956785D01*
X79247142Y-40004404D01*
D10*
X109211428Y-52234285D02*
X109182857Y-52262857D01*
X109097142Y-52291428D01*
X109040000Y-52291428D01*
X108954285Y-52262857D01*
X108897142Y-52205714D01*
X108868571Y-52148571D01*
X108840000Y-52034285D01*
X108840000Y-51948571D01*
X108868571Y-51834285D01*
X108897142Y-51777142D01*
X108954285Y-51720000D01*
X109040000Y-51691428D01*
X109097142Y-51691428D01*
X109182857Y-51720000D01*
X109211428Y-51748571D01*
X109554285Y-52291428D02*
X109497142Y-52262857D01*
X109468571Y-52234285D01*
X109440000Y-52177142D01*
X109440000Y-52005714D01*
X109468571Y-51948571D01*
X109497142Y-51920000D01*
X109554285Y-51891428D01*
X109640000Y-51891428D01*
X109697142Y-51920000D01*
X109725714Y-51948571D01*
X109754285Y-52005714D01*
X109754285Y-52177142D01*
X109725714Y-52234285D01*
X109697142Y-52262857D01*
X109640000Y-52291428D01*
X109554285Y-52291428D01*
X110011428Y-52291428D02*
X110011428Y-51891428D01*
X110011428Y-51948571D02*
X110040000Y-51920000D01*
X110097142Y-51891428D01*
X110182857Y-51891428D01*
X110240000Y-51920000D01*
X110268571Y-51977142D01*
X110268571Y-52291428D01*
X110268571Y-51977142D02*
X110297142Y-51920000D01*
X110354285Y-51891428D01*
X110440000Y-51891428D01*
X110497142Y-51920000D01*
X110525714Y-51977142D01*
X110525714Y-52291428D01*
X110811428Y-51891428D02*
X110811428Y-52491428D01*
X110811428Y-51920000D02*
X110868571Y-51891428D01*
X110982857Y-51891428D01*
X111040000Y-51920000D01*
X111068571Y-51948571D01*
X111097142Y-52005714D01*
X111097142Y-52177142D01*
X111068571Y-52234285D01*
X111040000Y-52262857D01*
X110982857Y-52291428D01*
X110868571Y-52291428D01*
X110811428Y-52262857D01*
X111611428Y-52291428D02*
X111611428Y-51977142D01*
X111582857Y-51920000D01*
X111525714Y-51891428D01*
X111411428Y-51891428D01*
X111354285Y-51920000D01*
X111611428Y-52262857D02*
X111554285Y-52291428D01*
X111411428Y-52291428D01*
X111354285Y-52262857D01*
X111325714Y-52205714D01*
X111325714Y-52148571D01*
X111354285Y-52091428D01*
X111411428Y-52062857D01*
X111554285Y-52062857D01*
X111611428Y-52034285D01*
X111811428Y-51891428D02*
X112040000Y-51891428D01*
X111897142Y-51691428D02*
X111897142Y-52205714D01*
X111925714Y-52262857D01*
X111982857Y-52291428D01*
X112040000Y-52291428D01*
X112240000Y-52291428D02*
X112240000Y-51891428D01*
X112240000Y-51691428D02*
X112211428Y-51720000D01*
X112240000Y-51748571D01*
X112268571Y-51720000D01*
X112240000Y-51691428D01*
X112240000Y-51748571D01*
X112525714Y-52291428D02*
X112525714Y-51691428D01*
X112525714Y-51920000D02*
X112582857Y-51891428D01*
X112697142Y-51891428D01*
X112754285Y-51920000D01*
X112782857Y-51948571D01*
X112811428Y-52005714D01*
X112811428Y-52177142D01*
X112782857Y-52234285D01*
X112754285Y-52262857D01*
X112697142Y-52291428D01*
X112582857Y-52291428D01*
X112525714Y-52262857D01*
X113154285Y-52291428D02*
X113097142Y-52262857D01*
X113068571Y-52205714D01*
X113068571Y-51691428D01*
X113611428Y-52262857D02*
X113554285Y-52291428D01*
X113440000Y-52291428D01*
X113382857Y-52262857D01*
X113354285Y-52205714D01*
X113354285Y-51977142D01*
X113382857Y-51920000D01*
X113440000Y-51891428D01*
X113554285Y-51891428D01*
X113611428Y-51920000D01*
X113640000Y-51977142D01*
X113640000Y-52034285D01*
X113354285Y-52091428D01*
D11*
X93794761Y-39310833D02*
X94032857Y-39310833D01*
X93747142Y-39453690D02*
X93913809Y-38953690D01*
X94080476Y-39453690D01*
X94509047Y-39453690D02*
X94223333Y-39453690D01*
X94366190Y-39453690D02*
X94366190Y-38953690D01*
X94318571Y-39025119D01*
X94270952Y-39072738D01*
X94223333Y-39096547D01*
X94818571Y-38953690D02*
X94866190Y-38953690D01*
X94913809Y-38977500D01*
X94937619Y-39001309D01*
X94961428Y-39048928D01*
X94985238Y-39144166D01*
X94985238Y-39263214D01*
X94961428Y-39358452D01*
X94937619Y-39406071D01*
X94913809Y-39429880D01*
X94866190Y-39453690D01*
X94818571Y-39453690D01*
X94770952Y-39429880D01*
X94747142Y-39406071D01*
X94723333Y-39358452D01*
X94699523Y-39263214D01*
X94699523Y-39144166D01*
X94723333Y-39048928D01*
X94747142Y-39001309D01*
X94770952Y-38977500D01*
X94818571Y-38953690D01*
X94032857Y-40115833D02*
X94270952Y-40115833D01*
X93985238Y-40258690D02*
X94151904Y-39758690D01*
X94318571Y-40258690D01*
X94556666Y-39972976D02*
X94509047Y-39949166D01*
X94485238Y-39925357D01*
X94461428Y-39877738D01*
X94461428Y-39853928D01*
X94485238Y-39806309D01*
X94509047Y-39782500D01*
X94556666Y-39758690D01*
X94651904Y-39758690D01*
X94699523Y-39782500D01*
X94723333Y-39806309D01*
X94747142Y-39853928D01*
X94747142Y-39877738D01*
X94723333Y-39925357D01*
X94699523Y-39949166D01*
X94651904Y-39972976D01*
X94556666Y-39972976D01*
X94509047Y-39996785D01*
X94485238Y-40020595D01*
X94461428Y-40068214D01*
X94461428Y-40163452D01*
X94485238Y-40211071D01*
X94509047Y-40234880D01*
X94556666Y-40258690D01*
X94651904Y-40258690D01*
X94699523Y-40234880D01*
X94723333Y-40211071D01*
X94747142Y-40163452D01*
X94747142Y-40068214D01*
X94723333Y-40020595D01*
X94699523Y-39996785D01*
X94651904Y-39972976D01*
D10*
X61354285Y-34561428D02*
X61725714Y-34561428D01*
X61525714Y-34790000D01*
X61611428Y-34790000D01*
X61668571Y-34818571D01*
X61697142Y-34847142D01*
X61725714Y-34904285D01*
X61725714Y-35047142D01*
X61697142Y-35104285D01*
X61668571Y-35132857D01*
X61611428Y-35161428D01*
X61440000Y-35161428D01*
X61382857Y-35132857D01*
X61354285Y-35104285D01*
X62011428Y-35161428D02*
X62125714Y-35161428D01*
X62182857Y-35132857D01*
X62211428Y-35104285D01*
X62268571Y-35018571D01*
X62297142Y-34904285D01*
X62297142Y-34675714D01*
X62268571Y-34618571D01*
X62240000Y-34590000D01*
X62182857Y-34561428D01*
X62068571Y-34561428D01*
X62011428Y-34590000D01*
X61982857Y-34618571D01*
X61954285Y-34675714D01*
X61954285Y-34818571D01*
X61982857Y-34875714D01*
X62011428Y-34904285D01*
X62068571Y-34932857D01*
X62182857Y-34932857D01*
X62240000Y-34904285D01*
X62268571Y-34875714D01*
X62297142Y-34818571D01*
X114021428Y-35191428D02*
X113678571Y-35191428D01*
X113850000Y-35191428D02*
X113850000Y-34591428D01*
X113792857Y-34677142D01*
X113735714Y-34734285D01*
X113678571Y-34762857D01*
D11*
X101632857Y-39270833D02*
X101870952Y-39270833D01*
X101585238Y-39413690D02*
X101751904Y-38913690D01*
X101918571Y-39413690D01*
X102109047Y-39413690D02*
X102204285Y-39413690D01*
X102251904Y-39389880D01*
X102275714Y-39366071D01*
X102323333Y-39294642D01*
X102347142Y-39199404D01*
X102347142Y-39008928D01*
X102323333Y-38961309D01*
X102299523Y-38937500D01*
X102251904Y-38913690D01*
X102156666Y-38913690D01*
X102109047Y-38937500D01*
X102085238Y-38961309D01*
X102061428Y-39008928D01*
X102061428Y-39127976D01*
X102085238Y-39175595D01*
X102109047Y-39199404D01*
X102156666Y-39223214D01*
X102251904Y-39223214D01*
X102299523Y-39199404D01*
X102323333Y-39175595D01*
X102347142Y-39127976D01*
X101632857Y-40075833D02*
X101870952Y-40075833D01*
X101585238Y-40218690D02*
X101751904Y-39718690D01*
X101918571Y-40218690D01*
X102323333Y-39718690D02*
X102085238Y-39718690D01*
X102061428Y-39956785D01*
X102085238Y-39932976D01*
X102132857Y-39909166D01*
X102251904Y-39909166D01*
X102299523Y-39932976D01*
X102323333Y-39956785D01*
X102347142Y-40004404D01*
X102347142Y-40123452D01*
X102323333Y-40171071D01*
X102299523Y-40194880D01*
X102251904Y-40218690D01*
X102132857Y-40218690D01*
X102085238Y-40194880D01*
X102061428Y-40171071D01*
X78012857Y-53946190D02*
X78012857Y-53446190D01*
X78203333Y-53446190D01*
X78250952Y-53470000D01*
X78274761Y-53493809D01*
X78298571Y-53541428D01*
X78298571Y-53612857D01*
X78274761Y-53660476D01*
X78250952Y-53684285D01*
X78203333Y-53708095D01*
X78012857Y-53708095D01*
X78465238Y-53446190D02*
X78774761Y-53446190D01*
X78608095Y-53636666D01*
X78679523Y-53636666D01*
X78727142Y-53660476D01*
X78750952Y-53684285D01*
X78774761Y-53731904D01*
X78774761Y-53850952D01*
X78750952Y-53898571D01*
X78727142Y-53922380D01*
X78679523Y-53946190D01*
X78536666Y-53946190D01*
X78489047Y-53922380D01*
X78465238Y-53898571D01*
X79060476Y-53660476D02*
X79012857Y-53636666D01*
X78989047Y-53612857D01*
X78965238Y-53565238D01*
X78965238Y-53541428D01*
X78989047Y-53493809D01*
X79012857Y-53470000D01*
X79060476Y-53446190D01*
X79155714Y-53446190D01*
X79203333Y-53470000D01*
X79227142Y-53493809D01*
X79250952Y-53541428D01*
X79250952Y-53565238D01*
X79227142Y-53612857D01*
X79203333Y-53636666D01*
X79155714Y-53660476D01*
X79060476Y-53660476D01*
X79012857Y-53684285D01*
X78989047Y-53708095D01*
X78965238Y-53755714D01*
X78965238Y-53850952D01*
X78989047Y-53898571D01*
X79012857Y-53922380D01*
X79060476Y-53946190D01*
X79155714Y-53946190D01*
X79203333Y-53922380D01*
X79227142Y-53898571D01*
X79250952Y-53850952D01*
X79250952Y-53755714D01*
X79227142Y-53708095D01*
X79203333Y-53684285D01*
X79155714Y-53660476D01*
X108853809Y-38893690D02*
X108853809Y-39012738D01*
X108734761Y-38965119D02*
X108853809Y-39012738D01*
X108972857Y-38965119D01*
X108782380Y-39107976D02*
X108853809Y-39012738D01*
X108925238Y-39107976D01*
X109139523Y-39369880D02*
X109210952Y-39393690D01*
X109330000Y-39393690D01*
X109377619Y-39369880D01*
X109401428Y-39346071D01*
X109425238Y-39298452D01*
X109425238Y-39250833D01*
X109401428Y-39203214D01*
X109377619Y-39179404D01*
X109330000Y-39155595D01*
X109234761Y-39131785D01*
X109187142Y-39107976D01*
X109163333Y-39084166D01*
X109139523Y-39036547D01*
X109139523Y-38988928D01*
X109163333Y-38941309D01*
X109187142Y-38917500D01*
X109234761Y-38893690D01*
X109353809Y-38893690D01*
X109425238Y-38917500D01*
X109925238Y-39346071D02*
X109901428Y-39369880D01*
X109830000Y-39393690D01*
X109782380Y-39393690D01*
X109710952Y-39369880D01*
X109663333Y-39322261D01*
X109639523Y-39274642D01*
X109615714Y-39179404D01*
X109615714Y-39107976D01*
X109639523Y-39012738D01*
X109663333Y-38965119D01*
X109710952Y-38917500D01*
X109782380Y-38893690D01*
X109830000Y-38893690D01*
X109901428Y-38917500D01*
X109925238Y-38941309D01*
X110115714Y-39369880D02*
X110187142Y-39393690D01*
X110306190Y-39393690D01*
X110353809Y-39369880D01*
X110377619Y-39346071D01*
X110401428Y-39298452D01*
X110401428Y-39250833D01*
X110377619Y-39203214D01*
X110353809Y-39179404D01*
X110306190Y-39155595D01*
X110210952Y-39131785D01*
X110163333Y-39107976D01*
X110139523Y-39084166D01*
X110115714Y-39036547D01*
X110115714Y-38988928D01*
X110139523Y-38941309D01*
X110163333Y-38917500D01*
X110210952Y-38893690D01*
X110330000Y-38893690D01*
X110401428Y-38917500D01*
X108984761Y-40055833D02*
X109222857Y-40055833D01*
X108937142Y-40198690D02*
X109103809Y-39698690D01*
X109270476Y-40198690D01*
X109699047Y-40198690D02*
X109413333Y-40198690D01*
X109556190Y-40198690D02*
X109556190Y-39698690D01*
X109508571Y-39770119D01*
X109460952Y-39817738D01*
X109413333Y-39841547D01*
X109865714Y-39698690D02*
X110175238Y-39698690D01*
X110008571Y-39889166D01*
X110080000Y-39889166D01*
X110127619Y-39912976D01*
X110151428Y-39936785D01*
X110175238Y-39984404D01*
X110175238Y-40103452D01*
X110151428Y-40151071D01*
X110127619Y-40174880D01*
X110080000Y-40198690D01*
X109937142Y-40198690D01*
X109889523Y-40174880D01*
X109865714Y-40151071D01*
X68580952Y-39433690D02*
X68580952Y-38933690D01*
X68700000Y-38933690D01*
X68771428Y-38957500D01*
X68819047Y-39005119D01*
X68842857Y-39052738D01*
X68866666Y-39147976D01*
X68866666Y-39219404D01*
X68842857Y-39314642D01*
X68819047Y-39362261D01*
X68771428Y-39409880D01*
X68700000Y-39433690D01*
X68580952Y-39433690D01*
X69033333Y-38933690D02*
X69342857Y-38933690D01*
X69176190Y-39124166D01*
X69247619Y-39124166D01*
X69295238Y-39147976D01*
X69319047Y-39171785D01*
X69342857Y-39219404D01*
X69342857Y-39338452D01*
X69319047Y-39386071D01*
X69295238Y-39409880D01*
X69247619Y-39433690D01*
X69104761Y-39433690D01*
X69057142Y-39409880D01*
X69033333Y-39386071D01*
X67819047Y-39738690D02*
X67819047Y-39857738D01*
X67700000Y-39810119D02*
X67819047Y-39857738D01*
X67938095Y-39810119D01*
X67747619Y-39952976D02*
X67819047Y-39857738D01*
X67890476Y-39952976D01*
X68414285Y-40238690D02*
X68247619Y-40000595D01*
X68128571Y-40238690D02*
X68128571Y-39738690D01*
X68319047Y-39738690D01*
X68366666Y-39762500D01*
X68390476Y-39786309D01*
X68414285Y-39833928D01*
X68414285Y-39905357D01*
X68390476Y-39952976D01*
X68366666Y-39976785D01*
X68319047Y-40000595D01*
X68128571Y-40000595D01*
X68628571Y-39976785D02*
X68795238Y-39976785D01*
X68866666Y-40238690D02*
X68628571Y-40238690D01*
X68628571Y-39738690D01*
X68866666Y-39738690D01*
X69057142Y-40214880D02*
X69128571Y-40238690D01*
X69247619Y-40238690D01*
X69295238Y-40214880D01*
X69319047Y-40191071D01*
X69342857Y-40143452D01*
X69342857Y-40095833D01*
X69319047Y-40048214D01*
X69295238Y-40024404D01*
X69247619Y-40000595D01*
X69152380Y-39976785D01*
X69104761Y-39952976D01*
X69080952Y-39929166D01*
X69057142Y-39881547D01*
X69057142Y-39833928D01*
X69080952Y-39786309D01*
X69104761Y-39762500D01*
X69152380Y-39738690D01*
X69271428Y-39738690D01*
X69342857Y-39762500D01*
X69557142Y-39976785D02*
X69723809Y-39976785D01*
X69795238Y-40238690D02*
X69557142Y-40238690D01*
X69557142Y-39738690D01*
X69795238Y-39738690D01*
X69938095Y-39738690D02*
X70223809Y-39738690D01*
X70080952Y-40238690D02*
X70080952Y-39738690D01*
X103911428Y-38933690D02*
X103911428Y-39052738D01*
X103792380Y-39005119D02*
X103911428Y-39052738D01*
X104030476Y-39005119D01*
X103840000Y-39147976D02*
X103911428Y-39052738D01*
X103982857Y-39147976D01*
X104506666Y-39386071D02*
X104482857Y-39409880D01*
X104411428Y-39433690D01*
X104363809Y-39433690D01*
X104292380Y-39409880D01*
X104244761Y-39362261D01*
X104220952Y-39314642D01*
X104197142Y-39219404D01*
X104197142Y-39147976D01*
X104220952Y-39052738D01*
X104244761Y-39005119D01*
X104292380Y-38957500D01*
X104363809Y-38933690D01*
X104411428Y-38933690D01*
X104482857Y-38957500D01*
X104506666Y-38981309D01*
X104649523Y-38933690D02*
X104935238Y-38933690D01*
X104792380Y-39433690D02*
X104792380Y-38933690D01*
X105078095Y-39409880D02*
X105149523Y-39433690D01*
X105268571Y-39433690D01*
X105316190Y-39409880D01*
X105340000Y-39386071D01*
X105363809Y-39338452D01*
X105363809Y-39290833D01*
X105340000Y-39243214D01*
X105316190Y-39219404D01*
X105268571Y-39195595D01*
X105173333Y-39171785D01*
X105125714Y-39147976D01*
X105101904Y-39124166D01*
X105078095Y-39076547D01*
X105078095Y-39028928D01*
X105101904Y-38981309D01*
X105125714Y-38957500D01*
X105173333Y-38933690D01*
X105292380Y-38933690D01*
X105363809Y-38957500D01*
X104232857Y-40095833D02*
X104470952Y-40095833D01*
X104185238Y-40238690D02*
X104351904Y-39738690D01*
X104518571Y-40238690D01*
X104637619Y-39738690D02*
X104970952Y-39738690D01*
X104756666Y-40238690D01*
X86287142Y-39473690D02*
X86287142Y-38973690D01*
X86572857Y-39473690D01*
X86572857Y-38973690D01*
X87096666Y-39426071D02*
X87072857Y-39449880D01*
X87001428Y-39473690D01*
X86953809Y-39473690D01*
X86882380Y-39449880D01*
X86834761Y-39402261D01*
X86810952Y-39354642D01*
X86787142Y-39259404D01*
X86787142Y-39187976D01*
X86810952Y-39092738D01*
X86834761Y-39045119D01*
X86882380Y-38997500D01*
X86953809Y-38973690D01*
X87001428Y-38973690D01*
X87072857Y-38997500D01*
X87096666Y-39021309D01*
X86322857Y-40135833D02*
X86560952Y-40135833D01*
X86275238Y-40278690D02*
X86441904Y-39778690D01*
X86608571Y-40278690D01*
X86989523Y-39945357D02*
X86989523Y-40278690D01*
X86870476Y-39754880D02*
X86751428Y-40112023D01*
X87060952Y-40112023D01*
X71100952Y-39413690D02*
X71100952Y-38913690D01*
X71220000Y-38913690D01*
X71291428Y-38937500D01*
X71339047Y-38985119D01*
X71362857Y-39032738D01*
X71386666Y-39127976D01*
X71386666Y-39199404D01*
X71362857Y-39294642D01*
X71339047Y-39342261D01*
X71291428Y-39389880D01*
X71220000Y-39413690D01*
X71100952Y-39413690D01*
X71815238Y-39080357D02*
X71815238Y-39413690D01*
X71696190Y-38889880D02*
X71577142Y-39247023D01*
X71886666Y-39247023D01*
X70934285Y-39718690D02*
X70934285Y-39837738D01*
X70815238Y-39790119D02*
X70934285Y-39837738D01*
X71053333Y-39790119D01*
X70862857Y-39932976D02*
X70934285Y-39837738D01*
X71005714Y-39932976D01*
X71529523Y-40218690D02*
X71362857Y-39980595D01*
X71243809Y-40218690D02*
X71243809Y-39718690D01*
X71434285Y-39718690D01*
X71481904Y-39742500D01*
X71505714Y-39766309D01*
X71529523Y-39813928D01*
X71529523Y-39885357D01*
X71505714Y-39932976D01*
X71481904Y-39956785D01*
X71434285Y-39980595D01*
X71243809Y-39980595D01*
X71696190Y-39718690D02*
X71815238Y-40218690D01*
X71910476Y-39861547D01*
X72005714Y-40218690D01*
X72124761Y-39718690D01*
D10*
X61708571Y-37421428D02*
X61708571Y-37821428D01*
X61565714Y-37192857D02*
X61422857Y-37621428D01*
X61794285Y-37621428D01*
X62137142Y-37221428D02*
X62194285Y-37221428D01*
X62251428Y-37250000D01*
X62280000Y-37278571D01*
X62308571Y-37335714D01*
X62337142Y-37450000D01*
X62337142Y-37592857D01*
X62308571Y-37707142D01*
X62280000Y-37764285D01*
X62251428Y-37792857D01*
X62194285Y-37821428D01*
X62137142Y-37821428D01*
X62080000Y-37792857D01*
X62051428Y-37764285D01*
X62022857Y-37707142D01*
X61994285Y-37592857D01*
X61994285Y-37450000D01*
X62022857Y-37335714D01*
X62051428Y-37278571D01*
X62080000Y-37250000D01*
X62137142Y-37221428D01*
D12*
X105098571Y-51191428D02*
X105055714Y-51234285D01*
X104927142Y-51277142D01*
X104841428Y-51277142D01*
X104712857Y-51234285D01*
X104627142Y-51148571D01*
X104584285Y-51062857D01*
X104541428Y-50891428D01*
X104541428Y-50762857D01*
X104584285Y-50591428D01*
X104627142Y-50505714D01*
X104712857Y-50420000D01*
X104841428Y-50377142D01*
X104927142Y-50377142D01*
X105055714Y-50420000D01*
X105098571Y-50462857D01*
X105484285Y-51277142D02*
X105484285Y-50377142D01*
X105827142Y-50377142D01*
X105912857Y-50420000D01*
X105955714Y-50462857D01*
X105998571Y-50548571D01*
X105998571Y-50677142D01*
X105955714Y-50762857D01*
X105912857Y-50805714D01*
X105827142Y-50848571D01*
X105484285Y-50848571D01*
X107455714Y-50677142D02*
X107455714Y-51277142D01*
X107241428Y-50334285D02*
X107027142Y-50977142D01*
X107584285Y-50977142D01*
X108098571Y-50377142D02*
X108184285Y-50377142D01*
X108270000Y-50420000D01*
X108312857Y-50462857D01*
X108355714Y-50548571D01*
X108398571Y-50720000D01*
X108398571Y-50934285D01*
X108355714Y-51105714D01*
X108312857Y-51191428D01*
X108270000Y-51234285D01*
X108184285Y-51277142D01*
X108098571Y-51277142D01*
X108012857Y-51234285D01*
X107970000Y-51191428D01*
X107927142Y-51105714D01*
X107884285Y-50934285D01*
X107884285Y-50720000D01*
X107927142Y-50548571D01*
X107970000Y-50462857D01*
X108012857Y-50420000D01*
X108098571Y-50377142D01*
X108955714Y-50377142D02*
X109041428Y-50377142D01*
X109127142Y-50420000D01*
X109170000Y-50462857D01*
X109212857Y-50548571D01*
X109255714Y-50720000D01*
X109255714Y-50934285D01*
X109212857Y-51105714D01*
X109170000Y-51191428D01*
X109127142Y-51234285D01*
X109041428Y-51277142D01*
X108955714Y-51277142D01*
X108870000Y-51234285D01*
X108827142Y-51191428D01*
X108784285Y-51105714D01*
X108741428Y-50934285D01*
X108741428Y-50720000D01*
X108784285Y-50548571D01*
X108827142Y-50462857D01*
X108870000Y-50420000D01*
X108955714Y-50377142D01*
X110841428Y-51191428D02*
X110798571Y-51234285D01*
X110670000Y-51277142D01*
X110584285Y-51277142D01*
X110455714Y-51234285D01*
X110370000Y-51148571D01*
X110327142Y-51062857D01*
X110284285Y-50891428D01*
X110284285Y-50762857D01*
X110327142Y-50591428D01*
X110370000Y-50505714D01*
X110455714Y-50420000D01*
X110584285Y-50377142D01*
X110670000Y-50377142D01*
X110798571Y-50420000D01*
X110841428Y-50462857D01*
X111355714Y-51277142D02*
X111270000Y-51234285D01*
X111227142Y-51191428D01*
X111184285Y-51105714D01*
X111184285Y-50848571D01*
X111227142Y-50762857D01*
X111270000Y-50720000D01*
X111355714Y-50677142D01*
X111484285Y-50677142D01*
X111570000Y-50720000D01*
X111612857Y-50762857D01*
X111655714Y-50848571D01*
X111655714Y-51105714D01*
X111612857Y-51191428D01*
X111570000Y-51234285D01*
X111484285Y-51277142D01*
X111355714Y-51277142D01*
X112170000Y-51277142D02*
X112084285Y-51234285D01*
X112041428Y-51148571D01*
X112041428Y-50377142D01*
X112641428Y-51277142D02*
X112555714Y-51234285D01*
X112512857Y-51191428D01*
X112470000Y-51105714D01*
X112470000Y-50848571D01*
X112512857Y-50762857D01*
X112555714Y-50720000D01*
X112641428Y-50677142D01*
X112770000Y-50677142D01*
X112855714Y-50720000D01*
X112898571Y-50762857D01*
X112941428Y-50848571D01*
X112941428Y-51105714D01*
X112898571Y-51191428D01*
X112855714Y-51234285D01*
X112770000Y-51277142D01*
X112641428Y-51277142D01*
X113327142Y-51277142D02*
X113327142Y-50677142D01*
X113327142Y-50848571D02*
X113370000Y-50762857D01*
X113412857Y-50720000D01*
X113498571Y-50677142D01*
X113584285Y-50677142D01*
D10*
X113648571Y-37198571D02*
X113677142Y-37170000D01*
X113734285Y-37141428D01*
X113877142Y-37141428D01*
X113934285Y-37170000D01*
X113962857Y-37198571D01*
X113991428Y-37255714D01*
X113991428Y-37312857D01*
X113962857Y-37398571D01*
X113620000Y-37741428D01*
X113991428Y-37741428D01*
D11*
X111767142Y-39413690D02*
X111767142Y-38913690D01*
X112052857Y-39413690D01*
X112052857Y-38913690D01*
X112576666Y-39366071D02*
X112552857Y-39389880D01*
X112481428Y-39413690D01*
X112433809Y-39413690D01*
X112362380Y-39389880D01*
X112314761Y-39342261D01*
X112290952Y-39294642D01*
X112267142Y-39199404D01*
X112267142Y-39127976D01*
X112290952Y-39032738D01*
X112314761Y-38985119D01*
X112362380Y-38937500D01*
X112433809Y-38913690D01*
X112481428Y-38913690D01*
X112552857Y-38937500D01*
X112576666Y-38961309D01*
X111564761Y-40075833D02*
X111802857Y-40075833D01*
X111517142Y-40218690D02*
X111683809Y-39718690D01*
X111850476Y-40218690D01*
X112279047Y-40218690D02*
X111993333Y-40218690D01*
X112136190Y-40218690D02*
X112136190Y-39718690D01*
X112088571Y-39790119D01*
X112040952Y-39837738D01*
X111993333Y-39861547D01*
X112731428Y-39718690D02*
X112493333Y-39718690D01*
X112469523Y-39956785D01*
X112493333Y-39932976D01*
X112540952Y-39909166D01*
X112660000Y-39909166D01*
X112707619Y-39932976D01*
X112731428Y-39956785D01*
X112755238Y-40004404D01*
X112755238Y-40123452D01*
X112731428Y-40171071D01*
X112707619Y-40194880D01*
X112660000Y-40218690D01*
X112540952Y-40218690D01*
X112493333Y-40194880D01*
X112469523Y-40171071D01*
X83882857Y-39310833D02*
X84120952Y-39310833D01*
X83835238Y-39453690D02*
X84001904Y-38953690D01*
X84168571Y-39453690D01*
X84597142Y-39453690D02*
X84311428Y-39453690D01*
X84454285Y-39453690D02*
X84454285Y-38953690D01*
X84406666Y-39025119D01*
X84359047Y-39072738D01*
X84311428Y-39096547D01*
X83882857Y-40115833D02*
X84120952Y-40115833D01*
X83835238Y-40258690D02*
X84001904Y-39758690D01*
X84168571Y-40258690D01*
X84311428Y-39806309D02*
X84335238Y-39782500D01*
X84382857Y-39758690D01*
X84501904Y-39758690D01*
X84549523Y-39782500D01*
X84573333Y-39806309D01*
X84597142Y-39853928D01*
X84597142Y-39901547D01*
X84573333Y-39972976D01*
X84287619Y-40258690D01*
X84597142Y-40258690D01*
D10*
%TO.C,R1*%
X77913333Y-65302380D02*
X77580000Y-64826190D01*
X77341904Y-65302380D02*
X77341904Y-64302380D01*
X77722857Y-64302380D01*
X77818095Y-64350000D01*
X77865714Y-64397619D01*
X77913333Y-64492857D01*
X77913333Y-64635714D01*
X77865714Y-64730952D01*
X77818095Y-64778571D01*
X77722857Y-64826190D01*
X77341904Y-64826190D01*
X78865714Y-65302380D02*
X78294285Y-65302380D01*
X78580000Y-65302380D02*
X78580000Y-64302380D01*
X78484761Y-64445238D01*
X78389523Y-64540476D01*
X78294285Y-64588095D01*
%TO.C,U1*%
X70310000Y-58312380D02*
X70976666Y-58312380D01*
X70548095Y-59312380D01*
X71786190Y-58645714D02*
X71786190Y-59312380D01*
X71548095Y-58264761D02*
X71310000Y-58979047D01*
X71929047Y-58979047D01*
X72786190Y-59312380D02*
X72310000Y-59312380D01*
X72310000Y-58312380D01*
X72976666Y-58312380D02*
X73310000Y-59312380D01*
X73643333Y-58312380D01*
X74548095Y-59217142D02*
X74500476Y-59264761D01*
X74357619Y-59312380D01*
X74262380Y-59312380D01*
X74119523Y-59264761D01*
X74024285Y-59169523D01*
X73976666Y-59074285D01*
X73929047Y-58883809D01*
X73929047Y-58740952D01*
X73976666Y-58550476D01*
X74024285Y-58455238D01*
X74119523Y-58360000D01*
X74262380Y-58312380D01*
X74357619Y-58312380D01*
X74500476Y-58360000D01*
X74548095Y-58407619D01*
X74929047Y-58407619D02*
X74976666Y-58360000D01*
X75071904Y-58312380D01*
X75310000Y-58312380D01*
X75405238Y-58360000D01*
X75452857Y-58407619D01*
X75500476Y-58502857D01*
X75500476Y-58598095D01*
X75452857Y-58740952D01*
X74881428Y-59312380D01*
X75500476Y-59312380D01*
X76357619Y-58645714D02*
X76357619Y-59312380D01*
X76119523Y-58264761D02*
X75881428Y-58979047D01*
X76500476Y-58979047D01*
X77357619Y-58312380D02*
X76881428Y-58312380D01*
X76833809Y-58788571D01*
X76881428Y-58740952D01*
X76976666Y-58693333D01*
X77214761Y-58693333D01*
X77310000Y-58740952D01*
X77357619Y-58788571D01*
X77405238Y-58883809D01*
X77405238Y-59121904D01*
X77357619Y-59217142D01*
X77310000Y-59264761D01*
X77214761Y-59312380D01*
X76976666Y-59312380D01*
X76881428Y-59264761D01*
X76833809Y-59217142D01*
X77786190Y-59026666D02*
X78262380Y-59026666D01*
X77690952Y-59312380D02*
X78024285Y-58312380D01*
X78357619Y-59312380D01*
%TO.C,U3*%
X97230000Y-44592380D02*
X97896666Y-44592380D01*
X97468095Y-45592380D01*
X98706190Y-44925714D02*
X98706190Y-45592380D01*
X98468095Y-44544761D02*
X98230000Y-45259047D01*
X98849047Y-45259047D01*
X99706190Y-45592380D02*
X99230000Y-45592380D01*
X99230000Y-44592380D01*
X99896666Y-44592380D02*
X100230000Y-45592380D01*
X100563333Y-44592380D01*
X101468095Y-45497142D02*
X101420476Y-45544761D01*
X101277619Y-45592380D01*
X101182380Y-45592380D01*
X101039523Y-45544761D01*
X100944285Y-45449523D01*
X100896666Y-45354285D01*
X100849047Y-45163809D01*
X100849047Y-45020952D01*
X100896666Y-44830476D01*
X100944285Y-44735238D01*
X101039523Y-44640000D01*
X101182380Y-44592380D01*
X101277619Y-44592380D01*
X101420476Y-44640000D01*
X101468095Y-44687619D01*
X101849047Y-44687619D02*
X101896666Y-44640000D01*
X101991904Y-44592380D01*
X102230000Y-44592380D01*
X102325238Y-44640000D01*
X102372857Y-44687619D01*
X102420476Y-44782857D01*
X102420476Y-44878095D01*
X102372857Y-45020952D01*
X101801428Y-45592380D01*
X102420476Y-45592380D01*
X103277619Y-44925714D02*
X103277619Y-45592380D01*
X103039523Y-44544761D02*
X102801428Y-45259047D01*
X103420476Y-45259047D01*
X104277619Y-44592380D02*
X103801428Y-44592380D01*
X103753809Y-45068571D01*
X103801428Y-45020952D01*
X103896666Y-44973333D01*
X104134761Y-44973333D01*
X104230000Y-45020952D01*
X104277619Y-45068571D01*
X104325238Y-45163809D01*
X104325238Y-45401904D01*
X104277619Y-45497142D01*
X104230000Y-45544761D01*
X104134761Y-45592380D01*
X103896666Y-45592380D01*
X103801428Y-45544761D01*
X103753809Y-45497142D01*
X104706190Y-45306666D02*
X105182380Y-45306666D01*
X104610952Y-45592380D02*
X104944285Y-44592380D01*
X105277619Y-45592380D01*
%TO.C,R2*%
X97333333Y-65332380D02*
X97000000Y-64856190D01*
X96761904Y-65332380D02*
X96761904Y-64332380D01*
X97142857Y-64332380D01*
X97238095Y-64380000D01*
X97285714Y-64427619D01*
X97333333Y-64522857D01*
X97333333Y-64665714D01*
X97285714Y-64760952D01*
X97238095Y-64808571D01*
X97142857Y-64856190D01*
X96761904Y-64856190D01*
X97714285Y-64427619D02*
X97761904Y-64380000D01*
X97857142Y-64332380D01*
X98095238Y-64332380D01*
X98190476Y-64380000D01*
X98238095Y-64427619D01*
X98285714Y-64522857D01*
X98285714Y-64618095D01*
X98238095Y-64760952D01*
X97666666Y-65332380D01*
X98285714Y-65332380D01*
%TO.C,R3*%
X97543333Y-51622380D02*
X97210000Y-51146190D01*
X96971904Y-51622380D02*
X96971904Y-50622380D01*
X97352857Y-50622380D01*
X97448095Y-50670000D01*
X97495714Y-50717619D01*
X97543333Y-50812857D01*
X97543333Y-50955714D01*
X97495714Y-51050952D01*
X97448095Y-51098571D01*
X97352857Y-51146190D01*
X96971904Y-51146190D01*
X97876666Y-50622380D02*
X98495714Y-50622380D01*
X98162380Y-51003333D01*
X98305238Y-51003333D01*
X98400476Y-51050952D01*
X98448095Y-51098571D01*
X98495714Y-51193809D01*
X98495714Y-51431904D01*
X98448095Y-51527142D01*
X98400476Y-51574761D01*
X98305238Y-51622380D01*
X98019523Y-51622380D01*
X97924285Y-51574761D01*
X97876666Y-51527142D01*
%TO.C,U4*%
X69940000Y-44622380D02*
X70606666Y-44622380D01*
X70178095Y-45622380D01*
X71416190Y-44955714D02*
X71416190Y-45622380D01*
X71178095Y-44574761D02*
X70940000Y-45289047D01*
X71559047Y-45289047D01*
X72416190Y-45622380D02*
X71940000Y-45622380D01*
X71940000Y-44622380D01*
X72606666Y-44622380D02*
X72940000Y-45622380D01*
X73273333Y-44622380D01*
X74178095Y-45527142D02*
X74130476Y-45574761D01*
X73987619Y-45622380D01*
X73892380Y-45622380D01*
X73749523Y-45574761D01*
X73654285Y-45479523D01*
X73606666Y-45384285D01*
X73559047Y-45193809D01*
X73559047Y-45050952D01*
X73606666Y-44860476D01*
X73654285Y-44765238D01*
X73749523Y-44670000D01*
X73892380Y-44622380D01*
X73987619Y-44622380D01*
X74130476Y-44670000D01*
X74178095Y-44717619D01*
X74559047Y-44717619D02*
X74606666Y-44670000D01*
X74701904Y-44622380D01*
X74940000Y-44622380D01*
X75035238Y-44670000D01*
X75082857Y-44717619D01*
X75130476Y-44812857D01*
X75130476Y-44908095D01*
X75082857Y-45050952D01*
X74511428Y-45622380D01*
X75130476Y-45622380D01*
X75987619Y-44955714D02*
X75987619Y-45622380D01*
X75749523Y-44574761D02*
X75511428Y-45289047D01*
X76130476Y-45289047D01*
X76987619Y-44622380D02*
X76511428Y-44622380D01*
X76463809Y-45098571D01*
X76511428Y-45050952D01*
X76606666Y-45003333D01*
X76844761Y-45003333D01*
X76940000Y-45050952D01*
X76987619Y-45098571D01*
X77035238Y-45193809D01*
X77035238Y-45431904D01*
X76987619Y-45527142D01*
X76940000Y-45574761D01*
X76844761Y-45622380D01*
X76606666Y-45622380D01*
X76511428Y-45574761D01*
X76463809Y-45527142D01*
X77416190Y-45336666D02*
X77892380Y-45336666D01*
X77320952Y-45622380D02*
X77654285Y-44622380D01*
X77987619Y-45622380D01*
%TO.C,U2*%
X97290000Y-58382380D02*
X97956666Y-58382380D01*
X97528095Y-59382380D01*
X98766190Y-58715714D02*
X98766190Y-59382380D01*
X98528095Y-58334761D02*
X98290000Y-59049047D01*
X98909047Y-59049047D01*
X99766190Y-59382380D02*
X99290000Y-59382380D01*
X99290000Y-58382380D01*
X99956666Y-58382380D02*
X100290000Y-59382380D01*
X100623333Y-58382380D01*
X101528095Y-59287142D02*
X101480476Y-59334761D01*
X101337619Y-59382380D01*
X101242380Y-59382380D01*
X101099523Y-59334761D01*
X101004285Y-59239523D01*
X100956666Y-59144285D01*
X100909047Y-58953809D01*
X100909047Y-58810952D01*
X100956666Y-58620476D01*
X101004285Y-58525238D01*
X101099523Y-58430000D01*
X101242380Y-58382380D01*
X101337619Y-58382380D01*
X101480476Y-58430000D01*
X101528095Y-58477619D01*
X101909047Y-58477619D02*
X101956666Y-58430000D01*
X102051904Y-58382380D01*
X102290000Y-58382380D01*
X102385238Y-58430000D01*
X102432857Y-58477619D01*
X102480476Y-58572857D01*
X102480476Y-58668095D01*
X102432857Y-58810952D01*
X101861428Y-59382380D01*
X102480476Y-59382380D01*
X103337619Y-58715714D02*
X103337619Y-59382380D01*
X103099523Y-58334761D02*
X102861428Y-59049047D01*
X103480476Y-59049047D01*
X104337619Y-58382380D02*
X103861428Y-58382380D01*
X103813809Y-58858571D01*
X103861428Y-58810952D01*
X103956666Y-58763333D01*
X104194761Y-58763333D01*
X104290000Y-58810952D01*
X104337619Y-58858571D01*
X104385238Y-58953809D01*
X104385238Y-59191904D01*
X104337619Y-59287142D01*
X104290000Y-59334761D01*
X104194761Y-59382380D01*
X103956666Y-59382380D01*
X103861428Y-59334761D01*
X103813809Y-59287142D01*
X104766190Y-59096666D02*
X105242380Y-59096666D01*
X104670952Y-59382380D02*
X105004285Y-58382380D01*
X105337619Y-59382380D01*
%TO.C,R4*%
X70543333Y-51602380D02*
X70210000Y-51126190D01*
X69971904Y-51602380D02*
X69971904Y-50602380D01*
X70352857Y-50602380D01*
X70448095Y-50650000D01*
X70495714Y-50697619D01*
X70543333Y-50792857D01*
X70543333Y-50935714D01*
X70495714Y-51030952D01*
X70448095Y-51078571D01*
X70352857Y-51126190D01*
X69971904Y-51126190D01*
X71400476Y-50935714D02*
X71400476Y-51602380D01*
X71162380Y-50554761D02*
X70924285Y-51269047D01*
X71543333Y-51269047D01*
%TO.C,R6*%
X65193333Y-65292380D02*
X64860000Y-64816190D01*
X64621904Y-65292380D02*
X64621904Y-64292380D01*
X65002857Y-64292380D01*
X65098095Y-64340000D01*
X65145714Y-64387619D01*
X65193333Y-64482857D01*
X65193333Y-64625714D01*
X65145714Y-64720952D01*
X65098095Y-64768571D01*
X65002857Y-64816190D01*
X64621904Y-64816190D01*
X66050476Y-64292380D02*
X65860000Y-64292380D01*
X65764761Y-64340000D01*
X65717142Y-64387619D01*
X65621904Y-64530476D01*
X65574285Y-64720952D01*
X65574285Y-65101904D01*
X65621904Y-65197142D01*
X65669523Y-65244761D01*
X65764761Y-65292380D01*
X65955238Y-65292380D01*
X66050476Y-65244761D01*
X66098095Y-65197142D01*
X66145714Y-65101904D01*
X66145714Y-64863809D01*
X66098095Y-64768571D01*
X66050476Y-64720952D01*
X65955238Y-64673333D01*
X65764761Y-64673333D01*
X65669523Y-64720952D01*
X65621904Y-64768571D01*
X65574285Y-64863809D01*
D13*
%TO.C,R1*%
X76120000Y-65770000D02*
X79960000Y-65770000D01*
X76120000Y-63930000D02*
X79960000Y-63930000D01*
%TO.C,C3*%
X91809000Y-50190000D02*
X90551000Y-50190000D01*
X91809000Y-52030000D02*
X90551000Y-52030000D01*
%TO.C,C2*%
X91809000Y-64060000D02*
X90551000Y-64060000D01*
X91809000Y-65900000D02*
X90551000Y-65900000D01*
%TO.C,U1*%
X87030000Y-56140000D02*
X61510000Y-56140000D01*
X61510000Y-56140000D02*
X61510000Y-57790000D01*
X61510000Y-61440000D02*
X87030000Y-61440000D01*
X87030000Y-61440000D02*
X87030000Y-56140000D01*
X61510000Y-59790000D02*
X61510000Y-61440000D01*
X61510000Y-59790000D02*
G75*
G03*
X61510000Y-57790000I0J1000000D01*
G01*
%TO.C,U3*%
X114035000Y-42400000D02*
X88515000Y-42400000D01*
X88515000Y-46050000D02*
X88515000Y-47700000D01*
X114035000Y-47700000D02*
X114035000Y-42400000D01*
X88515000Y-47700000D02*
X114035000Y-47700000D01*
X88515000Y-42400000D02*
X88515000Y-44050000D01*
X88515000Y-46050000D02*
G75*
G03*
X88515000Y-44050000I0J1000000D01*
G01*
%TO.C,R2*%
X99330000Y-65730000D02*
X95490000Y-65730000D01*
X99330000Y-63890000D02*
X95490000Y-63890000D01*
%TO.C,C1*%
X83841000Y-65780000D02*
X85099000Y-65780000D01*
X83841000Y-63940000D02*
X85099000Y-63940000D01*
%TO.C,G\u002A\u002A\u002A*%
G36*
X104140501Y-50139374D02*
G01*
X104140501Y-53640627D01*
X101339499Y-53640627D01*
X101339499Y-53513308D01*
X101466817Y-53513308D01*
X102103408Y-53513308D01*
X102230727Y-53513308D01*
X102867318Y-53513308D01*
X102867318Y-52749399D01*
X102230727Y-52749399D01*
X102230727Y-53513308D01*
X102103408Y-53513308D01*
X102103408Y-52749399D01*
X101466817Y-52749399D01*
X101466817Y-53513308D01*
X101339499Y-53513308D01*
X101339499Y-52685739D01*
X101466817Y-52685739D01*
X102103408Y-52685739D01*
X102230727Y-52685739D01*
X102867318Y-52685739D01*
X102994636Y-52685739D01*
X103236541Y-52685739D01*
X103414776Y-52666736D01*
X103541899Y-52619949D01*
X103554837Y-52609348D01*
X103600244Y-52503699D01*
X103627606Y-52323794D01*
X103631228Y-52227394D01*
X103631228Y-51921830D01*
X102994636Y-51921830D01*
X102994636Y-52685739D01*
X102867318Y-52685739D01*
X102867318Y-51921830D01*
X102230727Y-51921830D01*
X102230727Y-52685739D01*
X102103408Y-52685739D01*
X102103408Y-51921830D01*
X101466817Y-51921830D01*
X101466817Y-52685739D01*
X101339499Y-52685739D01*
X101339499Y-51858170D01*
X101466817Y-51858170D01*
X102103408Y-51858170D01*
X102230727Y-51858170D01*
X102867318Y-51858170D01*
X102994636Y-51858170D01*
X103378589Y-51858170D01*
X103613705Y-51848513D01*
X103746839Y-51815810D01*
X103800030Y-51760478D01*
X103806378Y-51642988D01*
X103778513Y-51461143D01*
X103757929Y-51378524D01*
X103678341Y-51094261D01*
X102994636Y-51094261D01*
X102994636Y-51858170D01*
X102867318Y-51858170D01*
X102867318Y-51094261D01*
X102230727Y-51094261D01*
X102230727Y-51858170D01*
X102103408Y-51858170D01*
X102103408Y-51094261D01*
X101466817Y-51094261D01*
X101466817Y-51858170D01*
X101339499Y-51858170D01*
X101339499Y-50966942D01*
X101460163Y-50966942D01*
X102103408Y-50966942D01*
X102230727Y-50966942D01*
X102867318Y-50966942D01*
X102994636Y-50966942D01*
X103694887Y-50966942D01*
X103694887Y-50717512D01*
X103684066Y-50481894D01*
X103636222Y-50346076D01*
X103528285Y-50283304D01*
X103337187Y-50266829D01*
X103306121Y-50266692D01*
X102994636Y-50266692D01*
X102994636Y-50966942D01*
X102867318Y-50966942D01*
X102867318Y-50266692D01*
X102230727Y-50266692D01*
X102230727Y-50966942D01*
X102103408Y-50966942D01*
X102103408Y-50259716D01*
X101801027Y-50279119D01*
X101498646Y-50298521D01*
X101479405Y-50632732D01*
X101460163Y-50966942D01*
X101339499Y-50966942D01*
X101339499Y-50139374D01*
X104140501Y-50139374D01*
G37*
%TO.C,C4*%
X64819000Y-50250000D02*
X63561000Y-50250000D01*
X64819000Y-52090000D02*
X63561000Y-52090000D01*
%TO.C,R3*%
X99500000Y-50210000D02*
X95660000Y-50210000D01*
X99500000Y-52050000D02*
X95660000Y-52050000D01*
%TO.C,U4*%
X61665000Y-42440000D02*
X61665000Y-44090000D01*
X87185000Y-42440000D02*
X61665000Y-42440000D01*
X87185000Y-47740000D02*
X87185000Y-42440000D01*
X61665000Y-46090000D02*
X61665000Y-47740000D01*
X61665000Y-47740000D02*
X87185000Y-47740000D01*
X61665000Y-46090000D02*
G75*
G03*
X61665000Y-44090000I0J1000000D01*
G01*
%TO.C,U2*%
X88510000Y-59780000D02*
X88510000Y-61430000D01*
X88510000Y-56130000D02*
X88510000Y-57780000D01*
X114030000Y-56130000D02*
X88510000Y-56130000D01*
X114030000Y-61430000D02*
X114030000Y-56130000D01*
X88510000Y-61430000D02*
X114030000Y-61430000D01*
X88510000Y-59780000D02*
G75*
G03*
X88510000Y-57780000I0J1000000D01*
G01*
%TO.C,R4*%
X72590000Y-52080000D02*
X68750000Y-52080000D01*
X72590000Y-50240000D02*
X68750000Y-50240000D01*
%TO.C,IDC1*%
X110855000Y-33555000D02*
X62535000Y-33555000D01*
X110855000Y-33555000D02*
X110855000Y-36155000D01*
X113455000Y-33555000D02*
X113455000Y-34885000D01*
X62535000Y-33555000D02*
X62535000Y-38755000D01*
X113455000Y-36155000D02*
X113455000Y-38755000D01*
X110855000Y-36155000D02*
X113455000Y-36155000D01*
X112125000Y-33555000D02*
X113455000Y-33555000D01*
X113455000Y-38755000D02*
X62535000Y-38755000D01*
%TO.C,J1*%
X82435000Y-50630000D02*
X82435000Y-51960000D01*
X74695000Y-50630000D02*
X74695000Y-53290000D01*
X79835000Y-50630000D02*
X74695000Y-50630000D01*
X81105000Y-50630000D02*
X82435000Y-50630000D01*
X79835000Y-50630000D02*
X79835000Y-53290000D01*
X79835000Y-53290000D02*
X74695000Y-53290000D01*
%TO.C,R6*%
X63450000Y-63950000D02*
X67290000Y-63950000D01*
X63450000Y-65790000D02*
X67290000Y-65790000D01*
%TD*%
M02*
